<svg width="170" height="170" viewBox="0 0 170 170" fill="none" xmlns="http://www.w3.org/2000/svg">
<g clip-path="url(#clip0)">
<path fill-rule="evenodd" clip-rule="evenodd" d="M164.636 234.934C163.785 230.123 163.004 225.299 162.295 220.465C161.958 218.17 161.63 215.872 161.334 213.571C161.127 211.959 160.812 210.115 161.909 208.921C163.452 207.241 164.853 205.802 165.042 203.395C165.22 201.13 164.454 198.661 163.975 196.462C162.971 191.851 161.722 187.297 160.341 182.787C158.938 178.204 157.399 173.664 155.838 169.133C154.379 164.897 152.977 160.623 151.076 156.558C147.47 148.845 141.369 143.133 133.828 139.319C131.953 138.37 128.127 134.984 126.168 134.226C124.367 133.529 124.373 135.564 122.601 134.797C121.183 134.184 119.864 133.367 119.07 131.998C118.209 130.512 116.048 128.433 115.719 126.703C115.022 123.036 115.777 119.914 113.161 117.154C110.838 114.703 107.716 113.024 104.486 112.123C97.3798 110.14 87.9028 111.526 83.6153 118.132C81.5675 121.287 80.852 125.1 78.0888 127.674C75.6759 129.922 76.2159 131.459 73.0908 132.618C72.9138 132.684 68.1164 131.654 67.9394 131.72C64.5206 130.988 61.2531 133.037 58.1166 134.226C53.4406 135.998 48.9888 138.304 44.8063 141.046C36.3727 146.574 29.1495 153.752 23.1945 161.875C17.1903 170.064 12.5316 179.244 9.2145 188.838C8.40893 191.168 7.68534 193.527 7.0471 195.909C6.68985 197.241 6.30809 198.624 6.74309 199.989C7.09886 201.105 7.89027 201.936 8.81964 202.606C10.0794 203.514 12.6064 204.105 12.5572 205.931C12.5196 207.32 12.0487 208.781 11.8188 210.153C11.5452 211.788 11.3204 213.431 11.0956 215.073C10.0731 222.544 9.27724 230.057 8.92527 237.592C8.57879 245.011 8.29126 252.581 8.80569 259.998C8.83971 260.487 8.98548 260.936 9.22062 261.315C9.00112 261.399 8.98422 261.809 9.25739 261.867C9.44879 261.907 9.63978 261.948 9.83119 261.988C10.2288 262.289 10.7246 262.474 11.2953 262.492C11.6821 262.504 12.0687 262.522 12.4551 262.541C16.5328 263.394 20.6099 264.2 24.7408 264.81C29.7622 265.551 34.7984 266.155 39.8502 266.647C50.2308 267.656 60.5297 267.321 70.9241 266.777C81.3024 266.234 91.6746 266.107 102.064 266.377C112.462 266.648 122.856 267.1 133.257 267.285C144.876 267.492 156.478 267.175 168.064 266.251C169.652 266.124 170.635 264.86 170.322 263.281C168.445 253.825 166.318 244.432 164.636 234.934Z" fill="white"/>
<path fill-rule="evenodd" clip-rule="evenodd" d="M64.6975 131.487C65.772 131.44 66.8676 131.614 67.9396 131.72C68.033 131.729 68.0685 131.873 67.9633 131.895C66.0448 132.296 64.1473 132.844 62.2631 133.401L61.4564 133.64C59.3317 134.269 57.2693 134.918 55.2124 135.756C51.113 137.428 47.2195 139.684 43.6362 142.275C29.8379 152.256 19.8513 167.366 13.5492 183.01C11.8377 187.259 10.3876 191.613 9.21291 196.041C8.92727 197.118 8.65854 198.199 8.40375 199.284C8.32896 199.602 8.00298 200.417 8.18171 200.742C8.33974 201.03 8.9541 201.208 9.23952 201.357L10.2031 201.857C12.0828 202.826 15.2137 204.419 15.5277 204.575L16.0174 204.816C24.0267 208.744 32.5845 212.075 41.5975 212.305L41.668 211.535C42.0699 207.278 42.5972 202.999 43.7482 198.873C43.8101 198.651 44.0921 198.726 44.1179 198.923C44.7591 203.808 44.5542 208.73 44.3304 213.637C43.9343 222.328 43.4083 231.015 42.9407 239.702C42.7066 244.048 42.4041 248.391 42.1309 252.735C41.8573 257.087 41.7688 261.544 41.1441 265.861C41.0049 266.823 39.8784 267.346 39.0253 267.245C38.0814 267.132 37.3552 266.301 37.3508 265.347C37.3394 262.833 37.6552 260.288 37.8308 257.78C37.9975 255.397 38.1764 253.015 38.3598 250.633C39.0299 241.94 39.8009 233.257 40.5139 224.568C40.7666 221.486 41.0395 218.407 41.3205 215.328C31.7727 215.02 22.8528 211.482 14.3433 207.348C14.2202 210.146 13.9227 212.939 13.6347 215.725C12.8309 223.499 12.1221 231.271 11.5916 239.07C11.3237 243.009 11.1287 246.953 10.9588 250.897C10.8754 252.836 10.8073 254.774 10.7552 256.714C10.7377 257.36 10.7219 258.007 10.708 258.654L10.6789 260.135C10.6552 261.073 10.5598 261.943 9.77044 262.626C8.96868 263.32 7.88572 263.357 7.0922 262.626C6.02995 261.647 6.21776 260.314 6.24924 259C6.27544 257.891 6.30692 256.783 6.34347 255.675C6.41678 253.459 6.51037 251.243 6.62424 249.028C7.02272 241.285 7.81889 233.573 8.85939 225.892L9.26556 222.927C10.0241 217.415 10.8568 211.777 12.5524 206.468C11.8922 206.139 11.2339 205.808 10.5781 205.476C9.41488 204.887 8.21213 204.334 7.08143 203.684C6.18438 203.168 5.41072 202.46 5.161 201.416C4.8825 200.252 5.30837 198.98 5.59129 197.845L5.61586 197.745C5.89326 196.602 6.19199 195.464 6.5072 194.331C7.78537 189.737 9.36586 185.232 11.2155 180.837C14.919 172.038 19.6994 163.679 25.5386 156.121C30.7947 149.317 37.0039 143.147 44.2812 138.52C47.839 136.258 51.6304 134.4 55.64 133.087C57.5142 132.473 59.5533 131.939 61.5156 131.72C62.574 131.601 63.634 131.533 64.6975 131.487ZM83.7354 117.544C85.0123 116.173 87.5492 117.592 86.9361 119.408C85.494 123.682 83.1975 127.58 79.6135 130.388C76.2447 133.027 72.2274 134.742 67.9011 134.376C67.8677 134.373 67.8388 134.364 67.8132 134.352L68.186 134.858C71.1131 138.819 74.201 142.725 77.9228 145.963C85.5058 152.559 95.8304 156.117 105.8 153.586C113.644 151.595 120.555 145.39 122.587 137.482C122.296 137.613 121.949 137.658 121.569 137.575C119.943 137.222 118.333 135.511 117.285 134.284C116.15 132.957 115.264 131.524 114.615 129.904C113.426 126.94 113.045 123.123 114.668 120.252C114.868 119.898 115.33 120.096 115.369 120.442L115.431 120.981C115.744 123.672 116.134 126.275 117.402 128.729C118.023 129.929 118.767 131.101 119.673 132.106C120.157 132.644 120.683 133.158 121.25 133.609C121.803 134.049 122.472 134.366 122.967 134.871L123.058 134.967L123.061 134.95C123.186 133.885 123.933 133.415 124.663 133.445C125.371 133.473 126.201 133.785 126.523 133.934L126.553 133.948C131.487 136.317 136.031 139.405 140.307 142.831C149.15 149.917 155.775 159.179 158.985 170.086C160.561 175.44 161.465 180.956 162.419 186.446L163.007 189.81C163.898 194.879 164.893 200.047 166.904 204.762C167.424 205.981 167.023 207.125 165.747 207.605C164.155 208.204 162.556 208.784 160.955 209.356C161.742 212.73 162.221 216.221 162.81 219.611C164.062 226.818 165.596 233.979 166.911 241.176C167.584 244.856 168.19 248.549 168.862 252.229C169.186 254.001 169.523 255.771 169.852 257.543C170.028 258.498 170.189 259.456 170.358 260.413L170.387 260.572C170.484 261.076 170.605 261.598 170.466 262.103C170.308 262.679 169.859 263.086 169.458 263.499C169.127 263.839 168.65 263.841 168.246 263.656L168.113 263.594C167.39 263.256 166.824 262.919 166.567 262.103C166.405 261.587 166.347 261.005 166.241 260.473C166.037 259.454 165.844 258.433 165.662 257.409C165.298 255.36 164.942 253.31 164.595 251.258L164.27 249.337C163.157 242.715 162.1 236.054 161.565 229.362C161.328 226.394 161.077 223.428 160.823 220.461L160.633 218.236C160.392 215.42 160.097 212.533 160.056 209.678L159.098 210.018L154.427 211.67C153.269 212.08 151.794 212.919 150.548 212.766C149.938 212.691 149.473 212.499 149.113 212.15C149.544 218.223 150.126 224.285 150.902 230.316C151.608 235.804 152.391 241.285 153.315 246.74C153.773 249.442 154.243 252.141 154.754 254.832C155.01 256.179 155.274 257.523 155.545 258.866C155.681 259.536 155.842 260.206 155.947 260.882C156.068 261.655 155.855 262.131 155.423 262.768C155.069 263.29 154.359 263.559 153.784 263.198C153.022 262.72 152.624 262.305 152.4 261.434C152.197 260.643 152.073 259.817 151.915 259.016C151.624 257.537 151.343 256.056 151.072 254.574C150.504 251.473 149.981 248.364 149.513 245.246C147.867 234.263 146.822 223.187 146.294 212.093C146.033 206.62 145.953 201.142 145.999 195.663C146.023 192.854 146.114 190.038 146.313 187.237C146.514 184.401 146.932 181.622 147.306 178.813C147.319 178.714 147.459 178.709 147.464 178.813C147.641 181.962 147.918 185.107 148.054 188.264C148.184 191.276 148.241 194.293 148.344 197.307C148.479 201.268 148.667 205.232 148.916 209.192C149.366 208.7 150.045 208.415 150.724 208.526C151.707 208.32 152.766 207.804 153.704 207.49L157.239 206.309C159.098 205.688 160.956 205.071 162.822 204.473C161.154 198.861 160.012 193.165 159.036 187.387L158.601 184.788C157.74 179.672 156.812 174.554 155.252 169.6C153.613 164.392 151.159 159.55 147.904 155.165C144.695 150.844 140.792 147.039 136.773 143.48C133.332 140.433 129.651 137.682 126.141 134.719C126.178 134.915 126.186 135.131 126.153 135.369C125.407 140.832 122.558 145.92 118.588 149.704C110.612 157.307 98.8045 158.884 88.5956 155.319C78.7203 151.871 69.9892 143.704 66.9045 133.597C66.8517 133.425 67.0833 133.356 67.1762 133.483C67.3473 133.718 67.5193 133.952 67.6915 134.187C67.6799 134.094 67.7283 133.992 67.8432 133.948C71.4423 132.557 74.9766 130.586 77.6745 127.797C78.9895 126.437 80.1371 124.897 81.043 123.235C81.4769 122.44 81.8667 121.616 82.1777 120.764L82.2567 120.544C82.6336 119.477 82.9486 118.389 83.7354 117.544Z" fill="black"/>
<path fill-rule="evenodd" clip-rule="evenodd" d="M81.1294 33.5837L82.9541 35.7546C81.9437 36.4669 80.99 37.1827 80.0928 37.9018L80.092 37.8996C84.2478 35.1871 88.8503 33.5837 93.8224 33.5837C103.399 33.5837 122.851 41.8131 127.248 47.7489C129.43 50.6946 133.485 59.7378 135.589 69.5694C137.279 77.4689 139.793 99.7862 137.279 108.172C134.062 118.904 123.477 128.824 112.563 128.824C101.649 128.824 84.7042 120.941 72.6445 103.667C72.0931 102.877 65.7606 101.962 61.2431 98.9972L62.4292 112.069L63.3306 119.673L63.1317 120.214C59.8963 128.967 57.3324 133.534 55.4401 133.914C53.5092 134.302 49.5768 131.135 43.643 124.415L42.8848 121.231C40.959 113.11 39.9961 108.75 39.9961 108.153L39.9974 108.044C40.0258 106.67 40.4991 98.8903 40.5089 96.7967L40.509 65.4188C46.8906 44.1954 52.9804 33.5837 58.7785 33.5837H81.1294Z" fill="white"/>
<path fill-rule="evenodd" clip-rule="evenodd" d="M66.009 26.356C67.8853 25.6289 70.059 25.7663 71.84 26.8611C75.3367 26.7111 78.8142 28.7569 80.6372 31.7433C80.6752 31.7856 80.7156 31.8278 80.7515 31.8701L81.1379 32.3206C81.5037 32.7508 81.8896 33.225 82.1953 33.7146C80.6978 33.7488 79.4503 34.3594 78.5795 35.5926C77.9581 36.4726 79.3815 37.3088 80.0166 36.4765L80.0389 36.4461C80.5618 35.7057 81.3511 35.4189 82.2297 35.4039C82.482 35.3997 82.6734 35.3031 82.8086 35.1606C82.8625 35.357 82.9107 35.5554 82.9548 35.7547C87.3792 34.0333 92.1488 33.5774 96.8991 33.9857C96.6908 34.323 96.5167 34.6845 96.3828 35.0643C96.2309 35.4948 96.5549 35.9891 96.973 36.1041C97.4252 36.2284 97.8338 35.9633 97.9974 35.5537L98.0125 35.5136C98.195 34.9962 98.4931 34.5522 98.8933 34.2079C101.13 34.5111 103.35 34.9935 105.516 35.6152C108.12 36.3632 110.698 37.276 113.221 38.3212C112.793 38.4888 112.424 38.772 112.166 39.2448C111.65 40.1885 113.068 41.0338 113.606 40.1316L113.625 40.0982C113.678 40.0014 113.725 39.9433 113.759 39.9102L113.771 39.8989L113.846 39.8647L113.984 39.8249L114.038 39.8119C114.084 39.8013 114.104 39.8019 114.227 39.7951C114.392 39.7858 114.556 39.7867 114.721 39.7865C115.108 39.7862 115.355 39.5705 115.467 39.2944C116.711 39.8564 117.94 40.4482 119.147 41.0681L119.434 41.2167C123.16 43.164 126.689 45.7213 128.736 49.4841C128.872 49.7356 128.914 50.0103 128.88 50.2724C129.317 50.7965 129.74 51.3376 130.146 51.8871C131.384 53.5695 132.29 55.4822 133.148 57.378C134.874 61.1907 136.036 65.1071 136.942 69.1904C137.819 73.1257 138.527 77.1033 139.184 81.0809C139.913 85.5003 140.519 89.9576 140.646 94.4404C140.87 102.432 139.308 110.469 134.823 117.196C130.822 123.199 124.797 127.965 117.651 129.491C110.384 131.042 102.694 129.529 96.9663 124.685C96.0428 123.905 96.1698 122.33 96.9663 121.531C97.8684 120.631 99.1992 120.756 100.118 121.531C105.512 126.094 113.363 126.798 119.861 124.473C125.87 122.322 130.577 117.359 133.465 111.786C136.989 104.989 137.582 97.1816 137.041 89.6617C136.746 85.532 136.131 81.436 135.497 77.3464L135.114 74.8846C134.697 72.2182 134.259 69.5555 133.687 66.9162L133.553 66.3013C132.854 63.1186 132.035 59.8543 130.769 56.8623C130.106 55.292 129.307 53.7787 128.49 52.2844C128.331 51.9949 128.168 51.7011 128.001 51.4052C127.777 51.4834 127.522 51.4961 127.253 51.4116C124.944 50.693 122.572 50.2111 120.157 50.0505C119.057 49.9769 117.955 49.9655 116.855 50.0084C114.971 49.8987 113.034 50.0644 111.24 50.6423C111.064 50.4916 110.886 50.344 110.708 50.1965C110.66 50.1927 110.612 50.1876 110.564 50.1781C110.106 50.0881 109.785 49.7626 109.591 49.3515C109.58 49.3298 109.571 49.308 109.563 49.2862C109.333 49.1106 109.101 48.9377 108.868 48.7672C108.298 48.9149 107.799 48.4408 107.665 47.9213C107.538 47.8357 107.409 47.7529 107.281 47.669C107.181 47.6935 107.081 47.7138 106.984 47.721C106.565 47.7512 106.16 47.6869 105.788 47.4868C105.317 47.2334 105.017 46.8246 104.816 46.3603C104.104 46.404 103.384 46.173 102.748 45.7554C102.232 45.4166 101.836 44.9489 101.443 44.482C96.6519 42.3442 91.4437 41.082 86.2233 40.7587C85.7091 40.8576 85.1985 40.9753 84.6942 41.1123C84.5748 41.1448 84.4054 41.2086 84.2104 41.2851C85.3742 41.1444 86.5531 41.1304 87.7487 41.3027C93.4221 42.1234 97.8407 46.3728 101.644 50.384C102.548 50.2012 103.463 51.3731 102.626 52.1492L96.098 58.2003C96.2581 58.8771 95.4823 59.5441 94.8027 59.3816C93.6631 59.1077 92.5216 58.8414 91.3793 58.5795C90.1878 59.1563 88.6897 59.0576 87.6088 58.2215C87.5585 58.1826 87.4493 58.1205 87.3545 58.0587C87.2657 58.1321 87.1464 58.2056 87.0988 58.2369C86.7145 58.4914 86.2464 58.5662 85.7974 58.4948C85.3356 58.4214 84.9188 58.187 84.5594 57.8952C84.3306 57.7092 83.7975 56.9335 83.5009 56.8763L83.472 56.8731C83.6699 56.8788 83.0336 57.4703 82.8627 57.5927C82.4638 57.8774 82.0229 58.027 81.5266 57.9725C80.6617 57.8773 79.9181 57.0888 79.4951 56.3606L79.4632 56.3047L79.4499 56.2701L79.4386 56.3076C79.4365 56.3142 79.4342 56.3213 79.4313 56.3293C79.3679 56.5007 79.1689 56.6955 79.0337 56.8154C78.6483 57.1563 78.1713 57.3061 77.6617 57.2171C77.2304 57.1421 76.8677 56.8814 76.5762 56.5659L76.5308 56.5157C76.4445 56.4183 75.8764 55.6546 75.9661 55.4716L75.9764 55.4562L75.9481 55.4503C75.6025 55.5352 75.3124 55.45 75.0999 55.2719C73.9138 55.0119 72.7432 54.7091 71.61 54.324C71.5212 54.5734 71.4344 54.8228 71.3501 55.0743C71.9689 55.4568 72.5414 56.0021 73.0675 56.391C74.0649 57.1265 75.0619 57.862 76.0569 58.5996L79.9996 61.509L80.4504 61.3879C81.0266 61.2332 81.5209 61.5687 81.7323 62.0816L81.7497 62.126C81.8336 62.3506 81.9346 62.5584 82.0533 62.7573C83.0389 62.718 83.8734 63.3233 84.1432 64.1915C84.3866 64.186 84.6325 64.1953 84.8839 64.223C85.5724 64.2986 86.0365 64.8101 85.9118 65.5124L85.9024 65.5606L85.8857 65.6388C86.2848 65.8083 86.5742 66.1357 86.6385 66.6307C86.7454 66.7915 86.8316 66.9665 86.8867 67.1614C87.1747 68.1725 86.6145 69.4224 86.316 70.391L86.293 70.4669C86.1015 71.1035 85.9033 71.737 85.7027 72.3703L85.2032 73.9425C83.8181 78.3242 82.4677 82.9441 83.5886 87.5377C83.8276 88.5099 82.5851 88.9495 82.0464 88.1886C80.7403 86.3465 79.3292 84.6107 77.8476 82.9444L77.7758 82.933C76.7383 82.7244 76.3354 81.9912 75.8592 81.2439C75.5786 81.3265 75.2769 81.346 74.9854 81.2897C74.5633 81.2084 74.1851 80.9672 73.8866 80.6627C73.6337 80.4044 73.4019 79.742 73.103 79.5778C72.729 79.3726 71.9773 79.6659 71.5307 79.6C71.1676 79.5465 70.8285 79.4218 70.4995 79.2652C69.8949 80.0897 69.4941 81.0589 69.3959 82.1039C69.3576 82.5012 69.2393 82.8372 69.0682 83.1162C69.6978 83.093 70.3295 83.1374 70.9529 83.2536C73.2599 83.6826 74.9142 85.1071 75.8438 87.2291C75.8837 87.3221 75.7633 87.3982 75.7083 87.3094C74.329 85.1853 71.3266 85.0776 69.1464 85.8257C66.8309 86.6204 65.5316 88.6599 65.0691 90.9869C64.5621 93.5379 65.2126 96.2876 66.6008 98.4603C67.2449 99.4705 68.124 100.392 69.2921 100.764C70.6804 101.206 71.9626 100.415 73.3844 100.823C74.352 101.1 74.779 102.036 74.6034 102.973C74.5337 103.34 74.4048 103.662 74.2316 103.941C74.743 104.955 75.2161 105.999 75.8182 106.959C76.7478 108.44 77.8719 109.666 79.0971 110.902C80.3626 112.179 81.6513 113.43 83.0055 114.614C84.3029 115.749 85.7902 116.556 87.1508 117.596C88.1057 118.325 88.5787 119.348 88.1076 120.519C87.7191 121.487 86.409 122.311 85.3485 121.874C83.3182 121.037 81.5414 119.612 79.9233 118.145C78.4233 116.784 77.1175 115.157 76.1309 113.39C75.2001 111.724 74.5144 109.833 73.9357 108.01L73.864 107.783C73.5914 106.916 73.3043 105.942 73.1184 104.959C72.005 105.568 70.4942 105.657 69.3029 105.492C67.378 105.228 65.6224 104.258 64.2957 102.844C63.6773 102.186 63.1307 101.435 62.6588 100.622C62.7016 101.117 62.7272 101.596 62.7547 102.032C63.8577 103.241 64.3001 104.985 63.9086 106.576C64.8314 107.526 65.09 108.953 64.6083 110.167C65.6184 111.169 65.5804 112.764 65.1437 114.212C66.3378 115.548 66.4508 117.627 65.5185 119.134L65.4904 119.242C66.4318 120.818 66.2195 122.855 65.0399 124.246C65.8455 125.809 65.7209 127.912 63.7077 128.518C62.974 128.739 62.2628 128.551 61.7307 128.139C62.2166 130.557 62.434 133.011 61.786 135.44C61.528 136.404 60.5858 137.108 59.595 137.108C58.7668 137.108 58.1647 136.691 57.7487 136.078C57.7973 137.298 57.7233 138.524 57.4635 139.76C57.3067 140.507 56.6144 141.089 55.8794 141.269C56.1445 141.569 56.2502 142.001 55.996 142.452C54.9183 144.36 52.3145 143.569 52.1385 141.74C51.4031 141.191 51.0612 140.289 50.9197 139.315C50.7135 137.895 50.6387 136.497 50.405 135.095L50.3157 135.178L50.2696 135.218L50.2548 135.32C50.1209 136.013 49.73 136.498 49.2228 136.788C49.3331 137.997 49.129 139.229 48.3621 140.147C47.8512 140.759 46.981 141 46.235 140.867C46.1881 140.87 46.1402 140.87 46.0903 140.863C44.4008 140.638 43.4233 139.035 43.868 137.564C43.1877 136.73 42.9012 135.672 43.1026 134.626C41.7862 133.754 41.813 131.839 42.2689 130.3C40.8889 129.211 40.3698 127.174 41.0632 125.555C39.8195 124.01 39.6464 121.857 40.4915 120.097C39.1231 118.973 39.1309 116.801 40.4881 115.651C39.7654 114.216 39.3295 112.496 40.0519 111.183C39.5423 110.62 39.2626 109.818 39.3215 109.043C39.4079 107.906 40.1604 107.119 41.0942 106.595L41.1589 106.239C41.3782 106.267 41.6119 106.205 41.8178 106.008C42.0217 105.812 42.2315 105.654 42.4485 105.524C42.6942 105.52 42.9057 105.411 43.0544 105.242C43.4613 105.104 43.8988 105.043 44.3841 105.038C45.4322 105.026 45.4692 103.458 44.4938 103.357C44.3397 103.201 44.1276 103.103 43.8976 103.103L43.7174 103.104C43.2962 103.108 42.871 103.134 42.4802 103.302C42.2262 103.41 42.0304 103.574 41.8869 103.774C41.8601 104.078 41.6953 104.38 41.3385 104.629C40.9263 104.918 40.3626 104.951 39.9215 104.69C39.304 104.325 39.2976 103.755 39.3688 103.136C39.5247 101.78 38.7456 100.504 38.9311 99.1173C39.0133 98.5042 39.2173 97.9748 39.5501 97.5472C38.8485 96.4966 38.7247 95.1404 39.2649 93.987C38.1395 92.7758 37.9449 90.9087 38.6626 89.451C38.6729 89.4157 38.6809 89.3796 38.6921 89.3447C38.7733 89.097 38.885 88.8736 39.0082 88.6599C38.3782 87.5681 38.3828 86.2284 39.0232 85.1412C38.0533 84.01 38.0224 82.21 38.885 80.9913C38.8901 80.8903 38.9007 80.7893 38.9093 80.6882C38.5134 79.66 38.6085 78.491 39.1107 77.5349C38.9315 77.1217 38.7933 76.6768 38.705 76.203C38.4788 74.9813 38.5952 73.7936 38.9332 72.6015C38.9879 72.4134 39.0492 72.2253 39.1147 72.0372C39.1257 71.2208 39.1567 70.4079 39.1977 69.5966C39.0371 68.9097 39.0112 68.1549 39.0076 67.4542L39.0066 66.9998C38.9987 65.8435 38.9182 64.1504 39.649 63.1675C39.1797 62.1057 39.3726 60.7678 40.1558 59.9262C39.6061 58.9804 39.4907 57.8191 40.0432 56.7697C40.1319 56.6008 40.2348 56.4436 40.3476 56.2948C40.302 55.3338 40.5042 54.3428 41.0161 53.3877C41.3486 52.7659 41.8453 52.2276 42.4358 51.7969C42.4259 51.6694 42.4197 51.5422 42.4219 51.4168C42.4322 50.8576 42.5562 50.2961 42.765 49.7721C42.3904 49.1326 42.2167 48.4117 42.4358 47.6347C42.6809 46.7555 43.3254 45.9989 44.1302 45.572C44.195 44.743 44.3245 43.919 44.5096 43.1059C44.015 42.0042 44.4088 40.5501 45.5266 39.901C45.3809 39.0205 45.5123 38.1075 46.1528 37.4198C46.3956 37.1592 46.6816 36.9615 46.9895 36.8305C46.8412 35.9452 47.0085 35.0241 47.6205 34.3032C48.1204 33.7146 48.8611 33.357 49.6149 33.3043C49.9052 31.7644 51.3758 30.613 52.9273 30.7047C53.1213 30.0267 53.5846 29.4356 54.3033 29.1359C54.4873 29.0592 54.6733 29.0086 54.8585 28.9805C56.1202 27.7074 57.9986 26.8444 59.6247 26.4025C61.2559 25.961 62.9093 25.9182 64.3098 26.4316L64.4119 26.4701L64.5259 26.4553C65.0205 26.4004 65.5147 26.3687 66.009 26.356ZM53.6142 130.707C53.1785 130.571 52.6926 130.868 52.5745 131.298C52.4499 131.752 52.7275 132.201 53.1648 132.338C53.7096 132.508 54.282 132.55 54.8499 132.55C55.3064 132.551 55.6949 132.162 55.6949 131.705C55.6949 131.246 55.3081 130.86 54.8499 130.86C54.388 130.859 54.047 130.842 53.6142 130.707ZM49.7386 121.729C49.0872 121.73 48.5286 121.885 48.0457 122.342C47.7237 122.647 47.7157 123.235 48.0457 123.538C48.379 123.844 48.8626 123.862 49.2047 123.57L49.2706 123.511C49.2785 123.504 49.2847 123.498 49.2896 123.493C49.3171 123.476 49.3448 123.457 49.3739 123.442L49.3188 123.478C49.2768 123.509 49.3742 123.459 49.4288 123.436L49.446 123.429L49.4515 123.427L49.4952 123.424C49.5761 123.42 49.6574 123.42 49.7386 123.42C50.1805 123.42 50.6039 123.032 50.5836 122.575C50.5629 122.117 50.2122 121.729 49.7386 121.729ZM62.0295 116.366C62.9443 115.804 62.1272 114.369 61.2098 114.886L61.1766 114.906C60.7063 115.194 60.1279 115.155 59.5951 115.155C58.5077 115.156 58.5058 116.847 59.5951 116.846L59.7751 116.846C60.5562 116.84 61.3462 116.785 62.0295 116.366ZM54.8312 110.194C54.1401 110.064 53.366 109.948 52.6388 110.027L52.5181 110.042H52.2943C52.1 110.042 51.9117 110.121 51.7607 110.244C51.5215 110.343 51.295 110.476 51.0884 110.655C50.2651 111.369 51.4649 112.561 52.2836 111.851C52.329 111.811 52.3818 111.779 52.4405 111.752L52.4855 111.733H53.3895C53.4717 111.733 53.5518 111.716 53.6298 111.691C53.9232 111.732 54.1966 111.79 54.3819 111.825C55.445 112.025 55.9005 110.396 54.8312 110.194ZM54.0594 93.9669C52.7348 93.3523 51.2677 93.3568 50.0426 94.2102C49.1665 94.8205 49.9803 96.2597 50.8639 95.6914L50.8955 95.6702C51.0053 95.5937 51.1181 95.5297 51.2322 95.4715C51.8542 95.6514 52.4802 95.6599 53.0815 95.4387L53.1598 95.4086L53.2065 95.4267C54.1868 95.8816 55.0462 94.4247 54.0594 93.9669ZM68.4836 91.3177C67.1454 91.1677 67.1347 89.0529 68.4836 89.2042C71.3317 89.5238 73.9159 90.7904 75.8087 92.9656C76.689 93.9773 75.2392 95.4573 74.3423 94.4908L74.3148 94.4601C72.8097 92.7304 70.7786 91.5751 68.4836 91.3177ZM53.4923 80.4602C53.1948 80.4276 52.898 80.4114 52.6058 80.4255C51.904 80.4593 51.0492 80.9277 51.3572 81.7739C51.6042 82.452 52.4137 82.4788 52.8135 82.1172C52.9797 82.1212 53.1458 82.1322 53.3112 82.1491C53.7525 82.1945 54.1897 82.2786 54.6247 82.3644C55.6871 82.5735 56.142 80.9442 55.074 80.7339L54.6017 80.6404C54.4425 80.6092 54.2819 80.5787 54.1206 80.5508C54.0241 80.5028 53.9206 80.4705 53.8099 80.4623L53.754 80.4602H53.4923ZM45.0953 67.3427L44.9961 67.3293C43.569 67.1466 41.2781 67.3147 41.1049 69.132C41.0092 70.1385 42.4627 70.2017 42.7496 69.341C43.8034 69.151 44.8659 69.1147 45.9125 69.2301C46.3118 68.8243 46.315 68.0442 45.6503 67.8495C45.5565 67.5972 45.3607 67.381 45.0953 67.3427ZM77.7167 64.2733C77.3869 63.9704 76.846 63.9303 76.5215 64.2733C76.3346 64.4707 76.1784 64.6901 76.0548 64.9314L75.9726 65.0944C75.9587 65.1215 75.9444 65.1483 75.9296 65.1749C75.9019 65.2241 75.8708 65.2711 75.8406 65.3188L75.8203 65.3388C75.8122 65.347 75.8027 65.3569 75.7914 65.3689C75.4874 65.6904 75.4487 66.2498 75.7914 66.5645C76.1212 66.8674 76.6618 66.9076 76.9865 66.5645C77.1733 66.3671 77.3294 66.148 77.4532 65.9064L77.5353 65.7436C77.5492 65.7165 77.5634 65.6897 77.5783 65.6631C77.606 65.6137 77.6372 65.5667 77.6672 65.519L77.7009 65.4854C77.7057 65.4804 77.711 65.4749 77.7167 65.4689C78.0207 65.1476 78.0591 64.588 77.7167 64.2733ZM60.3869 62.0716C59.1962 61.2275 57.7803 61.1882 56.6857 62.2037C55.8958 62.9367 57.0564 64.1112 57.8529 63.4244L57.8808 63.3993C57.9098 63.3723 57.9391 63.3486 57.9683 63.326C58.1111 63.4477 58.2926 63.5249 58.5001 63.5251C58.5543 63.5252 58.6084 63.5251 58.6625 63.5262L58.7436 63.5291L58.7872 63.5327L58.7927 63.5338L58.8307 63.5499C58.9002 63.5813 58.9961 63.6297 58.8645 63.5473C58.8939 63.5627 58.9213 63.5809 58.9492 63.5986L58.9978 63.6428C59.3164 63.9442 59.8676 63.9839 60.1839 63.6506C60.7439 63.4613 61.0412 62.5351 60.3869 62.0716ZM72.0285 59.302L72.0501 59.2951C73.0942 58.9969 72.6503 57.3651 71.6008 57.6646C70.4872 57.9827 69.9554 59.0193 69.7327 60.0812C69.6391 60.5277 69.8637 60.995 70.323 61.1212C70.7426 61.2364 71.2684 60.9796 71.3627 60.5307C71.4287 60.215 71.5049 59.9472 71.6255 59.6987L71.6985 59.5568C71.7327 59.4921 71.7446 59.4814 71.8598 59.3807C71.8791 59.3638 71.9671 59.3229 72.0285 59.302ZM54.3442 50.7864L54.1809 50.7491C53.1638 50.5262 51.8137 50.4098 51.1995 51.4185C50.6396 52.3375 52.052 53.174 52.6336 52.3054C52.6424 52.3051 52.6526 52.3052 52.6645 52.3061L52.6836 52.3083L52.9443 52.2872C53.2691 52.2849 53.5798 52.3424 53.8948 52.417C54.9524 52.6674 55.4039 51.0375 54.3442 50.7864ZM90.8584 44.2865C91.6285 43.5162 90.4338 42.3201 89.6635 43.0911C89.0544 43.7004 88.4669 44.314 88.071 45.0882C87.8633 45.4944 87.9649 46.0054 88.3741 46.2449C88.7517 46.4658 89.3217 46.3495 89.5304 45.9416C89.8735 45.2706 90.3066 44.839 90.8584 44.2865ZM81.1413 42.2643C80.3806 42.7149 79.8881 43.4572 79.5892 44.3163C79.4392 44.7475 79.7601 45.241 80.1794 45.3562C80.6301 45.48 81.0419 45.2159 81.204 44.8058L81.2189 44.7657C81.2989 44.5359 81.427 44.2645 81.5852 44.0597C81.7204 43.885 81.9306 43.71 82.0891 43.6518C82.47 43.5119 82.74 43.1666 82.7047 42.7633C82.0783 42.98 81.4967 42.7194 81.1413 42.2643ZM58.3676 38.5868C57.6001 37.8742 56.5704 37.7797 55.64 38.211C55.2257 38.403 55.1219 39.0004 55.3368 39.3678C55.5853 39.7928 56.0773 39.8638 56.4929 39.6711C56.3862 39.7205 56.5788 39.6552 56.6621 39.6313C56.6727 39.6363 56.8122 39.6299 56.8604 39.6306L56.9182 39.6343C56.9187 39.6346 56.9045 39.6344 56.8757 39.6334C56.9162 39.6426 56.9563 39.6535 56.9958 39.6661L57.0462 39.6836C57.0208 39.6783 57.135 39.7527 57.1667 39.7775L57.1725 39.7822C57.969 40.5217 59.1671 39.3289 58.3676 38.5868Z" fill="black"/>
<path fill-rule="evenodd" clip-rule="evenodd" d="M119.69 103.753C120.415 102.473 122.578 102.681 122.909 104.173C123.579 107.199 119.973 109.992 117.234 110.062C114.513 110.131 111.459 107.814 111.853 104.886C111.95 104.162 112.917 104.25 113.247 104.704L113.375 104.878C114.27 106.081 115.451 107.327 117.112 107.033C117.801 106.912 118.426 106.482 118.842 105.928C119.344 105.259 119.289 104.461 119.69 103.753ZM102.384 81.6199C102.752 81.5182 103.125 81.5575 103.452 81.6966C104.181 81.8304 104.791 82.439 105.005 83.134C105.022 83.1941 105.041 83.2535 105.062 83.3123L105.094 83.4001L105.007 83.1773C105.047 83.3967 105.226 83.6273 105.29 83.8475C105.369 84.1182 105.388 84.4257 105.361 84.7237C105.593 84.7261 105.825 84.7339 106.057 84.754L106.281 84.774C107.532 84.8904 108.906 85.1038 109.648 86.1854C110.064 86.7933 109.673 87.8877 108.908 88.0047C107.73 88.185 106.715 87.5328 105.54 87.4022C104.43 87.2785 103.269 87.3493 102.173 87.5499C99.9112 87.9636 97.8326 88.8808 95.6282 89.4564L95.3281 89.5326L95.3286 89.5311C94.9508 89.6224 94.5219 89.097 94.8957 88.7897C96.6616 87.3384 98.9226 86.1622 101.15 85.4459C100.826 84.9296 100.725 84.2495 100.947 83.6951C100.981 83.5802 101.024 83.4685 101.069 83.3571L101.163 83.128C101.172 83.02 101.192 82.9133 101.222 82.8087L101.227 82.7768L101.23 82.7787C101.396 82.2395 101.829 81.7729 102.384 81.6199ZM124.914 81.7033C125.397 81.2199 126.076 81.2914 126.58 81.6718L126.647 81.7242C127.122 81.9354 127.515 82.3968 127.773 82.8243C128.041 83.2684 128.219 83.7207 128.226 84.2095C129.395 84.2133 130.515 84.5642 131.374 85.5085C131.651 85.8132 131.84 86.2833 131.688 86.6965L131.597 86.9423C131.309 87.7227 130.013 88.1719 129.572 87.2542L129.552 87.2094C129.084 86.1197 127.288 86.234 126.333 86.3454C125.667 86.4234 125.01 86.5889 124.367 86.7742C124.141 86.8396 123.917 86.9104 123.692 86.9828L123.468 87.0556C123.349 87.0942 122.726 87.4326 123.113 87.3525C123.217 87.3309 123.296 87.4827 123.19 87.5336C122.728 87.7545 122.235 87.3147 122.266 86.8184C122.319 85.957 123.687 85.4847 124.345 85.1876L124.384 85.1697C124.636 85.053 124.901 84.9412 125.173 84.8374C125.02 84.6092 124.893 84.3556 124.788 84.0833C124.688 83.8263 124.622 83.5765 124.585 83.3032C124.549 83.1697 124.549 83.0361 124.585 82.9023L124.59 82.8641C124.572 82.7757 124.563 82.6844 124.564 82.5925L124.56 82.5568H124.564C124.577 82.2349 124.705 81.9123 124.914 81.7033ZM117.197 90.8769C119.053 91.4505 122.114 93.013 121.147 95.4248C119.797 97.6397 116.216 96.0119 114.481 95.2963C112.922 94.7797 112.11 96.9653 113.618 97.6241C126.074 102.554 126.028 89.5433 117.649 89.7344C116.726 89.7553 116.697 90.6863 117.197 90.8769ZM100.717 73.9124L101.034 73.82C102.678 73.3434 104.357 72.5204 105.818 73.8046C106.391 74.3089 106.509 75.3567 106.099 75.9857C105.164 77.4189 103.778 77.1999 102.269 77.3221C101.119 77.4151 99.9871 77.7528 98.9142 78.1749C98.0375 78.52 97.2243 79.0059 96.4566 79.5478C95.7023 80.0806 95.1871 80.9136 94.4134 81.3931C94.1299 81.569 93.8024 81.3881 93.7006 81.1029C93.3397 80.0916 93.9495 78.8318 94.4654 77.9701C95.0952 76.9188 96.0518 76.0591 97.0804 75.4085C98.2069 74.696 99.4524 74.2847 100.717 73.9124ZM124.683 72.8242C127.463 72.8234 130.138 74.3702 131.693 76.6378C132.221 77.4082 131.834 78.5495 131.075 78.9931C130.224 79.491 129.315 79.1325 128.754 78.419L128.721 78.3758C127.829 77.1878 126.679 76.2521 125.317 75.643C124.652 75.3456 123.917 75.1045 123.198 74.9821L122.965 74.9423C122.639 74.8877 122.262 74.8355 121.967 74.8866C121.809 74.9073 121.664 74.9595 121.531 75.039C121.595 75.1793 121.429 75.3484 121.276 75.2643C120.585 74.8847 120.67 74.2075 121.24 73.6812C122.048 72.9367 123.64 72.8244 124.683 72.8242Z" fill="black"/>
</g>
<defs>
<clipPath id="clip0">
<path d="M0 85C0 38.0558 38.0558 0 85 0V0C131.944 0 170 38.0558 170 85V85C170 131.944 131.944 170 85 170V170C38.0558 170 0 131.944 0 85V85Z" fill="white"/>
</clipPath>
</defs>
</svg>
