<svg width="170" height="170" viewBox="0 0 170 170" fill="none" xmlns="http://www.w3.org/2000/svg">
<g clip-path="url(#clip0)">
<path fill-rule="evenodd" clip-rule="evenodd" d="M158.498 262.881C145.562 263.244 133.342 263.643 120.43 262.881C99.7691 261.603 39.1356 263.908 25.8078 262.881C24.8021 262.804 21.3431 263.908 21.271 262.881C20.6852 255.736 20.3053 183.447 22.046 178.473C23.7866 173.499 32.3784 149.588 43.3261 138.438C46.3787 135.426 51.024 134.259 53.5901 130.778C55.8026 126.983 55.6307 124.755 57.8157 122.758C58.7639 121.891 61 121.54 62.6616 120.337C64.3323 118.676 62.7505 115.019 63.4363 112.706C64.8496 106.931 70.0567 103.226 75.7481 102.353C83.6584 100.459 92.0093 102.25 95.7983 108.466C97.2087 110.779 96.4581 113.592 98.1927 117.299C98.0689 120.101 101.339 120.778 103.293 121.888L107.174 125.813C119.132 132.543 133.199 136.178 143.677 145.221C152.584 154.261 161.445 164.709 165.397 176.94C166.215 180.273 166.482 183.718 166.821 187.123C167.789 197.075 170.485 206.735 172.805 216.429C175.45 228.642 177.915 241.608 174.35 253.937C173.323 256.546 160.838 262.759 158.498 262.881Z" fill="white"/>
<path fill-rule="evenodd" clip-rule="evenodd" d="M96.4845 109.461C96.381 109.122 95.935 109.218 95.9012 109.539C95.5653 112.726 95.9878 116.057 96.3935 119.223C96.5878 120.751 96.7 122.341 96.9958 123.847C97.0338 124.008 97.0697 124.171 97.1035 124.331C97.0063 124.505 96.7188 124.699 96.5817 124.832L95.9853 125.412L94.7901 126.57C92.4512 128.835 90.1127 131.103 87.7739 133.369L84.3409 136.698C83.1639 137.839 81.8266 138.932 80.7937 140.204C80.2336 140.895 80.107 141.742 80.6585 142.482C80.931 142.848 81.4209 143.114 81.9176 143.169C81.7232 143.439 81.5732 143.746 81.4782 144.086C81.2838 144.78 81.985 145.631 82.7308 145.342C83.578 145.016 84.2775 144.433 85.1394 144.154C86.0099 143.871 86.9561 143.816 87.8585 143.968C88.2725 144.038 88.6782 144.141 89.0732 144.272C84.8456 146.219 80.2718 147.337 75.607 147.497C74.6563 147.529 73.7075 147.516 72.7634 147.453C71.1744 147.349 69.5965 147.109 68.0458 146.72C66.8266 146.413 65.6202 146.028 64.4498 145.563C63.8751 145.335 63.307 145.084 62.7575 144.799L62.7094 144.77C62.5852 144.692 60.2898 143.39 60.2498 143.194C60.2098 142.999 60.2098 142.931 60.2844 142.76C60.3591 142.59 60.5663 142.472 60.5663 142.472C61.2756 142.169 62.0103 141.887 62.785 141.882C64.5683 141.871 66.5141 143.19 67.9885 144.088C69.609 145.075 71.0986 146.229 72.6578 147.299C72.6937 147.324 72.7336 147.335 72.7718 147.335C72.9364 147.335 73.0887 147.132 72.9831 146.973C71.8656 145.327 70.3574 143.957 68.7796 142.76L68.1439 142.283C66.6989 141.205 65.0088 140.012 63.2519 139.751C61.0993 139.434 58.8512 140.777 56.9308 141.563L53.5296 142.955C52.9232 143.203 52.2639 143.414 51.6535 143.695L53.0788 139.234C53.791 137.003 54.5013 134.771 55.2047 132.538L55.3412 132.101C56.0419 129.834 56.6852 127.476 57.8521 125.405C58.131 124.908 58.45 124.441 58.7648 123.97C59.0923 123.482 59.2148 122.943 59.6266 122.507C60.442 121.643 61.6106 121.136 62.7261 120.804C62.9986 120.724 62.9181 120.364 62.6625 120.337C61.5177 120.216 60.4262 120.483 59.3918 120.966L58.9618 121.171C57.9836 121.634 57.0299 122.065 56.3035 122.896C54.6473 124.794 53.7872 127.184 52.9971 129.542L52.7857 130.175C52.4901 130.078 50.481 130.691 50.2296 130.837C42.6977 134.022 36.8963 139.952 32.654 146.901C28.0061 154.516 25.4754 163.218 23.3859 171.828C22.7411 174.486 22.1244 177.151 21.532 179.823C24.1714 180.838 26.9766 181.37 29.4474 182.801C30.3886 183.346 29.5385 184.808 28.5945 184.261C26.2803 182.921 23.6443 182.426 21.1672 181.484C19.8242 187.669 18.6294 193.888 17.6289 200.132C14.5547 219.297 12.6134 238.775 12.7359 258.203C12.738 258.632 12.8646 259.111 13.0993 259.524C12.9618 259.456 12.854 259.376 12.7928 259.279C12.0134 258.055 10.0592 259.19 10.843 260.42L10.9574 260.598C11.5456 261.505 12.0947 262.198 13.1287 262.711C14.1704 263.227 15.2986 263.313 16.4477 263.343C20.354 263.446 24.2631 263.513 28.1734 263.561C28.7097 259.377 28.9277 255.152 29.6665 250.993C29.8564 249.923 31.4855 250.376 31.2962 251.442C30.5827 255.459 30.3544 259.537 29.8564 263.581C38.2163 263.671 46.5808 263.672 54.9343 263.696C66.2551 263.729 77.5744 263.706 88.8947 263.699L93.7463 263.698C106.824 263.698 119.901 263.655 132.979 263.569L136.089 263.547C137.326 256.251 138.168 248.892 138.184 241.478C138.186 240.39 139.876 240.388 139.874 241.478C139.858 248.884 139.025 256.243 137.8 263.537C140.896 263.524 143.991 263.535 147.087 263.645L148.663 263.701C151.817 263.809 154.976 263.876 158.124 263.624C161.618 263.343 165.153 262.7 168.286 261.054C169.697 260.311 170.939 259.361 172.001 258.245C170.922 257.617 169.827 257.014 168.781 256.33C167.875 255.736 168.721 254.272 169.634 254.87C170.761 255.608 171.946 256.25 173.106 256.932C173.946 255.811 174.635 254.566 175.158 253.223C175.985 251.103 176.304 248.823 176.58 246.578C176.908 243.935 177.043 241.269 177.043 238.606C177.043 233.006 176.454 227.422 175.631 221.889C174.845 216.588 173.806 211.33 172.708 206.088L172.558 205.373C171.474 200.221 170.441 195.053 169.199 189.936C168.05 185.205 166.723 180.496 165.141 175.877C163.732 176.748 162.259 177.51 160.873 178.418C159.96 179.015 159.112 177.552 160.02 176.958C161.499 175.99 163.076 175.185 164.568 174.239C162.799 169.294 160.723 164.464 158.234 159.838C153.248 150.575 146.529 142.288 137.924 136.171C133.617 133.111 128.891 130.606 123.928 128.784C118.868 126.925 113.625 125.906 108.263 125.488C108.11 125.475 108.024 125.617 108.03 125.748L108.032 125.773L107.821 125.807C107.743 125.276 107.582 124.762 107.276 124.291C106.579 123.218 105.256 122.529 104.2 121.869L103.95 121.713C102.693 120.934 101.366 120.166 99.9047 119.893C99.854 119.884 99.8225 119.937 99.8563 119.978C100.82 121.083 102.053 121.928 103.183 122.863L103.442 123.08C104.378 123.851 105.684 124.725 105.719 126.014C105.759 127.531 105.449 129.11 105.336 130.623C105.224 132.132 105.146 133.639 105.106 135.152C104.96 140.574 105.136 145.997 105.616 151.397L103.494 149.976C100.194 147.766 96.8819 145.562 93.5014 143.492C91.4561 142.239 89.1575 141.167 86.707 141.216C86.0204 141.229 85.2451 141.328 84.5012 141.54C85.3019 140.781 86.0688 139.973 86.8526 139.211C88.1437 137.953 89.4345 136.695 90.7251 135.44L94.4471 131.813L98.1704 128.186C99.3237 127.06 100.676 126.022 100.554 124.247C100.454 122.831 99.7338 121.421 99.2416 120.056C99.1718 119.859 99.1085 119.665 99.0493 119.473C98.0561 116.171 97.4923 112.749 96.4845 109.461ZM48.3812 251.107C49.151 250.336 50.3464 251.531 49.5761 252.302L49.1688 252.708C48.4886 253.387 47.8142 254.086 47.3434 254.926L47.2743 255.053C46.7671 256.016 45.3076 255.162 45.8151 254.199C46.4424 253.009 47.4402 252.048 48.3812 251.107ZM81.3665 250.889C83.8174 250.421 86.1796 250.421 88.6305 250.889C89.6977 251.093 89.2458 252.723 88.1812 252.52C86.0377 252.11 83.9596 252.11 81.8159 252.52C80.753 252.722 80.2977 251.093 81.3665 250.889ZM114.466 233.846C115.521 233.578 115.971 235.209 114.915 235.476L114.396 235.607C112.629 236.043 110.947 236.369 109.112 235.963C108.064 235.732 108.488 234.141 109.519 234.324L109.561 234.333C111.259 234.708 112.823 234.262 114.466 233.846ZM55.682 222.863C56.4624 222.104 57.6588 223.299 56.8772 224.059C55.9017 225.008 54.7522 225.729 53.3591 225.767C52.2873 225.797 52.2722 224.157 53.3112 224.079L53.3591 224.077C54.2927 224.051 55.0366 223.491 55.682 222.863ZM155.152 218.348C154.179 217.861 155.034 216.402 156.005 216.888L161.846 219.809C162.819 220.296 161.964 221.755 160.993 221.269L155.152 218.348ZM39.7301 218.72C40.8181 218.69 40.8173 220.38 39.7301 220.411C38.7078 220.44 37.6601 220.827 36.7493 221.269C35.775 221.743 34.917 220.285 35.8962 219.809C37.0869 219.231 38.394 218.757 39.7301 218.72ZM94.307 210.557C93.4125 209.949 94.2571 208.483 95.1601 209.097C96.3922 209.934 97.5085 210.924 98.721 211.786L99.0542 212.018C99.9487 212.626 99.104 214.092 98.2011 213.478C96.8572 212.565 95.6509 211.47 94.307 210.557ZM31.4552 198.268C32.5428 198.268 32.5445 199.958 31.4552 199.959L31.249 199.958C30.3513 199.953 29.4051 199.928 28.5703 200.287L28.4744 200.33C27.4958 200.792 26.6371 199.334 27.6213 198.871C28.8452 198.294 30.1249 198.269 31.4552 198.268ZM125.317 197.06L125.175 197.007C124.159 196.642 124.597 195.007 125.624 195.377C127.172 195.933 128.377 196.984 129.72 197.897C130.615 198.505 129.77 199.97 128.867 199.357C127.71 198.571 126.633 197.575 125.317 197.06ZM61.9221 192.662L61.6943 192.54C60.7267 192.041 61.5808 190.582 62.5472 191.08C63.3143 191.474 64.0007 192 64.7533 192.418L64.9812 192.54C65.9486 193.038 65.0947 194.498 64.1281 194C63.361 193.605 62.6746 193.08 61.9221 192.662ZM87.6339 176.284L87.808 176.116C88.5858 175.354 89.7818 176.549 89.0031 177.312C87.0582 179.216 84.7588 180.662 82.4392 182.06L82.0174 182.314C81.0825 182.875 80.2317 181.413 81.1643 180.854L81.7834 180.481C83.8457 179.237 85.884 177.953 87.6339 176.284ZM134.405 174.706C133.749 173.855 135.175 173.021 135.841 173.823L135.864 173.852C136.546 174.738 137.356 175.541 138.202 176.273L138.361 176.409C138.865 176.838 139.781 177.756 140.489 177.816C141.565 177.908 141.574 179.6 140.489 179.507C139.394 179.414 138.452 178.643 137.625 177.983C136.421 177.022 135.344 175.926 134.405 174.706ZM44.4866 168.547C43.7013 167.809 44.8613 166.634 45.6537 167.326L45.6815 167.351C47.1492 168.73 49.2604 169.1 51.1498 169.568C52.205 169.83 51.758 171.461 50.7004 171.199L49.8397 170.986C47.9089 170.504 45.9716 169.943 44.4866 168.547ZM77.9592 157.882C79.0139 157.613 79.4639 159.244 78.4084 159.512C76.6158 159.968 74.9178 160.557 73.2562 161.375C72.2835 161.853 71.4262 160.396 72.4031 159.915C74.1908 159.035 76.0291 158.372 77.9592 157.882ZM60.6936 122.239C60.7189 122.163 60.6384 122.076 60.5605 122.104C58.6637 122.811 59.672 125.296 60.2613 126.784L60.3682 127.056C61.2915 129.44 62.5821 131.76 63.9891 133.895C65.4617 136.129 67.0969 138.268 68.8673 140.276C69.6354 141.147 70.432 141.994 71.2554 142.815L71.5654 143.122C72.3976 143.94 73.4708 145.378 74.7619 145.219C76.152 145.052 76.9274 143.566 75.9133 142.438C75.1969 141.639 74.2039 141.003 73.4034 140.276C72.6088 139.557 71.8398 138.815 71.09 138.052C69.556 136.486 68.1025 134.831 66.7736 133.088C65.4884 131.401 64.2585 129.669 63.1402 127.867L62.918 127.506C62.0668 126.105 60.1018 124.044 60.6936 122.239ZM127.893 139.95C128.794 139.334 129.64 140.799 128.747 141.41C127.103 142.533 125.658 143.894 123.879 144.818C122.927 145.313 122.08 143.895 122.992 143.377L123.026 143.358C124.803 142.435 126.251 141.073 127.893 139.95Z" fill="black"/>
<path fill-rule="evenodd" clip-rule="evenodd" d="M32.9698 121.921C35.3804 110.601 36.9266 99.1351 38.3104 87.6546C38.9801 82.0939 39.5146 76.5187 40.1339 70.9539C40.7125 65.7692 41.3867 60.5679 42.7388 55.5209C43.9956 50.831 45.8339 46.1876 48.5423 42.1384C51.0816 38.3423 54.274 35.0896 57.9393 32.3738C65.1818 27.0076 74.4437 24.1522 83.452 25.0991C84.8127 25.2428 86.1606 25.4732 87.4937 25.7818C87.0691 25.6571 86.64 25.5406 86.2071 25.4394C86.0677 25.4058 86.1296 25.2179 86.2663 25.2303C122.916 28.5614 131.537 92.3233 132.32 105.18C132.382 106.18 132.43 107.177 132.466 108.177C132.741 110.407 132.946 112.643 133.043 114.885C133.153 117.472 133.1 120.076 132.861 122.654C132.616 125.298 132.337 128.008 131.234 130.438C130.559 131.935 99.0374 129.885 98.712 128.118C98.0529 124.55 97.7149 120.868 97.9217 117.24C98.0189 115.5 98.1987 113.773 98.5705 112.07C98.6719 111.605 98.7796 110.732 99.052 110.041C96.1768 104.575 93.0141 99.2662 89.7585 94.0183C82.983 83.0915 75.7789 72.3676 70.2416 60.7304C67.4654 54.8995 64.7296 48.7071 63.4198 42.3178L63.2085 42.3601C63.2339 42.4362 63.217 42.5313 63.1409 42.5841C57.1219 46.7456 53.0992 53.0523 50.4921 59.8051C47.4564 67.6672 45.9839 76.1571 46.1951 84.5815C46.5308 97.9685 51.6034 114.513 65.955 118.744C69.2296 119.71 72.7661 119.983 76.1212 119.277C77.7036 118.943 79.2543 118.429 80.6825 117.668C82.267 116.825 83.5684 115.631 85.0534 114.648C86.412 113.75 88.0156 115.502 87.2339 116.831C85.5078 119.769 81.7937 121.566 78.6036 122.449C75.2001 123.394 71.6104 123.439 68.1437 122.838C67.8796 122.794 67.6177 122.743 67.3578 122.688C67.2987 123.559 66.9247 124.426 66.3163 125.129C66.0437 125.446 65.7078 125.721 65.3318 125.951C65.283 126.801 64.7358 127.655 63.8463 127.841C59.0951 128.83 39.3628 126.237 34.6177 124.822C33.3437 124.442 32.6994 123.193 32.9698 121.921Z" fill="black"/>
<path fill-rule="evenodd" clip-rule="evenodd" d="M45.3635 81.0998C45.7193 64.4917 49.8557 46.1055 64.035 35.8423C64.9381 35.1878 66.2936 35.5048 67.0421 36.2523C67.6567 36.3724 68.2212 36.7448 68.5966 37.4296C76.9812 52.7387 85.8078 67.8059 95.0723 82.5987C101.021 92.1636 108.246 101.741 109.2 113.334C109.365 113.553 110.896 115.283 110.004 115.157C109.608 114.95 109.204 114.779 108.78 114.653C107.647 116.305 105.017 116.046 104.391 114.181C102.223 114.243 100.078 114.798 98.0123 115.44C92.9459 117.027 87.7966 118.595 82.6261 119.808C65.5924 124.33 47.2895 118.576 45.9285 98.7095C44.1002 96.1325 45.0893 84.6471 45.3635 81.0998Z" fill="white"/>
<path fill-rule="evenodd" clip-rule="evenodd" d="M64.4663 110.536L64.0156 110.416C62.4017 109.976 60.7268 109.278 59.1856 110.235C58.6291 110.58 58.5453 111.315 58.9851 111.791C60.2335 113.14 62.0762 112.878 63.7645 112.892L63.8474 112.893C65.546 112.916 67.2319 112.831 68.913 112.588C69.1346 112.556 69.1784 112.187 68.977 112.099C67.5134 111.457 66.008 110.951 64.4663 110.536ZM61.7282 85.8665C60.1329 86.8367 57.702 89.0988 59.4183 91.5038C61.4384 93.6243 64.3471 91.193 65.7804 90.0933C67.1094 89.2411 68.6026 91.433 67.3696 92.4281C57.0124 100.099 52.8093 86.1202 60.9213 84.7259C61.8145 84.5723 62.1462 85.5664 61.7282 85.8665ZM50.6363 73.109C48.0626 73.0302 48.0603 77.1205 50.6363 77.1095C51.4053 77.1061 52.1743 77.1059 52.9433 77.1042C52.4965 78.7339 52.7517 80.6773 53.5587 82.0462C54.0911 82.9497 55.3653 83.1139 56.1096 82.3751C57.3945 81.0993 57.6478 79.2338 57.1938 77.5421L57.2872 77.3208C57.3176 77.2483 57.3394 77.175 57.3571 77.1012C59.8427 77.1033 62.3284 77.1093 64.814 77.1134L68.5425 77.1173C70.9632 77.1181 73.3849 77.1378 75.8058 77.1152C75.776 77.1602 75.7463 77.205 75.722 77.2564C75.5709 77.5744 75.5069 77.976 75.4594 78.3199C75.3782 78.91 75.3879 79.5455 75.4809 80.1333C75.5487 80.5627 75.6734 81.0742 75.9123 81.4789L75.9138 81.4874C76.0264 81.9676 76.1686 82.4273 76.5398 82.7737C76.6513 82.8774 76.7601 82.9514 76.8751 83.0038C77.092 83.231 77.3713 83.3813 77.7383 83.386C77.9331 83.3883 78.1467 83.3314 78.3537 83.2507C78.6721 83.2773 79.0008 83.1332 79.2825 83.0055C79.5083 82.903 79.7156 82.7669 79.8827 82.5894C79.961 82.5708 80.0401 82.5401 80.1191 82.4913C80.6033 82.1933 80.7884 81.596 80.8135 81.0567C80.8152 81.0239 80.8139 80.9894 80.815 80.9563C80.8329 80.8831 80.849 80.8096 80.8613 80.7356C81.0222 79.7771 80.8266 78.6978 80.6217 77.7664C80.5701 77.5332 80.5277 77.2625 80.4645 77.0006C80.9477 76.9818 81.4304 76.9632 81.9136 76.9434C83.1237 76.8939 84.6007 77.056 85.7202 76.5443C85.8017 76.5073 85.7798 76.3987 85.7202 76.3562C84.6866 75.6171 83.0807 75.4975 81.836 75.2541L81.7302 75.2329C80.2458 74.9283 78.7623 74.6722 77.2629 74.4534C74.3768 74.0324 71.4537 73.8059 68.5425 73.6427C62.582 73.3088 56.6029 73.2914 50.6363 73.109Z" fill="black"/>
<path fill-rule="evenodd" clip-rule="evenodd" d="M50.1104 70.1487C45.1516 70.1487 42.3217 71.2155 41.2847 71.2986L41.2535 71.3008C40.8222 71.3284 40.4353 71.3645 40.0293 71.5215C38.5366 72.0967 38.2934 73.6629 39.1645 74.6499C39.2256 76.6923 38.9571 79.0788 39.4178 81.1278C39.9862 89.7659 44.047 91.2236 46.3552 91.7557C47.514 92.0229 48.8875 92.1292 50.1185 91.8471C52.2184 91.7688 54.2945 91.1112 56.0707 89.966C58.5445 88.3699 60.3819 85.9166 60.9781 83.0051C61.2607 81.6173 61.3928 80.1728 61.239 78.7621L61.2162 78.5678C62.0203 78.183 62.9521 78.1102 63.9126 78.0762C64.3714 78.0599 64.8237 78.0453 65.263 78.0648C65.6924 78.1127 66.1168 78.1766 66.5424 78.2636C67.0071 78.4039 67.4461 78.6355 67.8514 79.0022L67.8793 79.5374C67.9554 80.8744 68.1309 82.2154 68.4015 83.5272C68.8012 85.4626 69.4439 87.3111 70.8119 88.684C71.2749 89.3758 71.8479 89.9934 72.5435 90.5282C75.0704 92.4745 78.5034 93.189 81.6542 92.9199C88.0507 92.3739 91.748 87.2941 92.6001 85.1229L92.651 84.9913C93.2665 83.3771 93.757 81.2828 95.702 80.9359L96.1157 80.8616C97.0032 80.6949 97.8222 80.4629 98.3426 79.5966C98.5707 79.2184 98.6881 78.7955 98.7168 78.3642C99.0205 78.3876 99.3237 78.4099 99.6258 78.4315C102.036 78.9414 116.493 79.3738 117.646 79.3738C117.646 79.3738 119.865 80.3077 120.801 79.5841C121.45 79.0809 121.664 78.4103 121.306 77.6505C120.767 76.5074 118.28 75.8198 117.175 75.6021C117.175 75.6021 99.3519 75.7502 98.069 75.5069C97.2753 74.6881 95.8555 74.8002 94.6692 74.6707C93.6871 73.9702 92.3132 73.5009 91.2279 73.1869C91.0067 73.103 90.7877 73.022 90.5748 72.9456C88.5852 72.2367 86.5171 71.8613 84.4176 71.6597C82.2525 71.4538 80.0811 71.547 77.9287 71.842C77.0217 71.9651 76.1231 72.1243 75.2308 72.3324C73.6332 72.5431 72.0448 72.8902 70.4466 73.3019L70.1268 73.3851C68.4438 73.8265 66.7143 74.2083 64.9721 73.909C63.5537 73.667 62.1897 73.121 60.882 72.5305L60.7117 72.4532C57.8362 71.1398 53.3456 70.1487 50.1104 70.1487ZM75.4039 74.9511C76.4649 74.7177 76.918 76.3541 75.8536 76.5882C75.0999 76.754 74.4611 77.1342 74.0295 77.7784L73.9841 77.8484C73.405 78.7703 71.9406 77.9193 72.5237 76.9914C73.1798 75.9473 74.1993 75.216 75.4039 74.9511ZM44.3291 73.9364C44.7032 73.6728 45.2692 73.8685 45.4863 74.2409C45.7253 74.6511 45.5687 75.1077 45.2184 75.376L45.1827 75.4022C44.8614 75.6288 44.5484 76.0349 44.5091 76.451L44.5057 76.503C44.4636 77.5919 42.7719 77.5974 42.8142 76.503C42.8554 75.4324 43.4752 74.5378 44.3291 73.9364Z" fill="black"/>
</g>
<defs>
<clipPath id="clip0">
<path d="M170 85C170 38.0558 131.944 0 85 0V0C38.0558 0 0 38.0558 0 85V85C0 131.944 38.0558 170 85 170V170C131.944 170 170 131.944 170 85V85Z" fill="white"/>
</clipPath>
</defs>
</svg>
