<svg width="170" height="170" viewBox="0 0 170 170" fill="none" xmlns="http://www.w3.org/2000/svg">
<g clip-path="url(#clip0)">
<path fill-rule="evenodd" clip-rule="evenodd" d="M12.9713 266.806C20.0213 266.828 26.8716 267.069 33.9413 267.093C62.6796 267.189 91.6823 267.049 120.525 265.884C128.677 265.554 130.712 265.562 138.828 265.051C143.621 265.034 158.017 264.638 157.296 258.108C156.978 245.946 153.968 233.836 153.02 221.707C151.2 198.907 149.651 175.393 140.514 154.067C138.399 148.974 133.857 145.643 129.36 142.648C124.851 139.417 123.745 135.83 119.583 132.18C118.703 131.409 113.706 131.095 111.018 129.137C107.104 126.288 105.164 121.623 103.704 120.829C102.629 120.244 102.649 116.213 100.496 114.786C97.6059 112.872 88.3977 111.448 85.0476 111.182C81.8321 110.926 76.2392 111.463 73.2223 112.641C68.1912 114.605 66.1846 118.352 63.9689 123.179C34.6966 132.229 7.94095 147.553 -0.368321 178.464C-7.53393 204.389 -7.79655 232.182 -5.02834 258.77C-4.47457 260.715 -4.8627 263.763 -3.18301 265.051C-9.02029 265.386 12.1795 266.59 12.9713 266.806Z" fill="white"/>
<path fill-rule="evenodd" clip-rule="evenodd" d="M146.113 241.208C145.559 240.931 144.982 240.615 144.349 240.593C143.263 240.555 143.261 238.864 144.349 238.902C145.298 238.935 146.131 239.331 146.966 239.748C147.941 240.234 147.084 241.692 146.113 241.208ZM144.349 193.615C145.09 193.616 145.838 193.71 146.407 194.228C146.746 194.537 146.719 195.112 146.407 195.424C146.074 195.757 145.549 195.731 145.212 195.424C145.322 195.524 145.213 195.425 145.173 195.402C145.163 195.397 145.158 195.394 145.156 195.391C145.147 195.389 145.139 195.388 145.125 195.384C145.037 195.362 144.949 195.34 144.86 195.324C144.858 195.328 144.671 195.312 144.627 195.31C144.534 195.307 144.442 195.306 144.349 195.306C143.891 195.306 143.504 194.92 143.504 194.461C143.504 194.004 143.892 193.615 144.349 193.615ZM136.402 212.581C136.16 213.643 134.531 213.191 134.772 212.132C135.123 210.591 135.059 209.013 134.772 207.468C134.574 206.403 136.203 205.95 136.402 207.019C136.746 208.872 136.823 210.733 136.402 212.581ZM134.267 151.816C133.008 151.517 131.763 151.481 130.476 151.481C129.386 151.48 129.388 149.789 130.476 149.79C131.912 149.79 133.314 149.852 134.717 150.185C135.776 150.437 135.325 152.067 134.267 151.816ZM130.049 192.999C129.319 192.634 128.588 192.269 127.858 191.904C126.884 191.417 127.741 189.959 128.711 190.444L130.902 191.54C131.876 192.027 131.019 193.485 130.049 192.999ZM129.745 226.296C128.819 227.631 127.517 228.461 125.955 228.876C124.9 229.155 124.454 227.524 125.505 227.245C126.623 226.949 127.615 226.409 128.286 225.442C128.902 224.553 130.367 225.4 129.745 226.296ZM123.905 166.766C123.654 166.298 123.277 166.1 122.809 166.089C121.721 166.064 121.721 164.373 122.809 164.398C123.876 164.423 124.854 164.958 125.364 165.913C125.877 166.873 124.417 167.726 123.905 166.766ZM113.184 178.259C112.881 178.589 112.294 178.581 111.989 178.259C111.802 178.062 111.646 177.842 111.522 177.601C111.475 177.509 111.431 177.416 111.38 177.327C111.357 177.287 111.331 177.248 111.305 177.21C111.296 177.202 111.277 177.183 111.258 177.163C110.934 176.82 110.942 176.313 111.258 175.967C111.562 175.637 112.149 175.646 112.454 175.967C112.64 176.164 112.797 176.384 112.92 176.626C112.967 176.717 113.011 176.81 113.063 176.9C113.086 176.939 113.112 176.978 113.138 177.016C113.147 177.024 113.165 177.043 113.184 177.063C113.509 177.407 113.501 177.914 113.184 178.259ZM112.282 203.225C111.182 203.729 109.974 203.729 108.874 203.225C108.457 203.035 108.358 202.432 108.571 202.069C108.817 201.647 109.312 201.576 109.727 201.765C110.226 201.994 110.931 201.994 111.429 201.765C111.846 201.575 112.336 201.642 112.586 202.069C112.8 202.435 112.698 203.035 112.282 203.225ZM109.28 220.897C109.09 221.345 108.682 221.583 108.205 221.601C107.732 221.619 107.379 221.2 107.359 220.756C107.347 220.469 107.502 220.224 107.724 220.073C107.724 220.057 107.725 220.041 107.725 220.025C107.725 219.552 108.112 219.201 108.57 219.18C109.026 219.16 109.415 219.583 109.415 220.025C109.415 220.324 109.396 220.62 109.28 220.897ZM104.919 248.992C103.57 249.014 102.252 249.336 100.903 249.358C99.813 249.375 99.8164 247.684 100.903 247.667C102.252 247.645 103.57 247.323 104.919 247.302C106.009 247.284 106.005 248.975 104.919 248.992ZM99.3102 140.642C98.5207 141.394 97.5454 141.765 96.5836 142.235C95.6091 142.711 94.7532 141.253 95.7304 140.775C96.5451 140.377 97.4471 140.083 98.1152 139.446C98.9033 138.695 100.1 139.89 99.3102 140.642ZM97.1907 160.13C96.6367 159.854 96.0593 159.537 95.4269 159.515C94.3403 159.477 94.3388 157.787 95.4269 157.825C96.3755 157.858 97.2088 158.253 98.0438 158.67C99.0185 159.157 98.1613 160.615 97.1907 160.13ZM87.03 238.348C86.7798 237.879 86.4027 237.681 85.9345 237.671C84.8466 237.646 84.8462 235.955 85.9345 235.98C87.0014 236.004 87.9799 236.54 88.4897 237.494C89.0027 238.455 87.5432 239.308 87.03 238.348ZM83.5109 201.632C83.1746 201.323 83.198 200.75 83.5109 200.437C83.876 200.072 84.2411 199.706 84.6064 199.341C84.9403 199.007 85.464 199.031 85.8015 199.341C86.1378 199.65 86.1144 200.224 85.8015 200.537C85.4361 200.902 85.0713 201.267 84.7062 201.632C84.3719 201.967 83.8484 201.942 83.5109 201.632ZM79.3623 258.853C78.143 258.825 76.9999 258.475 75.8518 258.092C74.8231 257.75 75.2668 256.118 76.3012 256.462C77.2991 256.794 78.3014 257.138 79.3623 257.162C80.4501 257.188 80.4506 258.878 79.3623 258.853ZM73.8858 222.697C72.7842 222.666 71.8704 222.105 71.0978 221.354C70.3162 220.594 71.5127 219.399 72.293 220.158C72.7352 220.588 73.2455 220.988 73.8858 221.006C74.9733 221.036 74.9742 222.727 73.8858 222.697ZM77.2868 176.2C77.3001 176.65 77.4903 177.133 77.7696 177.428C78.5165 178.22 77.3227 179.417 76.5744 178.624C75.957 177.97 75.6226 177.095 75.5966 176.2C75.5653 175.11 77.2558 175.115 77.2868 176.2ZM64.3945 139.375C64.0409 138.682 63.5773 137.87 62.8723 137.487C61.9147 136.967 62.769 135.508 63.7254 136.027C64.6838 136.548 65.3696 137.573 65.8541 138.522C66.3485 139.49 64.8894 140.344 64.3945 139.375ZM62.2035 156.959C61.8113 156.948 61.4222 156.88 61.044 156.778C60.8823 156.734 60.7226 156.683 60.5608 156.639C60.4915 156.621 60.1972 156.584 60.378 156.594C59.9204 156.569 59.5329 156.226 59.5329 155.748C59.5329 155.309 59.9216 154.878 60.378 154.903C61.0053 154.936 61.5758 155.25 62.2035 155.268C63.2905 155.299 63.2914 156.989 62.2035 156.959ZM56.7267 183.984H54.9013C53.8119 183.984 53.8138 182.294 54.9013 182.294H56.7267C57.8161 182.294 57.8142 183.984 56.7267 183.984ZM54.5972 258.738C54.0437 259.015 53.3912 259.277 52.9429 259.701C52.1523 260.449 50.9556 259.255 51.7477 258.506C52.3188 257.966 53.049 257.626 53.7443 257.278C54.154 257.073 54.6577 257.165 54.9006 257.581C55.1201 257.957 55.0054 258.533 54.5972 258.738ZM50.5191 237.374C50.4483 237.355 50.3735 237.341 50.3019 237.331C50.0146 237.292 49.7139 237.306 49.4253 237.306C48.3359 237.305 48.3376 235.614 49.4253 235.615C50.2825 235.615 51.1745 235.627 51.8485 236.228C52.1905 236.533 52.1574 237.114 51.8485 237.423C51.5125 237.759 50.9938 237.727 50.6533 237.423C50.6892 237.455 50.566 237.387 50.5191 237.374ZM49.4251 208.643C49.6706 208.136 49.6744 207.806 49.6749 207.243C49.6757 206.153 51.3659 206.155 51.3651 207.243C51.3647 208.06 51.2432 208.756 50.8846 209.496C50.6846 209.909 50.0989 210.016 49.7285 209.799C49.3131 209.556 49.2263 209.053 49.4251 208.643ZM44.538 168.981C43.5577 169.314 42.6826 169.786 41.8193 170.356C40.908 170.958 40.0623 169.493 40.9661 168.896C41.9513 168.246 42.9703 167.731 44.0887 167.35C45.1227 166.998 45.5623 168.632 44.538 168.981ZM38.8372 140.524C38.1089 140.545 37.3572 140.824 36.7081 141.139C35.7326 141.613 34.8767 140.155 35.8552 139.679C36.7823 139.229 37.7966 138.863 38.8372 138.834C39.9272 138.803 39.9226 140.494 38.8372 140.524ZM36.2814 216.488C35.9949 216.501 35.75 216.346 35.5983 216.124C35.5825 216.124 35.5669 216.123 35.5512 216.123C35.0775 216.123 34.7268 215.736 34.7061 215.278C34.6856 214.821 35.1092 214.432 35.5512 214.432C35.8495 214.433 36.1456 214.451 36.4228 214.568C36.8705 214.757 37.1084 215.165 37.1265 215.643C37.1445 216.116 36.7249 216.469 36.2814 216.488ZM32.1253 158.024C31.0873 158.364 30.6466 156.73 31.6759 156.394C32.8842 155.999 34.119 155.693 35.3271 155.298C36.3651 154.959 36.8058 156.592 35.7762 156.929C34.5683 157.323 33.3334 157.629 32.1253 158.024ZM28.3347 189.938C28.0127 190.975 26.3819 190.53 26.7047 189.488C27.0165 188.483 27.0389 187.471 27.0396 186.426C27.0402 185.336 28.7305 185.338 28.7298 186.426C28.7292 187.615 28.6893 188.793 28.3347 189.938ZM17.0337 228.162C16.9722 228.583 16.6384 228.886 16.2014 228.906C15.7567 228.926 15.3402 228.503 15.3563 228.06C15.3874 227.209 16.081 226.516 16.9316 226.484C17.4049 226.467 17.7569 226.886 17.7767 227.33C17.7962 227.762 17.4357 228.099 17.0337 228.162ZM11.3146 179.572C10.4215 179.87 9.46712 180.154 8.76694 180.815C7.97569 181.562 6.77899 180.368 7.57172 179.62C8.49502 178.748 9.68263 178.336 10.8654 177.941C11.9011 177.596 12.3412 179.229 11.3146 179.572ZM7.43883 212.418C7.19333 212.837 6.69618 212.913 6.2827 212.721C5.7283 212.463 5.11622 212.472 4.5185 212.471C3.42935 212.47 3.43104 210.779 4.5185 210.78C5.44053 210.781 6.29115 210.868 7.13586 211.261C7.55145 211.454 7.65265 212.052 7.43883 212.418ZM5.2489 252.279C4.77563 252.297 4.42363 251.878 4.40377 251.434C4.38433 251.002 4.74457 250.665 5.14706 250.602C5.20833 250.181 5.54237 249.877 5.97908 249.858C6.42404 249.838 6.84048 250.261 6.82421 250.703C6.79315 251.555 6.09994 252.248 5.2489 252.279ZM159.236 258.672C158.949 257.639 158.292 256.804 157.795 255.874C157.629 255.561 157.571 255.366 157.48 255.136C157.358 255.382 157.12 255.566 156.762 255.566C156.076 255.566 155.273 255.522 154.633 255.816C154.217 256.007 153.726 255.939 153.477 255.513C153.263 255.147 153.365 254.546 153.78 254.356C154.724 253.923 155.738 253.876 156.762 253.875C157.015 253.875 157.207 253.968 157.342 254.108C157.733 248.749 157.723 243.385 157.353 238.021C156.958 232.289 156.05 226.672 155.099 221.014C154.639 218.271 154.041 215.5 154.157 212.706C154.273 209.931 155.463 207.344 154.62 204.56C154.281 203.444 153.703 202.421 153.326 201.318C152.923 200.13 152.959 198.957 153.143 197.727C153.521 195.223 154.148 192.748 153.145 190.303C152.701 189.218 151.983 188.25 151.636 187.13C151.205 185.737 151.264 184.197 151.193 182.753C151.047 179.841 151.009 176.909 150.768 174.003C150.66 172.701 150.426 171.467 149.891 170.273C149.377 169.123 148.615 168.077 148.275 166.857C147.937 165.657 147.907 164.391 147.725 163.163C147.535 161.865 147.237 160.587 146.836 159.34C145.285 154.512 142.443 150.176 139.086 146.416C135.518 142.419 131.252 139.409 126.724 136.605C124.343 135.13 121.962 133.655 119.583 132.18C119.533 132.457 119.356 132.711 119.017 132.825C118.124 133.123 117.17 133.407 116.47 134.068C115.679 134.815 114.482 133.621 115.274 132.873C116.101 132.091 117.141 131.68 118.198 131.319C117.114 130.636 116.018 129.928 114.795 129.533C113.724 129.186 112.144 129.489 111.275 128.702C110.593 128.083 110.377 126.936 110.115 126.094C109.788 125.05 109.505 123.949 109.088 122.935C108.805 122.241 108.393 121.576 107.874 121.039C107.645 120.16 107.227 119.356 106.487 118.868C104.552 117.587 102.175 118.86 101.324 120.686C100.62 120.684 99.8787 120.838 99.1941 120.88C97.787 120.969 96.3778 121.009 94.9685 121.005C92.2113 120.997 89.452 120.817 86.718 120.451C81.8289 119.796 77.0857 118.475 72.279 117.446C72.2515 117.382 72.2199 117.319 72.1818 117.256C71.1465 115.518 68.5668 115.812 66.9418 116.469C66.2448 116.751 65.5349 117.106 65.1356 117.765C64.713 118.05 64.3475 118.397 64.1045 118.763C63.6017 119.517 63.2129 121.039 62.1925 121.166C61.5206 121.248 60.8381 121.119 60.1557 121.216C59.3021 121.335 58.5373 121.635 57.7492 121.977C51.7488 124.583 45.5456 127.481 39.0337 128.491C37.5063 128.728 35.9513 128.973 34.6245 129.829C33.5469 130.524 32.7143 131.48 31.825 132.386C30.9587 133.27 30.2446 133.661 29.0086 133.819C27.5085 134.012 26.2091 134.426 25.1126 135.516C24.202 136.423 23.6083 137.581 22.8941 138.634C22.1671 139.707 21.1004 140.312 19.9932 140.935C17.3755 142.411 14.9373 144.192 12.8139 146.329C8.34108 150.835 5.63245 156.626 2.9027 162.269C-0.0488987 168.373 -2.80823 174.551 -4.72244 181.069C-6.59862 187.468 -7.71418 194.052 -8.22971 200.697C-8.7727 207.669 -8.84876 214.669 -9.3009 221.646C-9.52698 225.131 -9.69811 228.62 -9.87136 232.108C-10.0404 235.553 -10.2876 239.004 -10.2477 242.453C-10.1714 249.121 -8.83841 255.811 -6.50777 262.054C-5.92674 263.607 -5.28255 265.14 -4.59588 266.649C-3.99352 267.974 -1.93353 267.826 -1.28701 266.649C-1.13911 266.378 -1.02291 266.099 -0.925715 265.816C0.764534 265.831 2.47169 265.7 4.15137 265.856C7.11776 266.133 10.0903 266.287 13.0651 266.471C18.9516 266.837 24.8485 267.08 30.7369 267.416C31.3082 267.448 31.8795 267.481 32.4506 267.515C28.2543 254.523 28.7986 240.477 28.1345 226.965C28.0811 225.875 29.7718 225.882 29.8248 226.965C30.4916 240.535 29.9239 254.617 34.2685 267.63C35.9541 267.744 37.6373 267.884 39.3149 268.088C40.6711 268.251 42.0341 268.443 43.4032 268.375C44.9561 268.301 46.4731 267.946 47.988 267.638C50.741 267.078 53.3926 267.331 56.1561 267.676C59.112 268.046 62.0784 268.251 65.0532 268.38C76.9652 268.902 88.9576 269.377 100.865 268.58C103.747 268.388 106.623 268.118 109.486 267.75C112.435 267.371 115.353 266.735 118.3 266.374C121.205 266.019 123.876 266.993 126.747 267.173C129.675 267.357 132.682 266.746 135.583 266.395C136.529 266.28 137.477 266.169 138.424 266.058C137.204 257.694 136.511 249.267 135.837 240.843C135.75 239.756 137.441 239.766 137.527 240.843C138.196 249.201 138.874 257.565 140.092 265.863C145.115 265.279 150.143 264.687 155.114 263.776C156.53 263.519 157.937 263.098 158.784 261.834C159.411 260.898 159.538 259.75 159.236 258.672Z" fill="black"/>
<path fill-rule="evenodd" clip-rule="evenodd" d="M121.279 81.2941C120.825 77.2964 121.413 68.9404 121.453 68.4328C121.702 65.2234 120.199 52.5502 117.357 53.7179C112.59 49.943 106.241 49.1094 100.304 48.7112C87.9718 47.884 74.8528 49.783 65.3303 58.0848C60.6211 62.3962 56.0365 68.6667 56.405 75.1958C52.1264 81.3845 46.0944 89.8738 51.4254 97.109C53.2375 99.4205 56.1176 100.281 58.394 102.032C62.9728 105.726 65.8455 111.028 70.4678 114.701C82.7137 125.708 103.507 128.008 115.539 115.488C124.843 106.42 123.338 92.8541 121.702 81.2941C120.602 73.5222 122.167 89.0931 121.279 81.2941Z" fill="white"/>
<path fill-rule="evenodd" clip-rule="evenodd" d="M83.8281 31.7582C87.1262 31.0924 90.5128 30.6782 93.8808 30.8029L94.1405 30.813C96.6746 30.9143 99.8839 31.1384 102.095 32.6124C102.222 32.4848 102.426 32.4193 102.612 32.5078C105.239 33.7622 108.128 34.6691 110.894 35.5703C113.648 36.4671 116.504 37.059 119.39 37.2977C120.476 37.3875 121.405 38.5603 120.718 39.6122C120.554 39.8628 120.395 40.116 120.236 40.3698C120.502 40.3422 120.767 40.3136 121.032 40.2868C121.906 40.1989 122.778 41.1311 122.726 41.9816C122.694 42.5165 122.636 43.0451 122.551 43.5674C122.883 43.5604 123.214 43.6103 123.534 43.7453C125.151 44.4286 125.038 46.3559 124.917 47.8223C124.75 49.8572 123.989 52.0125 122.576 53.5355C123.631 54.6313 124.378 55.94 124.823 57.4943C125.146 58.6292 125.326 59.8382 125.237 61.0196L125.209 61.3733C125.099 62.6554 124.881 64.0749 123.959 64.9972C123.486 65.4728 122.902 65.6461 122.347 65.5911C122.683 68.5458 122.898 71.5174 123.101 74.4784L123.196 75.8936C123.649 82.7371 123.989 89.6252 123.9 96.48C123.817 102.886 122.552 109.104 118.624 114.305C115.047 119.042 109.911 122.533 104.1 123.86C100.969 124.577 97.7726 124.628 94.6034 124.171C93.0672 123.949 91.5208 123.609 90.0628 123.072C88.4488 122.476 87.2888 121.599 86.2029 120.284C85.6892 119.661 85.9364 118.334 86.9592 118.458C88.5061 118.646 89.9182 118.872 91.4012 119.33L91.6136 119.397C93.0906 119.87 94.6203 120.223 96.1646 120.373C99.3277 120.68 102.539 120.371 105.569 119.411C110.502 117.847 114.751 114.362 117.475 109.983C120.707 104.792 121.073 98.8999 121.026 92.9314C120.976 86.382 120.763 79.8288 120.415 73.2862L120.356 72.1958C120.172 68.829 119.995 65.4601 119.839 62.0912C119.79 61.0344 119.716 59.9692 119.583 58.9146C118.364 58.2002 117.272 57.2153 116.56 56C115.129 56.5918 113.625 57.0188 112.241 57.359C109.035 58.1478 105.706 58.3393 102.443 57.8453C101.563 58.2091 100.665 58.5289 99.7538 58.804C99.5075 58.9133 99.2611 59.0207 99.015 59.1259C96.8174 60.0664 94.5884 60.8632 92.2687 61.4465L91.6989 61.5887C90.4781 61.8897 89.1522 62.1862 87.853 62.2793C87.6396 62.3617 87.4093 62.4314 87.1576 62.4927C85.9747 62.7802 84.7469 62.871 83.5344 62.7696C82.3531 62.6703 81.4995 61.4761 82.1503 60.3581C82.6257 59.5423 83.1055 58.7286 83.5893 57.917C81.9054 58.6187 80.1666 59.202 78.4129 59.6966C76.6424 60.1954 74.8465 60.6159 73.0483 61.0027C72.0869 61.2077 71.1216 61.3895 70.1624 61.5945C69.4757 61.7403 68.4214 61.8164 67.8613 62.2687C67.2425 62.7654 67.0671 63.9236 66.8324 64.6379C66.5239 65.5658 66.2345 66.4978 65.9704 67.4404C65.4445 69.3215 65.0135 71.2299 64.6796 73.1575C64.3458 75.0871 64.1216 77.0357 63.997 78.9907C63.8725 80.9436 63.9273 82.9092 63.7268 84.8536C63.6188 85.885 62.5119 86.4155 61.6942 85.6948C61.5983 85.6102 61.5016 85.5247 61.4059 85.4383L61.2632 85.308C60.5637 84.6739 59.8855 84.0019 59.3258 83.2452C59.2244 83.1057 59.1272 82.9599 59.0363 82.8119C59.0215 82.8119 59.0088 82.8077 58.9941 82.7972L58.8389 82.6803C57.1301 81.408 54.2753 79.7493 52.6091 81.863C52.0782 82.5363 51.8064 83.3937 51.5807 84.2209L51.1849 85.7013C50.9288 86.6677 50.6878 87.6395 50.5468 88.6283C50.2278 90.8433 50.3884 93.3964 51.9119 95.1717C52.5204 95.8818 53.3592 96.3891 54.295 96.5222C54.817 96.5941 55.3326 96.5053 55.8502 96.4398C56.3763 96.3743 56.8831 96.48 57.4094 96.4292C58.2461 96.3468 58.6116 97.3486 58.2989 97.9784C58.1299 98.3166 57.9311 98.6083 57.7052 98.8556C57.8867 99.0119 58.0602 99.181 58.2271 99.3586C58.7215 99.5171 59.165 99.8574 59.4969 100.308C59.7652 100.671 59.9045 101.066 59.9279 101.483C59.9573 101.586 59.9826 101.692 60.0061 101.8L60.4594 102.536C60.5591 102.697 60.6584 102.856 60.758 103.013C61.9116 104.83 63.1922 106.369 64.7832 107.819C66.315 109.214 67.9775 110.463 69.4166 111.959L69.5861 112.137C70.9276 113.551 72.3418 115.263 71.8167 117.319C71.6815 117.847 70.9439 118.228 70.4624 117.871C68.9137 116.721 68.1339 114.899 66.8199 113.504C65.4675 112.067 63.9695 110.776 62.6133 109.343C61.3306 107.99 60.3186 106.458 59.5561 104.771C59.2516 105.107 58.8081 105.346 58.1933 105.439C57.1369 105.598 56.1521 104.978 55.6917 104.063C55.3957 104.194 55.0938 104.313 54.7893 104.406C53.1878 104.896 52.1802 103.114 52.7845 101.798C53.1076 101.092 53.5111 100.479 54.012 99.963C52.4462 99.7474 50.8532 98.938 49.8242 97.9277C47.2426 95.3894 46.8876 91.5745 47.4687 88.1824C47.7771 86.3838 48.3094 84.564 49.0005 82.8754C49.1207 82.5816 49.2498 82.2857 49.3911 81.994C49.3129 81.9919 49.2327 81.9581 49.1819 81.8926C48.715 81.2543 48.1469 80.7323 47.8002 80.0179C47.4811 79.3627 47.1264 78.6991 46.8748 78.0164C46.3573 76.6194 46.1038 75.0427 45.9348 73.5654C45.5861 70.5409 45.7212 67.5355 46.1841 64.5301C46.9719 59.4112 48.8752 54.5126 51.6791 50.2141C51.5264 50.1339 51.3801 50.037 51.2438 49.9225L51.1764 49.8637L51.067 49.7648C50.2669 49.0405 50.336 47.683 51.067 46.9494L51.2979 46.7179C51.5902 46.4273 51.8424 46.1972 52.3146 45.8808C52.3843 45.8341 52.4555 45.7901 52.5276 45.7491C52.2804 45.2922 52.1946 44.7579 52.3668 44.1684C52.9668 42.115 55.9205 42.1877 57.7927 43.0832C59.8639 41.2341 62.1605 39.6289 64.6498 38.3291C70.5786 35.2349 77.2824 33.077 83.8281 31.7582ZM53.182 85.8427C54.2891 85.4813 55.7596 86.24 56.7548 86.6966C58.0161 87.2757 59.0894 88.1316 60.1289 89.0362C60.6466 89.4885 60.7393 90.2282 60.6106 90.8602C60.5978 90.9236 60.5853 90.9891 60.5703 91.0546C60.433 91.7288 59.6808 92.2593 59.0153 92.2403C57.6229 92.2022 56.9597 90.9997 56.1714 89.9809C56.0787 90.1458 55.9625 90.298 55.8186 90.4121L55.7214 90.4882C55.3943 90.7373 55.0338 90.9364 54.6016 90.9172C54.2952 90.9024 54.0018 90.8242 53.7311 90.6826C53.055 90.3254 52.7573 89.4505 52.9409 88.7382C53.055 88.2901 53.317 87.9393 53.6593 87.6962L53.5317 87.609C53.2587 87.4189 53.0097 87.2186 52.8157 86.9229L52.7719 86.853H52.7888C52.5775 86.4894 52.7151 85.9949 53.182 85.8427Z" fill="black"/>
<path fill-rule="evenodd" clip-rule="evenodd" d="M105.33 107.112C103.774 107.563 102.103 107.603 100.516 107.138C99.0775 106.715 97.5999 105.786 96.5409 104.555C95.6 103.463 94.9907 102.135 95.0147 100.717C95.0174 100.555 95.0752 100.42 95.1643 100.315C95.2601 100.202 95.394 100.125 95.5373 100.091C95.6848 100.056 95.8407 100.069 95.9735 100.129C96.0936 100.184 96.1966 100.276 96.261 100.412C96.4237 100.626 96.5859 100.837 96.7486 101.041C98.0573 102.658 99.3246 103.866 101.292 104.299C102.36 104.534 103.427 104.43 104.405 104.071C105.452 103.687 106.399 103.012 107.141 102.148C107.476 101.758 107.872 101.598 108.259 101.595C108.698 101.592 109.131 101.796 109.458 102.122C109.779 102.443 109.994 102.878 110.013 103.333C110.031 103.733 109.9 104.15 109.554 104.523C108.412 105.749 106.931 106.648 105.33 107.112ZM105.282 86.8665C106.878 87.8366 109.309 90.0987 107.593 92.5037C105.572 94.6243 102.663 92.1929 101.23 91.0933C99.9009 90.241 98.4076 92.4329 99.6407 93.428C109.999 101.099 114.202 87.1201 106.089 85.7259C105.196 85.5722 104.864 86.5663 105.282 86.8665ZM90.3578 82.5978C89.845 82.2697 89.2418 82.1571 88.5732 82.4614C88.0508 82.699 87.1345 83.4913 86.4969 84.5328C86.0606 85.2453 85.7512 86.0811 85.8156 86.9518C85.8306 87.154 85.7559 87.3031 85.6381 87.4133C85.5451 87.5004 85.4107 87.5644 85.2528 87.5844C85.1188 87.6013 84.9688 87.586 84.8468 87.5479C84.6148 87.4755 84.492 87.3249 84.4457 87.202C83.9992 86.0159 84.1916 84.6923 84.692 83.4981C85.3673 81.8865 86.5937 80.5366 87.3971 80.1014C88.7721 79.3564 90.3941 79.3221 91.771 80.0811C92.9431 80.7271 93.676 81.77 94.4049 82.8331C94.5599 83.0591 94.7136 83.2834 94.8726 83.5038C95.1911 83.9454 95.2228 84.3834 95.0995 84.759C94.9628 85.175 94.6144 85.5261 94.1786 85.7099C93.7759 85.8797 93.3085 85.9037 92.8949 85.7291C92.5455 85.5817 92.2248 85.2943 92.0219 84.8067C91.6802 83.9856 91.1109 83.0796 90.3578 82.5978ZM116.401 84.4248C116.05 84.6079 115.775 84.6631 115.385 84.5463C115.17 84.4816 114.957 84.3575 114.79 84.1908C114.625 84.0255 114.506 83.82 114.46 83.592C114.346 83.0293 114.038 82.5026 113.599 82.1592C113.224 81.8657 112.751 81.7102 112.226 81.798C111.66 81.8925 111.121 82.2559 110.749 82.6842C110.625 82.8275 110.527 82.9903 110.429 83.152C110.246 83.4544 110.068 83.7355 109.816 83.9575C109.72 84.042 109.576 84.1005 109.436 84.1005C109.379 84.1005 109.322 84.0913 109.267 84.0742C108.703 83.5082 108.595 83.0789 108.613 82.6531C108.632 82.2066 108.808 81.7544 109.092 81.3326C109.76 80.3431 111.026 79.5317 111.881 79.348C113.052 79.0963 114.214 79.3984 115.146 80.0524C116.105 80.7254 116.816 81.7702 117.038 82.9476C117.091 83.2312 117.068 83.5373 116.96 83.8027C116.855 84.0621 116.671 84.2842 116.401 84.4248ZM92.9392 72.0477C92.2367 72.7324 91.4052 72.8384 90.564 72.9328C90.0967 72.9857 89.7235 73.0283 89.3564 73.1112C88.3472 73.3391 87.3497 73.6823 86.4397 74.1765C85.4883 74.6932 84.4516 75.3164 83.7058 76.1147C83.5284 76.3046 83.3612 76.504 83.1938 76.7037C83.0411 76.8859 82.8941 77.0613 82.7391 77.2304C82.5611 77.4246 82.3921 77.6281 82.2239 77.8312C82.12 78.0025 82.0994 78.0446 82.0785 78.0885C82.047 78.1544 82.0104 78.2281 81.9685 78.3073C81.9112 78.4156 81.844 78.5343 81.7737 78.6418C81.6567 78.8384 81.5939 78.8925 81.5397 78.9168C81.4497 78.9569 81.3643 78.9766 81.2815 78.9659C81.2038 78.9559 81.1307 78.9186 81.0584 78.8575C80.6978 78.5527 80.5914 78.0524 80.6023 77.5214C80.6189 76.7156 80.916 75.8234 81.1899 75.2749C81.8268 74.0005 82.71 72.6757 83.7721 71.7246C84.984 70.6389 86.3099 69.817 87.8328 69.2506C88.7792 68.8985 89.875 68.5753 90.906 68.6162C91.6482 68.6456 92.3567 68.8662 92.9418 69.4173C93.3011 69.7557 93.4736 70.2369 93.4736 70.7177C93.4736 71.2082 93.2944 71.7015 92.9392 72.0477ZM117.83 78.3174C117.785 78.3907 117.723 78.4412 117.655 78.4715C117.582 78.5033 117.502 78.5124 117.425 78.4994C117.348 78.4864 117.275 78.4515 117.217 78.3982C117.161 78.3471 117.119 78.2794 117.1 78.1963C116.633 76.1472 115.728 74.6226 113.795 73.6394C112.844 73.1558 111.75 72.8485 110.715 72.6035C110.415 72.5323 110.097 72.4861 109.777 72.4394C108.774 72.2929 107.763 72.1251 107.109 71.314C106.715 70.8254 106.55 70.2005 106.643 69.6291C106.731 69.091 107.046 68.5977 107.617 68.302C109.039 67.5663 110.807 68.2882 112.244 68.9032C112.35 68.9488 112.455 68.9936 112.557 69.0368C113.962 69.63 115.243 70.4129 116.296 71.5326C117.132 72.4209 117.906 73.734 118.218 75.0849C118.477 76.2088 118.416 77.3561 117.83 78.3174Z" fill="black"/>
<path fill-rule="evenodd" clip-rule="evenodd" d="M109.755 110.525C107.787 108.772 105.581 105.247 102.755 108.036C102.056 108.824 101.772 110.591 100.703 110.938C99.2836 111.398 97.8764 109.896 97.3926 108.742C95.4129 102.33 103.597 100.571 108.259 101.607C110.536 102.543 112.214 106.309 112.315 108.275C112.381 109.595 111.263 111.538 109.755 110.525ZM124.599 100.643C124.58 100.558 124.553 100.481 124.521 100.411C123.651 100.082 122.962 100.417 122.537 101.044C122.551 101.2 122.597 101.358 122.626 101.512C122.298 102.204 122.002 103.06 121.557 103.658C121.469 103.665 121.378 103.656 121.29 103.63C113.914 104.401 117.515 96.6806 110.034 94.763C104.25 93.8085 93.7972 94.9019 91.069 100.923C88.9173 110.542 77.9765 103.84 74.3843 98.8376C70.5514 94.2854 68.0731 88.7226 65.6835 83.3247C65.1786 82.1824 63.6026 82.9993 63.774 84.0953C61.5652 88.5275 61.6387 93.8515 61.0917 98.707C60.1613 108.394 59.2546 121.979 68.2525 127.894C79.9758 141.15 109.251 145.827 122.772 133.648C127.453 123.581 126.876 111.301 124.599 100.643Z" fill="black"/>
<path fill-rule="evenodd" clip-rule="evenodd" d="M116.9 71.1487C121.859 71.1487 124.689 72.2155 125.726 72.2986L125.758 72.3008C126.189 72.3284 126.576 72.3645 126.982 72.5215C128.475 73.0967 128.718 74.6629 127.847 75.6499C127.786 77.6923 128.054 80.0788 127.593 82.1278C127.025 90.7659 122.964 92.2236 120.656 92.7557C119.497 93.0229 118.123 93.1292 116.892 92.8471C114.792 92.7688 112.716 92.1112 110.939 90.966C108.465 89.3699 106.628 86.9166 106.032 84.0051C105.749 82.6173 105.617 81.1728 105.771 79.7621L105.794 79.5678C104.989 79.183 104.058 79.1102 103.097 79.0762C102.638 79.0599 102.186 79.0453 101.746 79.0648C101.317 79.1127 100.893 79.1766 100.467 79.2636C100.002 79.4039 99.5633 79.6355 99.1579 80.0022L99.13 80.5374C99.0539 81.8744 98.8784 83.2154 98.6077 84.5272C98.2081 86.4626 97.5653 88.3111 96.1973 89.684C95.7342 90.3758 95.1612 90.9934 94.4655 91.5282C91.9385 93.4745 88.5052 94.189 85.3543 93.9199C78.9574 93.3739 75.2598 88.2941 74.4076 86.1229L74.3567 85.9913C73.7412 84.3771 73.2506 82.2828 71.3055 81.9359L70.8918 81.8616C70.0042 81.6949 69.1852 81.4629 68.6647 80.5966C68.4366 80.2184 68.3192 79.7955 68.2905 79.3642C67.9868 79.3876 67.6836 79.4099 67.3815 79.4315C64.9711 79.9414 50.5136 80.3738 49.3596 80.3738C49.3596 80.3738 47.1414 81.3077 46.2049 80.5841C45.5557 80.0809 45.3421 79.4103 45.6995 78.6505C46.2387 77.5074 48.7262 76.8198 49.8308 76.6021C49.8308 76.6021 67.6554 76.7502 68.9384 76.5069C69.7321 75.6881 71.152 75.8002 72.3384 75.6707C73.3206 74.9702 74.6946 74.5009 75.7799 74.1869C76.0011 74.103 76.2202 74.022 76.4331 73.9456C78.4228 73.2367 80.491 72.8613 82.5906 72.6597C84.7559 72.4538 86.9274 72.547 89.08 72.842C89.9871 72.9651 90.8857 73.1243 91.778 73.3324C93.3758 73.5431 94.9642 73.8902 96.5625 74.3019L96.8823 74.3851C98.5655 74.8265 100.295 75.2083 102.037 74.909C103.456 74.667 104.82 74.121 106.128 73.5305L106.298 73.4532C109.174 72.1398 113.665 71.1487 116.9 71.1487ZM91.605 75.9511C90.5439 75.7177 90.0908 77.3541 91.1552 77.5882C91.909 77.754 92.5478 78.1342 92.9794 78.7784L93.0248 78.8484C93.604 79.7703 95.0685 78.9193 94.4853 77.9914C93.8292 76.9473 92.8096 76.216 91.605 75.9511ZM122.682 74.9364C122.308 74.6728 121.742 74.8685 121.524 75.2409C121.285 75.6511 121.442 76.1077 121.792 76.376L121.828 76.4022C122.149 76.6288 122.462 77.0349 122.502 77.451L122.505 77.503C122.547 78.5919 124.239 78.5974 124.197 77.503C124.156 76.4324 123.536 75.5378 122.682 74.9364Z" fill="black"/>
</g>
<defs>
<clipPath id="clip0">
<path d="M0 85C0 38.0558 38.0558 0 85 0V0C131.944 0 170 38.0558 170 85V85C170 131.944 131.944 170 85 170V170C38.0558 170 0 131.944 0 85V85Z" fill="white"/>
</clipPath>
</defs>
</svg>
