<svg width="170" height="170" viewBox="0 0 170 170" fill="none" xmlns="http://www.w3.org/2000/svg">
<g clip-path="url(#clip0)">
<path fill-rule="evenodd" clip-rule="evenodd" d="M152.797 246.477C152.284 241.715 151.969 236.919 151.787 232.133C151.606 227.353 151.843 222.514 151.947 217.732C152.159 208.003 152.503 198.252 151.729 188.539C150.997 179.359 149.318 170.243 146.667 161.422C145.376 157.127 144.016 152.658 141.893 148.689C139.758 144.698 136.376 142.041 132.662 139.604C128.707 137.009 124.784 134.365 120.845 131.746C117.538 129.548 111.587 126.989 108.874 124.051C106.019 120.958 105.483 113.293 103.581 109.63C101.73 106.062 96.4886 103.735 92.4531 103.735C85.7734 103.735 80.7123 103.393 75.2197 109.574C72.4794 112.659 74.6597 115.777 71.7873 118.737C69.1465 121.458 62.3928 124.255 58.9891 125.834C54.9125 127.726 50.733 129.396 46.4928 130.883C42.1675 132.401 37.7332 133.532 33.3837 134.964C29.2145 136.336 23.7705 141.995 20.5339 144.988C17.5248 147.772 16.778 147.46 14.4904 150.841C9.46986 158.262 4.4438 165.768 0.445774 173.803C-1.54563 177.805 -3.47387 182.015 -4.19641 186.459C-4.96711 191.2 -4.20296 195.781 -2.9531 200.371C-1.68085 205.042 2.35922 209.489 3.67542 214.149C4.28197 216.296 2.19993 218.639 3.1576 220.662C3.63591 221.673 4.23824 222.572 4.92401 223.453C5.45239 224.131 7.51296 223.981 7.77958 224.811C8.04894 225.65 6.55817 227.39 6.53598 228.258C6.50451 229.501 6.45507 230.743 6.41429 231.985L6.17345 239.328C6.01521 244.154 5.85697 248.979 5.69873 253.805C5.64697 255.38 5.57155 256.919 5.94908 258.414C5.81282 258.287 5.68331 258.15 5.565 257.995C5.21873 257.543 4.48437 257.926 4.77824 258.456C5.2688 259.338 5.97422 259.96 6.80303 260.406C7.7662 261.827 153.63 264.999 154.348 260.846C154.751 258.516 154.018 256.022 153.725 253.706C153.42 251.295 153.057 248.894 152.797 246.477Z" fill="white"/>
<path fill-rule="evenodd" clip-rule="evenodd" d="M4.62654 186.468C4.98337 185.445 6.61562 185.888 6.25626 186.917C4.40893 192.21 5.71943 197.971 7.71654 203.024C8.11731 204.038 6.4821 204.473 6.08682 203.473C3.98598 198.158 2.68626 192.027 4.62654 186.468ZM17.0131 216.704C22.223 217.437 27.4371 217.889 32.6829 218.255C32.9174 218.272 33.1202 218.236 33.2955 218.16C33.1392 220.563 33.0124 222.968 32.9131 225.373C31.4829 225.333 30.023 225.428 28.6054 225.39C26.7526 225.339 24.9019 225.246 23.0533 225.105C19.4744 224.834 15.9019 224.403 12.3631 223.807C11.0406 223.585 9.36102 223.45 7.85469 223.01C6.43074 222.594 5.16314 221.905 4.49764 220.607C3.93145 219.508 3.82792 218.162 3.82792 216.947C3.82792 216.11 3.97159 215.26 4.05821 214.417C4.16595 214.341 4.26314 214.25 4.3413 214.149C5.91314 214.645 7.54412 214.994 9.14131 215.332C11.742 215.886 14.3807 216.334 17.0131 216.704ZM14.0746 197.162C14.1034 198.777 14.5502 200.244 15.4196 201.604C16.0077 202.525 14.5443 203.372 13.9601 202.458C12.9367 200.856 12.4183 199.059 12.3845 197.162C12.3651 196.071 14.0552 196.075 14.0746 197.162ZM147.623 214.784C148.328 214.824 149.038 214.848 149.746 214.886C150.37 215.42 151.234 215.693 152.023 215.523C152.05 215.592 152.075 215.668 152.097 215.757C152.237 216.3 152.307 216.883 152.387 217.437C152.467 217.982 152.528 218.532 152.571 219.081C152.592 219.358 152.725 219.984 152.556 220.225C152.404 220.442 152.068 220.423 151.835 220.451C151.21 220.518 150.576 220.55 149.947 220.603C148.757 220.707 147.568 220.81 146.381 220.914C145.216 221.015 143.938 220.984 142.8 221.29C142.605 219.005 142.428 216.721 142.263 214.434C144.027 214.694 145.871 214.687 147.623 214.784ZM-0.289804 210.995C0.420055 212.367 1.07498 213.715 2.43344 214.539C2.6109 214.645 2.80949 214.702 3.01231 214.717C2.8602 215.37 2.76513 216.038 2.68062 216.655C2.4947 218.014 2.45456 219.419 2.7947 220.759C3.12639 222.063 3.67569 223.228 4.75315 224.063C5.25386 224.452 5.80104 224.748 6.37569 224.982C6.27851 225.255 6.22146 225.526 6.25104 225.824C6.11372 226.514 6.02287 227.218 5.92358 227.892C5.70597 229.389 5.48836 230.887 5.31724 232.392C4.97498 235.385 4.70667 238.378 4.48062 241.381C4.25456 244.376 4.09189 247.375 3.95667 250.376C3.88696 251.91 3.82569 253.445 3.76865 254.981C3.7116 256.56 3.45597 258.175 4.15315 259.64C4.71513 260.823 6.61442 260.755 7.19752 259.64C7.93696 258.221 7.71935 256.537 7.73837 254.981C7.75738 253.517 7.78273 252.05 7.81442 250.585C7.8778 247.586 7.97076 244.589 8.0447 241.59C8.11653 238.663 8.20527 235.738 8.26442 232.811C8.294 231.278 8.29611 229.746 8.30456 228.214C8.30879 227.364 8.3447 226.458 8.28132 225.572C8.80949 225.696 9.34189 225.802 9.86794 225.91C13.8841 226.734 17.9426 227.334 22.0264 227.706C24.0778 227.892 26.1355 228.023 28.1933 228.098C29.706 228.152 31.2736 228.258 32.8095 228.201C32.6891 231.87 32.6341 235.541 32.6405 239.213C32.6447 241.861 32.6806 244.509 32.7461 247.157C32.782 248.55 32.8116 249.943 32.8539 251.335C32.8729 251.961 32.8729 252.593 32.9151 253.216C32.9278 253.411 32.9553 253.599 32.9912 253.785C32.8517 254.18 32.7355 254.571 32.6405 254.937C32.1757 256.712 32.1757 258.418 32.3827 260.227C32.5602 261.761 33.851 263.184 35.556 262.645C35.8327 262.558 36.1095 262.467 36.3841 262.374C38.894 262.66 41.4186 262.725 43.9644 262.774C47.6848 262.846 51.4074 262.869 55.1299 262.888C62.4313 262.926 69.7348 262.945 77.0384 262.966C91.7151 263.008 106.392 263.048 121.069 263.091C125.142 263.104 129.215 263.114 133.288 263.127C135.397 263.133 137.501 263.135 139.607 263.216C140.59 263.254 141.574 263.306 142.557 263.321C143.695 263.34 144.703 263.012 145.791 262.715C146.406 262.543 146.649 261.926 146.518 261.404C147.502 261.639 148.696 261.14 149.032 260.031C149.277 259.225 149.186 258.352 148.821 257.606V257.604C148.115 253.147 147.219 248.71 146.516 244.251C145.745 239.367 145.003 234.472 144.35 229.569C143.86 225.866 143.457 228.491 143.108 224.771C144.627 224.889 146.345 224.426 147.849 224.23C148.928 224.09 150.017 223.978 151.098 223.83C151.018 224.921 151.041 226.033 151.012 227.079C150.955 229.156 150.98 231.225 151.033 233.303C151.134 237.312 151.36 234.979 151.721 238.971C152.087 242.993 152.535 247.001 153.078 251.004C153.357 253.064 153.655 255.123 153.969 257.179C154.115 258.139 154.265 259.096 154.419 260.056C154.603 261.186 154.662 262.258 155.509 263.108C156.154 263.752 157.47 263.697 157.897 262.799C158.438 261.664 158.193 260.692 157.992 259.5C157.829 258.542 157.673 257.585 157.519 256.628C157.189 254.575 156.876 252.521 156.583 250.465C156.017 246.502 155.482 242.533 155.005 238.559C154.523 234.554 154.024 236.894 153.551 232.889C153.312 230.868 153.074 228.852 152.795 226.838C152.653 225.802 152.564 224.699 152.378 223.632C152.438 223.623 152.497 223.613 152.556 223.602C153.84 223.367 154.937 222.642 155.26 221.319C155.569 220.053 155.201 218.597 154.941 217.355C154.719 216.296 154.519 214.945 153.838 214.038C156.238 210.98 157.799 207.132 158.794 203.432C159.879 199.401 160.333 195.194 160.429 191.029C160.541 186.203 160.177 181.406 159.351 176.687C159.331 175.687 159.285 174.688 159.211 173.69C158.484 163.892 155.433 152.295 145.762 147.717C145.724 147.698 145.683 147.681 145.643 147.664C144.885 146.757 143.938 145.941 143.174 145.179C141.819 143.826 140.404 142.532 138.904 141.34C135.933 138.98 132.676 137.094 129.289 135.397C125.864 133.679 122.389 132.066 119.043 130.192C116.127 128.556 113.503 126.586 111.012 124.362C108.213 121.862 106.221 118.491 105.439 114.812C105.399 114.619 105.114 114.672 105.109 114.856C104.905 121.6 109.455 127.56 114.693 131.331C120.955 135.835 128.516 137.967 134.867 142.334C136.445 143.418 137.921 144.642 139.326 145.941C137.174 145.722 134.983 145.861 132.965 146.457C132.171 146.408 131.372 146.394 130.576 146.356C128.755 146.265 126.931 146.18 125.108 146.1C121.392 145.935 117.674 145.785 113.955 145.654C106.66 145.396 99.363 145.202 92.0658 145.073C77.4017 144.813 62.7186 144.762 48.0567 145.187C44.0806 145.301 23.1736 144.509 21.2384 144.732C24.0841 142.268 27.2067 140.256 30.6398 138.601C34.9348 136.536 39.3736 135.158 43.9602 133.899C53.406 131.305 63.2151 128.805 70.7743 122.217C72.6525 120.579 74.3215 118.696 75.6884 116.61C76.994 114.619 78.4454 112.07 78.4813 109.642C78.5067 107.918 76.1067 107.29 75.2532 108.767C74.7229 109.682 74.4609 110.686 74.0278 111.646C73.5968 112.597 73.0855 113.514 72.5172 114.391C71.3996 116.116 70.0137 117.654 68.5053 119.043C65.2898 122.006 61.394 124.177 57.363 125.819C48.2109 129.545 38.201 131.117 29.5285 136.029C25.7341 138.178 22.1024 141.144 19.8229 144.927C19.4553 144.984 19.0898 145.052 18.7243 145.128C18.9968 144.783 19.2715 144.439 19.5482 144.096C19.7299 143.872 19.4489 143.577 19.2271 143.775C14.9151 147.613 10.9433 151.758 7.34329 156.276C3.89963 160.601 0.688365 165.132 -1.58487 170.196C-5.67079 179.293 -6.57079 189.697 -4.46023 199.424C-3.88558 202.074 -3.07431 204.669 -2.04121 207.178C-1.50882 208.474 -0.932058 209.75 -0.289804 210.995Z" fill="black"/>
<path fill-rule="evenodd" clip-rule="evenodd" d="M92.7982 21.2808C104.794 21.2808 119.819 34.9701 124.216 40.7955C127.913 45.6932 127.39 70.9244 127.39 85.8915C127.39 89.0219 125.975 94.9463 125.462 97.9406C123.58 108.913 115.383 118.115 99.1575 118.115C85.9465 118.115 75.7798 113.929 65.9483 103.222C63.7054 100.779 52.7515 109.524 50.5113 106.375C44.6599 106.375 39.7671 51.6819 51.2556 35.2772C62.744 18.8726 80.8023 21.2808 92.7982 21.2808Z" fill="white"/>
<path fill-rule="evenodd" clip-rule="evenodd" d="M56.7438 25.1333C63.6755 18.8245 72.91 15.7895 82.2269 16.0135C87.0523 16.1297 91.8607 17.0491 96.4178 18.6237C98.6973 19.4141 100.905 20.4455 103.016 21.6122C103.776 22.0316 104.477 22.5231 105.152 23.0451L105.321 23.1762H105.323C107.133 23.8271 108.749 24.9959 110.216 26.3633C113.154 26.1287 116.116 26.3929 118.958 27.2996C122.913 28.5635 126.574 30.8778 129.145 34.1643C132.14 37.9904 133.136 42.6314 132.781 47.4224L132.715 48.2363C132.364 52.4685 131.734 57.9121 128.262 60.693C127.998 60.9043 127.706 61.0649 127.404 61.1622C129.642 64.996 131.478 69.2526 132.576 73.5515C136.77 89.9713 133.546 107.095 128.503 122.921C128.089 124.225 126.118 125.091 125.114 123.817C123.323 121.539 120.72 119.801 117.792 119.476C115.985 119.275 114.187 119.639 112.48 118.819C111.811 118.495 111.164 117.967 110.699 117.324C107.818 118.417 104.714 118.933 101.636 118.806C96.5847 118.599 91.1847 116.849 87.7093 113.011C87.1516 112.395 87.0102 111.703 87.1387 111.079C87.5745 110.924 88.022 110.808 88.483 110.735C92.89 113.334 97.7479 115.07 102.969 115.179C105.985 115.242 108.928 114.82 111.374 112.936C111.903 112.528 112.39 112.076 112.84 111.591C117.954 108.3 121.56 102.71 123.274 96.7218C124.871 91.138 124.675 85.3237 124.126 79.5961L123.836 76.5737C123.413 72.1376 123.021 67.6883 122.912 63.2334L122.945 63.2317C124.025 63.1619 124.033 61.4705 122.945 61.5409C120.131 61.7231 117.338 61.2613 114.533 61.4625C114.51 60.1358 114.414 58.8151 114.024 57.5356C113.802 56.8045 112.529 56.6604 112.395 57.5356C112.214 58.7065 112.148 59.8708 112.129 61.047C107.931 60.9912 103.736 60.6378 99.5378 60.783C98.7633 59.9566 98.5167 58.4913 98.1544 57.472C98.1016 57.3219 98.0487 57.174 97.9938 57.0239C97.6754 58.4805 97.2242 59.9052 96.6305 61.2999L95.6008 61.3034C89.7582 61.3309 83.7967 61.5056 78.0916 62.7194C77.695 62.4148 77.459 61.8835 77.3952 61.401C76.9814 58.2612 76.3908 55.2049 75.344 52.2128L75.1943 51.7907C75.182 51.7556 75.1691 51.7184 75.1556 51.6793C74.3842 52.9248 73.464 54.0857 72.4602 55.1668C71.8687 55.804 71.2484 56.4133 70.6118 57.0053C69.9935 57.6922 69.3544 58.3687 68.7349 59.0577C68.7592 59.1831 68.7804 59.3103 68.7975 59.4399C68.987 60.8696 69.0066 62.3197 68.8678 63.755C68.6168 66.3497 67.8846 68.85 66.7083 71.163L66.671 71.3946C66.4924 72.4786 66.2383 73.5988 65.6447 74.4151C66.3854 75.2453 66.9561 76.2369 67.2869 77.3387C67.5814 78.3196 66.2249 79.1696 65.5214 78.3669C64.9626 77.7293 64.3416 77.2015 63.6597 76.7805C63.6166 76.8391 63.5388 76.8678 63.4516 76.819C61.5523 75.7643 58.3262 76.0835 56.429 77.0768C54.0692 78.3111 53.148 80.8452 53.41 83.4131C53.6614 85.8669 54.7347 88.7349 56.8157 89.9924C57.7706 90.5694 58.5142 90.618 59.5283 90.3412C59.8526 90.2531 60.2546 89.9829 60.4271 89.8486L60.5969 89.7125C61.2617 89.1868 61.8809 88.8269 62.6657 88.8131C63.4683 88.5627 64.275 88.9101 64.582 89.752L64.6009 89.8064C64.7445 90.2355 65.0065 90.7744 64.9495 91.4296C64.8903 92.1313 64.5692 92.7696 64.0896 93.2832C64.0072 93.3719 63.9185 93.4607 63.8276 93.5431C72.0882 102.49 73.1488 116.43 68.9128 127.606C68.729 128.097 68.5326 128.581 68.3276 129.061C67.6199 130.705 64.8945 130.195 64.548 128.566C64.4445 128.078 64.3304 127.592 64.2058 127.11C63.9767 126.219 63.7142 125.337 63.4183 124.468L63.3058 124.142C63.0544 123.424 62.8199 122.699 62.5664 121.98L62.541 121.898C62.5315 121.866 62.5209 121.828 62.5093 121.786L62.0804 122.722L60.7769 125.548C60.167 126.867 58.2289 126.15 58.1568 124.879L58.1551 124.836C58.1488 124.601 58.1403 124.369 58.1255 124.138C58.0326 122.411 57.7347 120.733 57.2614 119.091L57.0907 119.303C54.5483 122.448 51.5645 125.395 47.4713 126.121C46.4445 126.302 45.2826 125.229 45.9882 124.191C46.2797 123.762 46.5607 123.322 46.8269 122.876C46.5966 122.769 46.379 122.657 46.1783 122.542C44.6255 121.67 43.3326 120.427 42.2635 119.017C39.9966 116.029 39.1854 112.267 38.9868 108.585C38.7755 104.694 39.1178 100.592 40.1804 96.8381C40.641 95.2149 41.2642 93.6573 41.9847 92.1461C41.934 92.0108 41.8854 91.8756 41.8368 91.7403C41.0593 89.5719 40.4213 87.3548 39.891 85.1124C38.822 80.5852 38.2473 75.9144 38.1776 71.2626C38.0509 62.929 39.4875 54.4623 42.515 46.691C45.6417 38.6766 50.3445 30.956 56.7438 25.1333ZM52.8505 97.9941C52.2763 97.0898 50.8397 97.9047 51.3728 98.8154L51.3927 98.848C52.3033 100.283 52.7301 101.915 53.254 103.515C53.5899 104.544 55.223 104.104 54.8829 103.064L54.7703 102.717C54.2489 101.095 53.7733 99.446 52.8505 97.9941ZM57.8507 80.731L58.2321 80.5464C59.4353 79.972 60.4896 79.5807 61.9112 80.0822C63.8147 80.7522 65.8535 82.8847 64.5668 84.9538C64.0936 85.7168 63.2528 86.0211 62.3866 85.8415C60.9263 85.5385 60.5494 84.223 59.8084 83.1431L59.6809 82.9602C59.2291 82.3068 58.6578 81.4035 57.9056 81.1474C57.7345 81.0882 57.6626 80.8219 57.8507 80.731ZM58.9241 36.8001L59.047 36.6899C59.8646 35.9671 58.6646 34.7751 57.8512 35.4937C54.1287 38.7844 52.8357 43.935 50.9047 48.3248C50.4716 49.3118 51.9272 50.1741 52.3646 49.1786C54.2065 44.9898 55.4292 39.9789 58.9241 36.8001ZM103.658 35.3605C102.685 34.9221 101.834 36.3381 102.77 36.8043L102.805 36.821C106.092 38.3068 107.49 41.6715 108.83 44.7952C109.257 45.7928 110.712 44.9326 110.29 43.9435L110.048 43.383C108.65 40.1638 107.02 36.8825 103.658 35.3605ZM108.81 33.3273C107.779 32.9701 107.338 34.6018 108.36 34.9589C111.147 35.929 113.059 38.0214 114.671 40.4139C115.275 41.31 116.739 40.4646 116.129 39.56C114.257 36.7829 112.034 34.4517 108.81 33.3273Z" fill="black"/>
<path fill-rule="evenodd" clip-rule="evenodd" d="M103.153 103.274C101.732 102.695 100.465 101.728 99.5388 100.493C99.2168 100.064 99.1333 99.6102 99.2008 99.1955C99.2768 98.7292 99.5525 98.3066 99.9286 98.0232C100.306 97.7388 100.778 97.5986 101.234 97.6701C101.63 97.7322 102.025 97.9493 102.337 98.3996L102.402 98.4897C102.953 99.2351 103.671 99.8467 104.489 100.241C105.277 100.621 106.158 100.798 107.071 100.695C108.808 100.499 110.006 99.5588 111.278 98.2823C111.436 98.1211 111.594 97.9549 111.753 97.786C111.853 97.6329 111.992 97.5345 112.146 97.4829C112.318 97.4256 112.512 97.4288 112.689 97.4908C112.86 97.5506 113.014 97.6639 113.116 97.8147C113.214 97.9581 113.269 98.1351 113.251 98.3388C113.135 99.6617 112.443 100.842 111.461 101.769C110.371 102.799 108.925 103.511 107.564 103.761C106.064 104.036 104.536 103.839 103.153 103.274ZM108.271 82.8665C109.867 83.8366 112.297 86.0987 110.581 88.5037C108.561 90.6243 105.652 88.1929 104.219 87.0933C102.89 86.2411 101.397 88.4329 102.63 89.428C112.987 97.099 117.19 83.1202 109.078 81.7259C108.185 81.5722 107.853 82.5664 108.271 82.8665ZM89.7111 73.9431C89.8874 71.7543 93.2197 71.2573 93.5511 73.4232C93.848 75.3634 93.4985 77.1457 92.6249 78.8925C91.7902 80.5613 89.6922 79.7828 89.5336 78.2631C89.3209 76.2262 89.6015 75.3047 89.7111 73.9431ZM115.077 72.9741C115.541 72.3654 116.212 71.9499 117.016 72.1847C119.527 72.9187 118.787 76.4848 117.905 78.2207C117.426 79.1633 115.877 79.4023 115.177 78.5723C114.036 77.2189 113.49 74.5159 114.94 73.1827C114.979 73.1138 115.023 73.0443 115.077 72.9741ZM92.5896 64.3656L92.9862 64.2962C94.2132 64.0839 95.7388 63.8799 96.6068 64.8667C97.0672 65.39 97.2256 66.3627 96.6068 66.8636C95.5184 67.7449 94.315 67.4033 93.0106 67.4779C91.9357 67.5397 90.9026 67.7176 89.8672 68.0137C87.5956 68.6632 85.7447 69.8489 83.8046 71.1508C83.5501 71.3216 83.2902 70.9959 83.4117 70.7577C84.5316 68.5632 86.702 66.7606 88.8759 65.6618C90.0362 65.0753 91.3059 64.5888 92.5896 64.3656ZM112.788 63.3826L113.091 63.4447C116.395 64.1356 120.687 65.5155 122.252 68.7617C122.311 69.2208 122.248 69.3192 122.197 69.3834L122.18 69.4048C122.138 69.4597 122.104 69.5354 121.905 69.5978C121.85 69.5847 121.794 69.5708 121.738 69.556C121.021 69.368 120.453 69.109 119.904 68.8402L119.309 68.5467C118.618 68.2078 117.921 67.8812 117.182 67.6401C115.605 67.1257 113.984 66.7633 112.337 66.5698C111.98 66.5279 111.637 66.4074 111.365 66.2009C111.108 66.0049 110.911 65.7334 110.822 65.3727C110.706 64.9058 110.739 64.5523 110.989 64.1311C111.178 63.8148 111.447 63.5956 111.756 63.4697C112.072 63.3413 112.431 63.3111 112.788 63.3826Z" fill="black"/>
<path fill-rule="evenodd" clip-rule="evenodd" d="M126.085 84.7582C124.663 86.6698 122.026 87.2787 119.593 87.0684C114.347 86.5633 112.696 80.603 112.524 75.9704C116.042 76.9604 112.227 69.9491 124.252 69.178C128.491 68.8247 127.322 71.3858 129.195 73.2571C129.157 77.1844 128.503 81.4518 126.085 84.7582ZM101.099 80.2454C98.0013 94.7553 81.0412 91.3039 79.2596 78.2243C80.9047 77.0627 80.4714 74.1945 82.5152 73.1553C85.7544 71.0849 89.8035 71.1734 93.4819 71.222C98.1836 71.5452 99.5235 73.4936 101.939 75.6194C101.823 77.0393 101.487 78.722 101.099 80.2454ZM132.804 66.775C132.63 66.7461 132.456 66.7188 132.282 66.6932C132.146 66.6161 131.986 66.5567 131.801 66.521C131.377 66.4134 130.957 66.3409 130.537 66.3018C124.509 64.9447 110.564 66.8716 109.988 72.0176C108.069 72.6586 106.408 72.0846 104.183 72.1416C102.489 65.0603 73.2111 66.0598 71.803 70.3291C71.7977 70.3276 71.7924 70.3263 71.7869 70.3246C70.434 69.9057 68.4394 70.0068 66.8908 69.9404C63.5843 69.8711 60.2739 70.1659 57.0388 70.8636C50.9807 71.8267 42.7127 72.9543 46.926 80.5223C46.9269 80.5236 46.9275 80.525 46.9286 80.5263L46.9292 80.5257C47.6553 81.2703 48.8876 80.6707 48.9335 79.6627C47.5169 76.0774 50.7164 75.6469 53.1781 74.6165C59.3034 72.4151 65.5396 72.1099 71.8746 72.7909C72.3512 73.3522 73.0744 73.8417 73.8388 74.0979C78.0745 74.8013 75.8422 77.9445 78.5196 78.4016C78.0278 89.3584 91.3252 95.3392 99.0299 88.1366C102.106 85.1278 102.839 80.6707 103.553 76.6531C103.93 76.5683 104.17 76.3621 104.31 76.089C105.217 75.1832 105.786 74.3466 107.58 74.0979C109.373 73.8493 110.754 74.3483 110.941 74.5011C110.988 74.596 111.038 74.6911 111.097 74.7862C111.179 74.9281 111.291 75.0411 111.417 75.1301C109.646 86.0409 118.113 92.941 126.661 87.2821C130.375 83.787 131.16 78.4361 131.315 73.66C131.818 73.356 132.137 72.767 131.963 72.0264C131.723 71.0056 132.286 70.1217 133.183 69.6779C134.349 69.1016 134.142 66.9967 132.804 66.775Z" fill="black"/>
</g>
<defs>
<clipPath id="clip0">
<path d="M0 85C0 38.0558 38.0558 0 85 0V0C131.944 0 170 38.0558 170 85V85C170 131.944 131.944 170 85 170V170C38.0558 170 0 131.944 0 85V85Z" fill="white"/>
</clipPath>
</defs>
</svg>
