<svg width="170" height="170" viewBox="0 0 170 170" fill="none" xmlns="http://www.w3.org/2000/svg">
<g clip-path="url(#clip0)">
<path fill-rule="evenodd" clip-rule="evenodd" d="M90.5917 115.723C85.3766 111.751 72.2837 109.964 66.7176 113.789C61.22 117.631 60.6207 123.843 58.0589 129.557C55.6417 128.417 51.6502 130.05 50.9494 132.294C50.0802 133.352 50.0412 136.325 49.4418 137.747C23.3625 141.9 19.4032 162.24 16.2642 185.332C12.1115 208.764 2.68454 232.145 6.77701 256.257C6.24376 257.029 5.82333 257.78 5.4346 258.671C4.50313 260.256 5.70291 262.501 7.58171 262.414C10.0136 262.2 12.4214 261.908 14.8647 261.817C21.6379 261.582 28.4173 261.61 35.1931 261.696L36.117 261.708C70.2648 262.133 104.411 262.971 138.56 263.194C139.799 263.195 140.405 262.084 140.24 260.987C139.907 258.78 139.598 256.571 139.275 254.363C147.352 256.497 155.939 257.034 163.993 254.587C164.557 254.013 162.681 254.324 162.383 254.237C169.796 249.17 167.582 238.495 166.925 230.807C162.842 204.462 161.403 175.313 145.628 152.832C138.803 143.658 128.798 136.394 117.301 134.76L116.982 134.716C113.62 134.267 109.874 134.123 106.934 132.294C103.629 129.653 102.22 124.775 98.7421 124.73C97.5937 124.715 96.0315 126.168 94.3504 127.155C94.2249 124.984 93.0555 123.152 92.7973 121.469L92.7764 121.325C92.507 119.363 92.876 117.598 90.5917 115.723ZM34.5449 186.028C41.8739 180.935 60.8062 183.494 61.2396 183.779C62.1939 184.407 62.6048 184.463 63.121 185.278C63.6305 185.346 64.1397 185.416 64.6484 185.488C65.6691 185.822 64.9127 187.077 63.7339 186.629C64.4429 189.688 62.3562 191.864 61.5255 194.888C61.2557 195.87 61.5157 197.636 61.5255 198.64C61.4449 199.919 60.0311 201.43 60.2667 202.714C61.1045 207.276 65.6505 211.727 63.7339 216.152C62.4641 218.652 58.6453 219.926 56.1063 220.776C50.8459 222.795 41.6802 220.7 38.6238 216.152C36.9936 213.727 35.1049 207.609 34.1328 205.711L33.9174 202.701C33.386 195.218 32.9134 187.162 34.5449 186.028Z" fill="white"/>
<path fill-rule="evenodd" clip-rule="evenodd" d="M100.019 124.288C99.5132 123.84 98.7645 124.403 99.0861 125.009C99.8086 126.37 100.55 127.659 101.519 128.862C102.107 129.592 102.737 130.282 103.375 130.964C101.737 132.381 100.333 134.141 99.0062 135.791C97.3099 137.9 95.7062 140.099 93.802 142.029C91.9241 143.933 89.8477 145.264 87.337 146.151L86.83 146.327C84.3078 147.213 81.6121 148.409 80.1905 150.798C79.9101 151.269 80.4746 151.851 80.9492 151.557C83.4195 150.027 86.3221 149.719 89.0111 148.708C91.6087 147.732 93.873 146.229 95.8737 144.31C97.8711 142.395 99.5481 140.216 101.297 138.083C103.027 135.974 104.89 134.172 106.936 132.388C110.093 134.513 113.698 135.438 117.363 136.346L117.763 136.445C121.432 137.354 125.081 138.409 128.524 139.992C131.559 141.387 134.544 143.053 137.016 145.323C139.641 147.733 141.683 150.81 143.553 153.819C147.735 160.552 150.675 167.928 153.263 175.394C155.955 183.159 158.207 191.08 160.024 199.095C160.949 203.172 161.7 207.278 162.317 211.413C162.614 213.404 162.878 215.4 163.109 217.4C163.357 219.536 163.414 221.733 164.069 223.786C164.349 224.666 165.012 225.032 165.676 225L165.811 226.687C165.989 228.935 166.156 231.184 166.212 233.446C166.306 237.208 166.263 240.959 165.993 244.712L165.955 245.224C165.742 247.964 165.267 251.042 163.208 253.048C161.075 255.126 157.796 255.779 154.922 255.816C148.227 255.903 141.783 252.739 135.859 249.963C129.758 247.104 123.824 243.931 118.032 240.489C115.082 238.736 112.164 236.925 109.284 235.061C107.87 234.146 106.466 233.216 105.073 232.271C104.275 231.729 103.519 231.136 102.707 230.655C103.105 230.284 103.282 229.702 102.949 229.193C105.297 227.153 106.275 223.515 106.389 220.57C106.481 218.194 106.132 215.824 105.856 213.47C105.716 212.282 105.545 211.097 105.366 209.916C105.295 209.449 105.242 208.949 105.159 208.456C111.5 211.942 118.018 215.047 124.709 217.804C128.139 219.218 131.613 220.489 135.134 221.654L135.848 221.889C139.185 222.982 142.602 224.014 146.051 224.638C146.235 224.672 146.385 224.399 146.188 224.313C142.827 222.829 139.349 221.577 135.936 220.21L135.376 219.982C135.44 219.978 135.507 219.969 135.577 219.953C137.578 219.47 139.563 218.725 141.526 218.098C143.347 217.516 145.394 217.151 147.097 216.273C147.228 216.205 147.154 216.023 147.027 216.014C145.113 215.881 143.036 216.439 141.159 216.768L140.455 216.891C139.274 217.099 138.067 217.323 136.892 217.615C136.849 217.222 136.629 216.826 136.316 216.594C132.873 214.043 133.223 208.892 132.855 205.093L132.582 202.272C132.101 197.336 131.593 192.4 130.821 187.501C130.78 187.24 130.376 187.315 130.374 187.562C130.334 193.635 130.792 199.68 131.022 205.743L131.058 206.738C131.185 210.48 131.284 214.365 133.64 217.244C133.31 217.051 132.865 217.051 132.598 217.369C132.27 217.759 132.081 218.197 132.087 218.627C129.958 217.735 127.839 216.819 125.73 215.884C118.95 212.879 112.312 209.516 105.85 205.878C105.154 205.486 104.493 205.794 104.149 206.31L104.099 206.303C104.091 206.302 104.083 206.301 104.074 206.301L104.025 206.299C104.023 206.299 104.021 206.299 104.019 206.299C103.11 205.799 101.87 206.155 101.09 206.884C101.067 206.906 101.047 206.93 101.027 206.953C100.038 206.509 99.1154 205.91 98.278 205.151C96.5642 203.597 95.1125 201.676 93.847 199.749C91.5165 196.2 89.537 192.254 86.3889 189.333C83.8311 186.96 80.6599 185.482 77.3331 184.555C77.347 184.458 77.3099 184.354 77.2427 184.285C77.0718 184.11 76.9499 184.049 76.7291 184.156C76.7115 184.164 76.701 184.176 76.6938 184.189L76.3692 183.634C76.192 183.333 76.01 183.029 75.947 182.95C75.5692 182.474 75.1805 182.002 74.7858 181.54C74.1168 180.757 73.3543 179.985 72.4714 179.442C70.5383 178.254 68.5061 178.926 66.5187 179.576C65.3179 179.968 64.1211 180.373 62.9223 180.772L62.7987 180.812C61.9048 181.099 60.8589 181.351 60.4592 182.298C60.3009 182.673 60.2764 183.062 60.3501 183.439C51.8606 181.28 42.4313 182.272 34.1468 184.807C33.8289 184.905 33.5113 185.166 33.4444 185.51C32.4951 190.38 32.0724 195.374 32.5019 200.326C32.8725 204.602 33.8194 208.791 35.6037 212.705L35.7052 212.926C37.3821 216.553 40.04 221.025 44.099 222.162C46.5499 222.848 49.2607 222.444 51.7604 222.318C54.1898 222.195 56.673 222.178 59.0794 221.796C61.2225 221.455 63.1002 220.494 64.4246 218.751C65.5672 217.247 66.1689 215.429 66.6618 213.621C66.8874 213.693 67.1115 213.77 67.3321 213.856C68.2632 214.22 69.052 214.807 69.7653 215.498C71.2714 216.957 72.4397 218.729 74.0156 220.121C75.442 221.382 77.0675 222.362 78.8111 223.116C82.4241 224.678 86.2999 225.302 90.1216 226.129L90.3882 226.187C93.2652 226.819 96.2018 227.594 98.7413 229.093C98.7909 229.534 98.9918 229.949 99.3138 230.221C98.8659 230.642 98.6762 231.308 99.0698 231.933C100.169 233.679 102.063 234.672 103.763 235.788L103.874 235.861C105.546 236.97 107.233 238.057 108.934 239.122C112.391 241.288 115.921 243.334 119.5 245.29C125.257 248.437 131.138 251.405 137.126 254.097C136.766 255.866 136.898 257.689 136.627 259.47L136.586 259.724C136.471 260.385 136.627 260.937 137.082 261.369L137.13 261.413L137.129 261.407L137.171 261.447L137.186 261.459L137.181 261.455C137.233 261.503 137.288 261.548 137.343 261.586L137.413 261.631C137.851 261.897 138.415 261.894 138.864 261.659L138.915 261.631L139.001 261.582C139.594 261.24 140.003 260.395 139.757 259.724C139.153 258.074 138.924 256.312 138.366 254.651L138.809 254.849L139.393 255.104C145.705 257.834 152.717 260.134 159.594 258.272C162.633 257.45 165.473 255.709 166.994 252.873C168.49 250.082 168.701 246.841 168.781 243.736C168.879 239.904 168.674 236.014 168.168 232.214C167.829 229.664 167.419 227.066 166.787 224.542C167.112 224.255 167.351 223.843 167.414 223.333C167.713 220.922 167.19 218.416 166.871 216.019C166.558 213.677 166.213 211.34 165.823 209.011C165.034 204.307 164.118 199.612 163.052 194.963C161.155 186.688 158.649 178.561 155.632 170.627L155.368 169.936C152.58 162.685 149.352 155.589 144.857 149.219C142.707 146.171 140.435 143.408 137.396 141.212C134.55 139.154 131.34 137.672 128.027 136.54C124.71 135.407 121.301 134.647 117.832 134.175C114.309 133.695 110.59 133.401 107.303 131.955C107.719 131.21 107.362 130.203 106.662 129.74C104.307 128.184 102.13 126.159 100.019 124.288ZM24.6376 191.967C24.5389 191.817 24.3046 191.912 24.3479 192.089C25.4932 196.783 26.5684 201.487 27.2704 206.27C28.5377 214.904 28.3046 223.65 28.201 232.348L28.1958 232.797C28.1425 237.482 28.0686 242.167 27.9137 246.85C27.8356 249.217 27.6809 251.607 27.765 253.975C27.8109 255.26 28.1531 256.475 28.2744 257.744C28.3806 258.854 28.286 259.98 28.233 261.092C28.1975 261.831 29.2876 261.799 29.3618 261.092L29.4566 260.177C29.5798 259.019 29.732 257.868 30.1114 256.76C30.5675 255.427 30.7864 254.118 30.9446 252.718C31.187 250.573 31.2948 248.407 31.3883 246.248L31.4523 244.754C31.8429 235.728 31.8292 226.66 31.1968 217.644L31.1506 217C30.5244 208.478 29.4378 199.269 24.6376 191.967ZM49.0508 138.253C49.3499 138.13 49.2452 137.678 48.9139 137.757L48.3114 137.9C43.8971 138.958 39.5629 140.104 35.4426 142.072C31.3197 144.042 27.8292 146.982 25.0556 150.597C19.6641 157.625 17.4236 166.166 15.6549 174.698C13.6892 184.18 11.8996 193.696 9.91682 203.174L9.54863 204.94C7.71399 213.768 5.98181 222.601 4.70549 231.533L4.6138 232.181C3.32672 241.367 2.55255 250.87 3.95697 260.08C4.23479 261.902 7.26562 261.448 7.14711 259.648C6.80486 254.444 6.55978 249.267 6.79662 244.052C7.03366 238.835 7.52274 233.641 8.25183 228.47C8.86537 224.118 9.78 219.82 10.5894 215.503L10.7163 214.821C11.394 211.149 12.0927 207.481 12.7899 203.813L13.8317 198.32C15.3932 190.096 16.9852 181.864 18.7841 173.692L18.8909 173.211C20.6514 165.348 23.2468 157.112 28.5274 150.868C33.8862 144.532 41.5575 141.341 49.0508 138.253ZM68.5225 221.652C68.3937 221.364 67.9428 221.396 67.8042 221.652C67.2612 222.654 67.2008 223.933 67.0982 225.065L67.0874 225.181C66.9568 226.562 66.8413 227.948 66.7705 229.333C66.6363 231.962 66.5721 234.587 66.5804 237.22C66.5888 239.917 66.6431 242.612 66.7885 245.306L66.8279 246.027C66.9606 248.368 67.1831 250.979 68.295 253.026C68.6991 253.77 69.7984 253.551 70.0324 252.799C70.7993 250.335 70.4055 247.414 70.2089 244.891L70.0561 242.922C69.9049 240.953 69.7607 238.984 69.6462 237.012C69.4895 234.315 69.3602 231.616 69.2358 228.918C69.1953 228.041 69.1516 227.165 69.1054 226.288L69.0344 224.974C68.9738 223.874 68.9789 222.668 68.5225 221.652ZM154.751 225.143L154.412 224.815C153.369 223.795 152.052 222.223 150.512 222.321C149.897 222.36 149.506 222.87 149.633 223.475C149.905 224.767 151.224 225.438 152.172 226.227C153.212 227.091 154.191 228.015 155.169 228.948C156.037 229.775 156.871 230.625 157.685 231.503L157.989 231.833C158.281 232.151 160.359 234.032 160.135 234.52L160.123 234.542C160.06 234.635 160.164 234.763 160.268 234.731C161.165 234.447 161.109 233.678 160.77 232.898C160.118 231.4 158.976 230.014 157.979 228.735C156.985 227.458 155.909 226.27 154.751 225.143ZM65.2706 187.575C65.9646 185.934 68.5212 185.968 69.9726 186.067C73.6275 186.314 77.582 187.239 80.834 188.948C84.2056 190.719 86.4767 193.558 88.5088 196.697L88.6038 196.845C90.5845 199.925 92.492 203.571 95.5934 205.688C97.1731 206.767 99.0176 207.753 100.934 208.179C101.066 208.411 101.279 208.594 101.559 208.66L101.688 208.69C102.234 208.811 103.082 208.944 103.815 208.864C103.81 209.223 103.814 209.579 103.805 209.918C103.779 210.892 103.768 211.869 103.768 212.843C103.768 214.883 103.877 216.928 103.792 218.968C103.717 220.773 103.462 222.659 102.596 224.272C101.96 225.456 101.122 226.239 100.11 226.987C97.6197 225.469 94.8041 224.543 91.9465 223.847C88.4906 223.006 84.9521 222.445 81.5748 221.304C79.9493 220.754 78.3865 220.036 76.9706 219.059C75.4678 218.023 74.32 216.62 73.139 215.248L72.9545 215.035C71.7492 213.652 70.4341 212.329 68.7307 211.579C67.2639 210.934 65.3306 210.819 64.048 209.819C63.3774 209.296 63.3212 208.538 63.2507 207.761C64.0721 207.878 64.9416 207.69 65.7603 207.594L66.1845 207.544C66.9586 207.452 67.7149 207.351 68.477 207.154C68.6185 207.117 68.6185 206.904 68.477 206.867C67.5764 206.635 66.6838 206.536 65.7603 206.427L65.5434 206.4C64.708 206.291 63.8299 206.125 63.0104 206.309C62.8634 205.75 62.6511 205.215 62.3532 204.68C61.9351 203.928 61.1439 203.076 61.037 202.198C61.0051 201.936 61.0662 201.626 61.1897 201.394L61.2323 201.315C61.2843 201.222 61.3458 201.128 61.4359 201.07C61.4458 201.082 61.4669 201.095 61.5128 201.109C62.1434 201.308 62.6936 200.999 62.9855 200.523C64.225 200.677 65.5778 200.625 66.7402 200.677L67.9154 200.734C69.1712 200.791 70.4841 200.816 71.6642 200.563C71.829 200.527 71.8788 200.253 71.7138 200.182C70.2631 199.562 68.5032 199.364 66.95 199.125C66.0825 198.992 65.2087 198.89 64.3387 198.773C63.7594 198.695 63.1446 198.566 62.5444 198.535C61.0395 196.661 61.8504 193.704 63.9447 192.897C64.7076 193.233 65.3935 193.038 66.227 192.966C67.059 192.895 67.8931 192.846 68.7284 192.85C70.4023 192.857 72.1761 193.298 73.8337 193.108C74.1033 193.077 74.3538 192.718 74.0857 192.499C72.8169 191.463 70.9984 191.126 69.3878 190.905L69.054 190.86C68.514 190.789 67.8574 190.686 67.1762 190.625C67.0222 190.324 66.7459 190.097 66.3307 190.04C66.2074 190.023 66.0833 190.014 65.9595 190.003L65.9614 189.991C64.949 189.942 64.993 188.231 65.2706 187.575ZM134.581 219.579C134.599 219.606 134.618 219.633 134.639 219.658L134.671 219.695L134.505 219.628L134.581 219.579ZM47.6039 183.908C51.8652 183.45 56.1326 183.547 60.4065 183.67C60.7484 184.788 61.9382 185.741 63.0911 185.777C62.1881 187.152 62.095 189.013 62.7281 190.471C61.3839 191.006 60.2257 191.968 59.5226 193.338C58.5476 195.236 58.6752 197.349 59.6388 199.103C58.8163 199.848 58.331 201.058 58.3796 202.198C58.4339 203.469 59.1913 204.555 59.8207 205.608C60.5007 206.746 60.5236 207.748 60.7325 209.023C61.0382 210.889 62.2961 212.02 63.9146 212.727L63.8286 213.066C63.4113 214.691 62.8921 216.405 61.6995 217.593C60.1653 219.122 57.7852 219.108 55.7582 219.204L55.6604 219.209C53.8043 219.302 51.949 219.411 50.0935 219.516L48.7019 219.594C46.5655 219.711 44.5139 219.725 42.7699 218.313C39.9226 216.006 37.9707 212.19 36.7352 208.811C34.1421 201.719 34.1111 193.936 35.3013 186.549C39.2933 185.262 43.4352 184.356 47.6039 183.908ZM83.0418 195.675L83.0105 195.677C82.1331 195.777 81.5303 196.488 81.3157 197.331C81.0039 198.556 81.1568 199.664 80.4066 200.77C79.6348 201.908 79.1603 202.819 79.0482 204.224C79.0021 204.802 79.0232 205.379 78.8946 205.945L78.8013 206.341C78.7022 206.764 78.6211 207.171 78.6704 207.625C78.7154 208.039 78.917 208.362 79.3321 208.495C80.6849 208.928 81.7294 207.93 82.0788 206.669C82.3807 205.58 81.9776 204.282 82.4035 203.259C82.6395 202.692 83.0747 202.218 83.3206 201.647C83.5642 201.081 83.6865 200.49 83.7256 199.875C83.7998 198.712 82.7713 197.314 83.3451 196.26C83.4673 196.035 83.3289 195.668 83.0418 195.675ZM101.011 183.67C100.095 183.484 99.0553 183.057 98.1519 183.412C97.6875 183.595 97.4581 184.161 97.8504 184.555C98.5316 185.238 99.5216 185.276 100.439 185.437L100.52 185.451C101.605 185.652 102.691 185.843 103.78 186.023C105.827 186.362 107.879 186.662 109.939 186.917C112.054 187.179 114.175 187.412 116.299 187.588L117.121 187.655C118.916 187.799 120.783 187.907 122.543 187.632C122.799 187.592 122.758 187.219 122.543 187.154C120.615 186.57 118.499 186.414 116.505 186.166C114.385 185.903 112.269 185.625 110.158 185.296C108.051 184.966 105.946 184.613 103.849 184.222C102.901 184.046 101.955 183.862 101.011 183.67ZM67.9568 181.795C68.7607 181.51 69.6451 181.089 70.5161 181.23C72.0182 181.473 73.3551 182.937 74.5441 183.901L73.9471 183.785C70.8923 183.198 66.847 182.565 64.2827 184.508C64.2761 184.497 64.271 184.486 64.2636 184.475C64.0566 184.16 63.8168 183.915 63.5551 183.646C63.5301 183.622 63.5059 183.598 63.4821 183.573L63.3408 183.423L63.6638 183.311C64.3557 183.066 65.1753 182.75 65.3049 182.704L65.3139 182.701C66.1959 182.402 67.079 182.106 67.9568 181.795ZM93.0557 117.74C93.1814 116.123 90.665 116.136 90.5404 117.74C90.2685 121.242 91.0563 124.711 92.7519 127.782C92.7644 127.804 92.7781 127.824 92.7912 127.845C91.7307 128.397 90.6581 128.927 89.5616 129.4C88.159 130.006 86.73 130.557 85.2754 131.025C83.9596 131.449 82.3386 131.616 81.2324 132.497C78.8997 134.356 79.7761 138.212 80.2248 140.712L80.2948 141.106C80.5183 142.392 80.6799 143.712 80.1378 144.947C79.5589 146.265 78.3883 147.243 77.344 148.187L77.1331 148.378C76.2079 149.221 75.1508 150.246 74.4722 151.389C73.8528 150.108 73.0083 149.061 72.1155 147.882C71.4786 147.041 71.9319 146.763 72.3895 145.942C72.83 145.151 73.0451 144.308 72.9074 143.405C72.6532 141.739 71.322 140.536 69.9969 139.631C68.4321 138.564 66.6855 137.773 65.0678 136.78C61.7438 134.739 58.5065 132.406 55.59 129.815C55.5095 129.744 55.37 129.838 55.4345 129.935C57.7383 133.441 60.4398 136.47 63.7599 139.042C65.1061 140.084 66.5203 140.949 67.944 141.858L68.3533 142.121C68.9249 142.491 69.6379 142.987 69.8964 143.617C70.1564 144.251 69.6019 144.73 69.3033 145.256C68.3554 146.924 68.8127 148.481 69.9366 149.896L69.9889 149.961C71.1057 151.338 71.952 152.618 72.3568 154.377C73.2265 158.156 72.0151 162.091 70.7469 165.638L70.6969 165.778C70.0109 167.69 69.2818 169.588 68.6858 171.53L68.5218 172.067C67.9818 173.855 67.5396 175.617 68.1454 177.455C68.3514 178.08 69.2034 178.228 69.5573 177.639C70.8057 175.565 71.1169 173.069 71.8994 170.789C72.6621 168.566 73.5378 166.384 74.2745 164.152C75.2231 161.279 75.8579 158.186 75.5133 155.172C75.5235 155.154 75.5347 155.138 75.5431 155.119L75.7846 154.591C76.4431 153.16 77.079 151.911 78.2765 150.77C79.5255 149.58 80.8812 148.527 81.864 147.087C83.9988 143.959 82.6786 140.479 82.4207 137.059L82.3912 136.639C82.3444 135.929 82.3187 134.964 82.7824 134.472C83.304 133.919 84.5273 133.778 85.2194 133.533C87.008 132.9 88.7706 132.162 90.4493 131.276C92.0474 130.433 93.5953 129.501 95.0366 128.41L95.7671 127.86C96.9197 126.99 98.1149 126.04 98.8874 124.855C98.9765 124.719 98.825 124.499 98.6636 124.564C97.374 125.088 96.1958 125.921 94.9893 126.645C94.9705 126.601 94.9487 126.556 94.924 126.512C93.4312 123.809 92.8172 120.814 93.0557 117.74ZM51.8621 136.258C51.3483 134.848 49.0066 134.957 49.1 136.632C49.1716 137.919 49.7176 139.08 50.2169 140.248L50.2702 140.373C50.7857 141.59 51.381 142.733 52.0934 143.849C53.4546 145.981 55.049 147.96 56.7521 149.828C58.296 151.521 60.3225 152.557 62.6576 152.385C63.6415 152.312 64.6347 152.062 65.4969 151.57C66.5209 150.986 67.633 149.232 68.9395 149.657C69.0658 149.698 69.1837 149.513 69.0745 149.425C67.5662 148.21 65.8543 150.094 64.4103 150.548C62.2345 151.232 60.0016 150.476 58.6011 148.716C57.1389 146.879 55.7931 144.822 54.5642 142.821C53.9401 141.805 53.3707 140.751 52.8789 139.665C52.3826 138.568 52.2698 137.376 51.8621 136.258ZM55.3694 127.584C55.4328 127.389 55.1911 127.204 55.0202 127.315C54.0291 127.96 53.1703 128.813 52.2562 129.561C51.2419 130.39 50.2202 131.203 49.1827 132.003C47.6702 133.169 49.4244 135.316 50.7558 134.042C52.5777 132.299 54.5732 130.02 55.3694 127.584ZM60.8106 120.761C60.408 119.208 58.0267 119.849 58.3737 121.384L58.3851 121.43C59.0423 123.966 58.1062 126.547 56.1079 128.191L56.0343 128.251C54.7701 129.263 56.5612 131.032 57.813 130.03C60.5457 127.842 61.6825 124.125 60.8106 120.761Z" fill="black"/>
<path fill-rule="evenodd" clip-rule="evenodd" d="M40.1272 71.3169C40.9114 65.0565 43.3748 58.4097 45.9656 52.5733C51.7911 40.2334 65.1278 38.5344 77.0836 35.9902C88.8816 34.2719 101.375 32.7204 112.995 36.1487C119.528 37.7497 122.079 45.5328 121.048 51.6749C120.46 55.5022 118.718 59.1246 117.233 62.6717C114.282 69.9561 112.409 77.7547 112.406 85.6414C112.608 90.7954 113.336 96.6781 107.415 98.8612C101.781 101.664 101.305 109.262 94.2508 113.572C91.3983 119.352 83.628 119.861 78.0356 121.202C74.5009 121.879 70.9262 122.377 67.3418 122.699C56.9631 124.029 48.6603 121.02 43.2273 111.771C39.5916 106.142 36.8842 99.643 37.5531 92.821C38.2192 85.6372 39.329 78.491 40.1272 71.3169Z" fill="white"/>
<path fill-rule="evenodd" clip-rule="evenodd" d="M76.9939 20.9933C76.4015 20.3216 75.4888 20.552 74.9349 21.0831C74.5743 21.1894 74.2248 21.3475 73.8948 21.5568C73.149 21.461 72.3671 21.461 71.6357 21.4879C71.4583 21.3883 71.2681 21.2998 71.0611 21.2237C69.5822 20.6828 68.2726 20.9576 67.1924 21.6817C66.672 21.1892 66.0156 20.8802 65.1764 20.9269C64.4275 20.9688 63.8938 21.3213 63.4364 21.7857C62.9803 21.1277 62.243 20.6583 61.3244 20.593C60.0405 20.5017 58.8063 21.0168 57.7833 21.8142C57.1874 21.1303 56.3748 20.7371 55.4693 20.7333C54.8736 20.6251 54.2448 20.6678 53.6767 20.8394C52.8519 21.0886 52.1277 21.5555 51.5509 22.1614C50.6385 21.2873 49.5215 20.6583 48.2336 20.75C46.5667 20.8705 45.185 22.0966 44.5428 23.6056C43.4146 24.0577 42.3731 24.7025 41.5026 25.6219C41.4562 25.6703 41.4118 25.721 41.3653 25.7719C40.8963 25.945 40.4548 26.1904 40.066 26.5136C38.8343 27.5388 38.5597 29.0225 38.9674 30.4764C38.9104 30.7091 38.8618 30.9458 38.8174 31.1823C37.6639 31.3577 36.616 32.0237 36.0202 33.1079C35.2048 34.5958 35.3653 36.5569 36.2484 37.9774C36.6281 38.5884 37.11 39.1033 37.6512 39.5535C37.0392 40.9441 37.3329 42.6037 38.3197 43.7285C38.5601 44.1163 38.8552 44.4663 39.1874 44.7831C38.8208 46.2209 39.4728 47.7044 40.7742 48.4726L40.8855 48.7514C40.9042 48.7977 40.9232 48.8438 40.9428 48.8894C40.9572 48.9486 40.9749 49.0059 40.9924 49.0636C41.0235 49.5738 41.1914 50.0745 41.5248 50.5462C42.2074 51.513 43.0533 52.1434 43.5019 53.272L43.5469 53.3906C43.7398 53.9246 44.3626 54.3015 44.8933 54.1366C41.9467 60.1899 40.4019 66.9254 39.3414 73.5263C38.8126 76.8194 38.4044 80.1238 38.0735 83.441L37.7488 86.7443C37.4633 89.6805 37.2092 92.6264 37.2076 95.5723C37.2033 102.236 39.109 108.646 43.1991 113.949C47.0674 118.962 52.5414 122.596 58.7252 124.026C65.1097 125.502 72.5991 124.92 78.3245 121.543C80.0125 120.55 78.5336 118.161 76.816 118.961C73.5646 120.474 70.2604 121.598 66.6562 121.85C63.1428 122.097 59.621 121.657 56.2893 120.507C50.7773 118.603 46.0872 114.615 43.0724 109.648C41.5872 107.201 40.5118 104.544 39.9393 101.737C39.2266 98.2389 39.334 94.6229 39.5958 91.0797L39.6139 90.8382C40.1315 84.0114 40.8139 77.1425 41.9167 70.3838C42.8915 64.407 44.3905 58.5513 46.3364 52.8252C47.0987 52.1539 47.9514 51.5985 48.8638 51.1767C55.5456 50.8975 62.2394 50.979 68.9125 51.4402C74.6036 51.8361 80.2672 52.5058 85.8879 53.482L86.49 53.5877C87.7343 53.8094 89.116 53.9363 90.2886 54.4374C91.2942 54.8685 91.7019 55.697 91.9555 56.7155C92.5935 59.2919 92.6907 62.1115 92.7984 64.7534C92.904 67.3359 92.6653 69.9399 92.8724 72.514C93.0477 74.6676 93.5991 76.872 95.1942 78.4299C96.0287 79.2455 97.0555 79.6914 98.0188 80.3107C98.6421 80.7103 98.9062 81.1222 98.8259 81.862C98.6526 83.4809 97.3491 85.5204 98.8132 86.9069C99.0709 87.15 99.5167 87.1817 99.7702 86.9069C100.374 86.2498 101.209 85.7487 101.925 85.2182C102.225 84.9986 101.976 84.5717 101.636 84.7237C101.188 84.9247 100.732 85.1614 100.265 85.3685C101.296 84.5189 102.762 84.1023 103.983 83.855C104.598 83.7324 105.244 83.6965 105.884 83.7538C106.358 83.9797 106.841 84.1891 107.325 84.3939C107.94 84.652 108.561 84.8864 109.186 85.1085C111.356 86.8773 112.391 89.754 111.939 92.5671C111.692 94.1203 110.976 95.8092 109.626 96.7159C108.027 97.7895 105.884 97.3286 104.156 98.1256C102.538 98.8714 101.553 100.379 100.816 101.938L100.509 102.588C99.8243 104.026 99.1208 105.425 98.1857 106.734C97.104 108.249 95.7794 109.61 94.3343 110.779C93.6333 111.345 92.8861 111.854 92.1138 112.317L91.9026 112.442C91.1209 112.901 90.5611 113.338 90.5083 114.308C90.4914 114.647 90.7048 114.955 90.9794 115.131C92.1625 115.881 93.3393 114.943 94.3238 114.287C95.3864 113.581 96.4026 112.787 97.3428 111.92C99.1301 110.276 100.677 108.323 101.866 106.203C102.772 104.589 103.288 102.317 104.72 101.065C105.595 100.302 106.831 100.296 107.923 100.156C108.939 100.026 109.901 99.8143 110.805 99.3134C114.483 97.2696 115.522 92.3219 114.65 88.4986C114.502 87.8538 114.295 87.226 114.039 86.6216C115.408 86.8498 116.946 85.434 116.391 84.0051C116.348 83.8973 116.3 83.796 116.253 83.6923C117.155 83.0984 117.867 82.1982 118.205 81.0208C118.379 80.4121 118.404 79.7971 118.313 79.2032C118.751 78.9096 119.112 78.5057 119.344 78.0091C120.071 77.673 120.715 77.1702 121.1 76.4516C121.632 75.4602 121.565 74.5471 121.159 73.725C121.216 73.6216 121.271 73.516 121.324 73.408C122.813 72.4634 123.853 70.8358 123.734 69.0309C123.696 68.4328 123.548 67.8938 123.32 67.4079C123.339 67.3466 123.358 67.283 123.375 67.2217C124.622 66.5877 125.653 65.5459 126.02 64.1553C126.388 62.7559 125.955 61.361 125.089 60.2873C126.356 59.3597 127.119 58.0641 126.656 56.1047C126.468 55.3081 126.09 54.583 125.579 53.9722C125.581 53.9534 125.585 53.9344 125.589 53.9151L125.708 53.8231C127.273 52.5878 128.172 51.0135 127.212 49.0773C126.781 48.2068 126.166 47.6 125.443 47.2005L125.408 47.0864C125.925 45.9768 126.101 44.7446 125.743 43.4491C125.452 42.382 124.761 41.5321 123.878 40.968C123.937 40.4902 123.929 39.981 123.834 39.4292C123.675 38.4973 123.212 37.6836 122.536 37.1066C122.511 36.9839 122.479 36.8636 122.443 36.7429C122.215 36.0055 121.789 35.2045 121.294 34.6104C120.886 34.1179 120.43 33.9383 119.872 33.9193C119.906 33.4651 119.883 33.0041 119.79 32.537C119.505 31.0958 118.588 29.7409 117.229 29.1259C116.672 28.8743 116.084 28.8006 115.518 28.8617C115.036 27.8472 114.096 27.1119 112.941 26.9534C112.491 26.89 112.072 26.894 111.688 26.9513C111.47 26.8496 111.244 26.7589 111.008 26.6763C110.851 26.6214 110.693 26.5706 110.534 26.5201C110 25.8565 109.296 25.3258 108.474 25.0068C107.526 24.637 106.56 24.6748 105.705 24.9855L105.432 24.9284C105.005 24.1887 104.325 23.6159 103.279 23.356C102.092 23.0622 100.873 23.4722 99.9393 24.2185C99.935 24.2185 99.9308 24.2185 99.9245 24.2162C99.4364 23.1235 98.6019 22.3626 97.2012 22.4155C96.3287 22.4493 95.5407 22.8828 94.9322 23.4999C94.5942 23.4574 94.2562 23.4194 93.916 23.3816C93.5569 22.9608 93.1576 22.5679 92.716 22.2149C91.9935 21.6356 91.0533 21.6823 90.521 22.4979C90.4048 22.6754 90.297 22.8551 90.1893 23.0347L89.7012 23.0009C89.1266 22.2253 88.3428 21.7011 87.2695 21.6591C86.285 21.6187 85.5836 22.1008 85.0491 22.7748C84.6139 22.7642 84.1766 22.756 83.7393 22.7494C83.2301 22.1597 82.6301 21.6398 81.9456 21.2087C81.4217 20.879 80.6484 20.9912 80.2238 21.4308C79.9369 21.7296 79.6698 22.0416 79.4216 22.3645C78.7817 21.6468 77.9174 21.174 76.9939 20.9933ZM108.088 88.1075C107.101 87.5453 105.774 88.154 104.82 88.6316C103.655 89.2129 102.5 90.09 101.788 91.189C100.818 92.6853 103.098 93.8943 104.118 92.5522C104.746 91.7258 105.246 90.8931 106.007 90.1703C106.702 89.5066 107.71 89.0628 108.109 88.1878C108.124 88.1582 108.12 88.1244 108.088 88.1075ZM107.394 51.7868L107.376 51.734C107.095 50.9662 108.32 50.6352 108.598 51.3967C109.02 52.5509 108.533 53.8056 107.394 54.304C107.078 54.4422 106.717 54.3943 106.527 54.0766C106.367 53.8092 106.441 53.346 106.754 53.2092C107.395 52.9287 107.61 52.4336 107.394 51.7868ZM117.944 49.6398C117.331 49.0987 118.231 48.2045 118.841 48.7432C119.41 49.2458 119.832 49.9285 119.722 50.7136C119.611 51.5138 119.007 52.0787 118.347 52.478C117.648 52.9013 117.01 51.8053 117.708 51.383L117.786 51.335C118.079 51.153 118.422 50.9028 118.471 50.5448C118.524 50.1643 118.202 49.8674 117.944 49.6398ZM114.464 40.0927L114.421 40.0607C113.762 39.5907 114.395 38.4904 115.06 38.9657C115.671 39.4017 116.161 39.9682 116.212 40.7493C116.262 41.5085 115.876 42.1666 115.371 42.7007C114.809 43.2948 113.914 42.397 114.475 41.8042C115.021 41.2264 115.128 40.5959 114.464 40.0927Z" fill="black"/>
<path fill-rule="evenodd" clip-rule="evenodd" d="M57.4781 104.137C57.154 103.574 56.4078 103.052 55.725 103.132C52.6661 103.49 52.6713 107.201 53.8525 109.366C54.8998 111.287 57.0672 112.414 59.2365 112.25C61.5154 112.077 63.4572 110.736 64.3118 108.603C64.8769 107.193 65.138 104.588 63.6346 103.64C63.6068 103.623 63.5607 103.627 63.5385 103.653C62.8177 104.491 62.7894 105.751 62.1583 106.685C61.5714 107.554 60.6596 108.271 59.5914 108.382C58.7937 108.464 57.9866 108.177 57.6746 107.46C57.5058 107.073 57.525 106.862 57.5884 106.595L57.6461 106.364C57.8459 105.552 57.9357 104.934 57.4781 104.137ZM56.6605 87.8666C55.0651 88.8368 52.6343 91.0989 54.3505 93.5039C56.3707 95.6245 59.2793 93.1931 60.7126 92.0934C62.0416 91.2412 63.5349 93.4331 62.3018 94.4282C51.9447 102.099 47.7415 88.1203 55.8535 86.726C56.7467 86.5724 57.0784 87.5665 56.6605 87.8666ZM73.5077 81.2145C72.5285 79.7447 70.2932 79.9611 69.7539 81.7052C69.4617 82.6499 69.8652 83.4992 69.8443 84.4426C69.8268 85.2396 69.8789 86.1277 70.1232 86.8996C70.6801 88.6597 72.2625 89.9029 74.1345 89.8513C76.0004 89.7999 77.6439 88.6185 78.4254 86.9545C79.2096 85.2842 79.0435 83.5556 78.471 81.8572C78.4435 81.7756 78.3366 81.7361 78.2722 81.8048C77.5954 82.5242 77.1 83.2838 76.5874 84.0895L76.062 84.9152C75.6605 85.537 75.0771 86.3314 74.3274 86.2815L74.2149 86.2704C74.0066 86.2525 74.0385 86.2938 73.8778 86.0098C73.8035 85.8783 73.817 85.634 73.7811 85.4789L73.7686 85.4265L73.7754 85.3982C73.7912 85.3231 73.807 85.1815 73.8198 84.9358L73.8225 84.8816C73.8768 83.7325 74.2015 82.2558 73.5077 81.2145ZM48.6854 82.1929C48.861 80.3132 46.2193 79.8958 45.3411 81.2867C44.883 82.012 44.7497 82.9231 44.6484 83.7864L44.601 84.1961C44.497 85.0827 44.4559 86.0051 44.8406 86.8321C45.4465 88.1346 46.7642 88.8232 48.1856 88.7141C49.543 88.6097 50.7814 87.8225 51.4342 86.6273C52.0163 85.5608 52.5949 83.4786 51.888 82.3662C51.8454 82.2988 51.76 82.2902 51.7015 82.3421C51.0335 82.9354 50.9247 84.0175 50.5275 84.7904C50.1178 85.5876 49.4965 86.3646 48.5549 86.4857C47.654 86.6015 47.3099 86.1092 47.5397 85.2501C47.8361 84.1409 48.5739 83.3864 48.6854 82.1929ZM72.7939 70.039L72.3619 69.8734C70.8817 69.3141 68.8495 68.6675 67.6461 69.8716C66.9037 70.6141 66.7624 71.7078 67.2922 72.6139C67.9343 73.7114 69.0859 73.7384 70.198 73.9001C71.4629 74.084 72.7493 74.4336 73.9269 74.9319C75.2534 75.4935 76.4845 76.1935 77.6906 76.9753C78.837 77.7182 79.9793 78.9324 81.3515 79.1613C81.4075 79.1706 81.471 79.1465 81.4856 79.085C81.7972 77.7429 80.9313 76.4222 80.1584 75.3751C79.2234 74.1075 78.0903 73.067 76.824 72.1341C75.6018 71.2335 74.2053 70.5828 72.7939 70.039ZM45.9063 74.8106L45.7744 74.7875C44.8768 74.638 44.0634 74.6724 43.3869 75.3836C42.8706 75.9261 42.6716 76.6293 42.9177 77.3466C43.1448 78.0083 43.6527 78.6806 44.3898 78.8193C46.8783 79.2876 49.6348 79.2103 52.1357 78.8556C53.28 78.6933 54.4346 78.4947 55.5491 78.1814L56.0619 78.0327C56.9923 77.7668 58.0576 77.489 58.7334 76.8045C58.9764 76.5585 58.8363 76.2063 58.5456 76.0924C57.3663 75.6304 55.7499 75.8762 54.4924 75.8401C53.0296 75.7982 51.5645 75.6885 50.1086 75.5374C48.686 75.3895 47.3093 75.068 45.9063 74.8106Z" fill="black"/>
<path fill-rule="evenodd" clip-rule="evenodd" d="M75.4819 109.599C73.7714 105.59 70.0382 102.644 65.74 101.567C62.5836 100.778 59.2711 100.803 56.0536 101.116C54.3678 101.279 52.5596 101.412 50.9709 102.039C49.6142 102.574 48.5086 103.585 47.6774 104.772C46.6878 106.179 46.0148 107.789 45.5422 109.439C45.4751 109.674 45.412 109.91 45.3531 110.148C45.5586 111.393 45.9949 112.453 47.1478 113.236C48.2728 114 49.6151 114.313 50.9531 114.424C51.0844 114.361 51.2112 114.296 51.3274 114.23C53.4126 113.035 54.8803 110.213 57.5121 110.595C59.8608 110.936 61.4069 113.893 62.8037 115.626C67.2872 116.149 71.7673 114.801 75.4152 112.237C75.6005 111.359 75.6112 110.473 75.4819 109.599ZM42.306 106.558C42.6647 105.551 43.1164 104.576 43.6519 103.657C45.4221 100.619 48.1396 98.1982 51.3656 96.8145C58.997 93.5456 68.8712 95.8499 75.0342 101.211C77.1394 103.044 79.268 105.737 79.9118 108.634C80.104 108.672 80.2854 108.772 80.4348 108.913C84.8875 106.108 89.4729 103.41 93.0609 99.5227C95.6666 96.6981 97.479 93.3554 98.5888 89.6823C98.6795 89.3799 99.1669 89.4241 99.1521 89.7586C99.1479 89.8369 99.1437 89.915 99.1395 89.9933C99.1859 89.8494 99.4053 89.9235 99.4222 90.0631C100.019 94.5252 100.766 99.2561 100.078 103.742C99.6669 106.418 98.4516 108.377 96.827 110.493C95.0864 112.761 93.1158 114.87 91.1008 116.893C89.8223 118.177 88.4867 119.658 86.9212 120.6C85.1004 121.694 83.0348 122.525 81.0916 123.369C79.1147 124.231 77.1082 125.026 75.0637 125.716C70.9769 127.1 66.7529 128.056 62.4551 128.475C59.0139 128.809 55.0811 129.173 51.7834 127.878C49.2557 126.886 47.2155 125.092 45.5972 122.934C43.8355 120.583 42.4427 117.905 41.6729 115.082C40.8728 112.149 42.1374 107.03 42.306 106.558Z" fill="black"/>
</g>
<defs>
<clipPath id="clip0">
<path d="M0 85C0 38.0558 38.0558 0 85 0V0C131.944 0 170 38.0558 170 85V85C170 131.944 131.944 170 85 170V170C38.0558 170 0 131.944 0 85V85Z" fill="white"/>
</clipPath>
</defs>
</svg>
