<svg width="375" height="596" viewBox="0 0 375 596" fill="none" xmlns="http://www.w3.org/2000/svg">
<g clip-path="url(#clip0)">
<path fill-rule="evenodd" clip-rule="evenodd" d="M142.388 403.538C141.885 407.958 140.262 417.099 139.465 421.589C139.234 422.895 139.072 423.809 139.025 424.109C134.517 447.688 132.671 471.647 131.816 495.602C131.564 498.719 131.689 501.828 132.231 504.908C132.258 505.066 132.287 505.225 132.317 505.382C132.469 505.351 132.622 505.323 132.778 505.298C139.119 504.267 143.39 508.899 147.517 513.267C149.131 514.975 150.722 516.656 152.392 517.998C156.4 521.576 160.738 524.76 165.284 527.618C167.142 528.713 169.251 530.007 170.674 531.723C171.643 532.891 172.289 534.259 172.273 535.902L172.267 536.466L172.824 536.38C172.991 536.354 173.13 536.364 173.242 536.417C173.362 536.474 173.444 536.578 173.51 536.7C173.807 537.244 173.805 538.107 173.822 538.762C173.826 538.929 173.83 539.085 173.837 539.223C173.887 541.187 173 542.483 171.664 543.369C169.584 544.749 166.481 545.184 163.965 545.551C163.499 545.619 163.053 545.684 162.633 545.752C147.159 547.411 131.493 543.221 117.176 537.544C117.136 537.528 117.096 537.512 117.055 537.496C117.016 537.503 116.977 537.509 116.937 537.515C115.797 537.665 114.815 537.057 114.039 536.177C112.966 534.961 112.268 533.203 112.101 531.839C111.955 531.178 112.047 530.564 112.129 529.955C112.236 529.146 112.327 528.346 112.075 527.561C110.1 523.069 109.841 518.183 110.124 513.396C110.046 507.471 111.406 505.799 112.514 504.474C113.443 503.361 114.194 502.458 113.952 499.932C113.922 499.559 113.804 497.159 113.855 495.967L114.226 495.914C113.638 487.44 111.508 479.048 109.376 470.662C105.904 457.004 102.417 443.361 105.762 429.4C106.818 425.096 108.907 421.286 111.002 417.452C112.331 415.02 113.665 412.578 114.752 410.001C114.772 409.955 114.791 409.908 114.81 409.862C114.8 409.816 114.79 409.77 114.781 409.724C114.575 408.656 114.83 407.569 115.072 406.474C115.293 405.473 115.51 404.466 115.458 403.46C115.439 401.568 115.067 399.758 114.676 397.924C114.656 397.83 114.636 397.737 114.615 397.643C114.524 397.617 114.432 397.591 114.341 397.564C112.55 397.046 110.8 396.41 109.119 395.579L108.669 395.356L108.469 395.817C108.405 395.963 108.312 396.075 108.2 396.151C108.076 396.236 107.932 396.278 107.787 396.284C107.629 396.29 107.47 396.254 107.332 396.177C107.223 396.117 107.127 396.031 107.059 395.92C106.868 395.135 107.082 394.306 107.273 393.485C107.399 392.944 107.523 392.404 107.564 391.878C107.627 391.577 107.68 391.225 107.736 390.85C107.894 389.804 108.058 388.54 108.624 387.788C108.784 387.575 108.981 387.408 109.234 387.325C109.476 387.246 109.764 387.245 110.106 387.324C110.307 387.37 110.479 387.433 110.624 387.513C110.646 387.311 110.668 387.109 110.689 386.908C111.593 378.364 111.765 369.747 111.263 361.171C111.225 360.506 111.182 359.842 111.134 359.178C110.865 359.789 110.602 360.401 110.345 361.014C108.804 364.686 107.453 368.496 106.102 372.305C104.211 377.635 102.322 382.962 99.9116 387.901C99.8724 387.981 99.8331 388.062 99.7939 388.142C99.8405 388.192 99.8787 388.253 99.9103 388.318C99.9673 388.437 99.997 388.561 99.9737 388.685C99.9513 388.805 99.8808 388.919 99.7691 389.029C98.8742 389.897 98.4081 391.059 97.9572 392.223C97.9344 392.282 97.9117 392.34 97.8888 392.399C97.5498 393.47 96.9938 394.441 96.2389 395.185C95.5685 395.846 94.7401 396.327 93.7755 396.509C93.6743 396.528 93.5733 396.544 93.4726 396.556C93.4476 396.661 93.423 396.766 93.3986 396.87C93.2785 397.381 93.1535 397.92 93.023 398.482C91.4953 405.066 89.2109 414.941 85.0932 422.209C82.4578 426.86 79.0742 430.458 74.6009 431.302C74.2752 431.363 73.9496 431.409 73.6244 431.44C73.896 431.577 74.1235 431.763 74.2812 432.021C74.7961 432.865 74.2823 434.015 73.8937 435.069C73.6643 435.691 73.4456 436.296 73.3595 436.831C72.9417 438.026 72.592 439.253 72.2422 440.482C71.6008 442.735 70.9614 444.994 69.8749 447.056C69.8341 447.134 69.7928 447.211 69.7511 447.287C69.7947 447.339 69.8285 447.394 69.8542 447.458C69.8975 447.566 69.9057 447.67 69.8936 447.799C69.8828 447.915 69.8597 448.008 69.8101 448.096C69.9152 448.138 70.0186 448.19 70.1197 448.252C70.6037 448.549 70.9 449.001 71.047 449.517C71.2253 450.142 71.1899 450.858 70.9992 451.536C70.8003 452.243 70.431 452.912 69.9354 453.398C69.5197 453.805 69.0133 454.084 68.4428 454.117C68.4044 454.12 68.3661 454.121 68.3279 454.121C68.2972 454.142 68.2663 454.161 68.2353 454.179C67.9831 454.321 67.6318 454.398 67.3031 454.404L67.19 455.345C67.2615 455.425 67.2721 455.466 67.267 455.509C66.783 461.333 65.3992 467.011 64.0229 472.668C63.7674 473.718 63.5121 474.767 63.2626 475.816C62.7773 477.488 62.4185 479.21 62.0599 480.934C61.4713 483.763 60.8857 486.597 59.711 489.206C59.6818 489.27 59.6524 489.335 59.6228 489.399C59.6517 489.461 59.6793 489.523 59.7056 489.586C60.2919 490.993 60.1721 492.619 59.8809 494.084C59.4069 494.626 58.5165 494.58 57.7766 494.603C57.4925 494.611 57.2194 494.62 56.974 494.645C56.8172 494.661 56.6508 494.687 56.4782 494.716C56.5034 494.873 56.5273 495.031 56.5497 495.189C56.9087 497.713 56.895 500.284 56.883 502.845C56.8763 504.292 56.8697 505.737 56.9281 507.169C56.9349 507.338 56.9428 507.507 56.9516 507.676C57.1059 507.653 57.266 507.636 57.4321 507.627C59.0512 507.539 60.1761 508.205 60.9947 509.249C62.2598 510.861 62.8308 513.316 63.3327 515.409C63.4694 515.979 63.6001 516.523 63.7358 517.021C64.7673 520.478 66.0874 523.808 67.4075 527.138C69.1672 531.575 70.9277 536.009 71.9792 540.718L72.1395 541.436L72.7306 540.998C72.7836 540.959 72.846 540.931 72.915 540.928C72.9835 540.926 73.0553 540.948 73.1293 540.991C75.2421 542.261 75.2651 544.878 75.354 547.083C75.3619 547.278 75.3696 547.47 75.3784 547.659C75.3576 548.124 75.3917 548.626 75.4276 549.135C75.5135 550.356 75.6921 551.69 74.6597 552.471C67.3656 557.445 57.5026 557.302 49.0718 555.996C45.7109 555.382 42.4298 554.358 39.3145 552.956C38.1369 552.557 37.2561 552.134 36.7173 551.44C36.2598 550.85 36.0706 550.067 36.1448 548.98C35.9373 547.002 36.1153 545.12 36.2903 543.235C36.442 541.602 36.5922 539.966 36.5114 538.32C36.7587 531.998 38.2046 525.748 39.626 519.593C39.6829 519.346 39.7399 519.099 39.7967 518.853C39.8798 518.592 39.9636 518.326 40.0487 518.055C41.1436 514.575 42.4355 510.311 45.58 508.361C45.6671 508.342 45.8077 508.338 45.9634 508.325C46.3784 508.29 46.8686 508.234 47.1602 508.093C47.168 508.089 47.1758 508.085 47.1834 508.081L47.0044 508.687L47.9404 508.286C48.1565 508.193 48.3826 508.124 48.6145 508.08C48.6909 508.066 48.7678 508.054 48.8452 508.045C48.883 507.97 48.9202 507.894 48.957 507.818C50.2301 505.184 50.8215 502.314 51.4078 499.444C51.7701 497.671 52.1316 495.898 52.663 494.185C52.7087 494.037 52.7557 493.89 52.8038 493.744C52.6598 493.699 52.5177 493.65 52.3781 493.596C50.8985 493.026 49.5562 491.887 49.1403 490.346C49.2405 489.911 49.4479 489.435 49.7614 489.078C49.9938 488.814 50.2881 488.614 50.6528 488.591L51.3099 488.549L51.0675 487.937C50.8272 487.33 50.7927 486.639 50.8662 485.987C52.1048 478.349 53.7549 470.777 55.5324 463.244C56.2089 460.443 56.9327 457.652 57.7498 454.888C57.8696 454.555 57.9644 454.18 58.0608 453.794C58.2606 452.995 58.4429 452.12 59.0248 451.617C59.163 451.497 59.3188 451.403 59.4867 451.328C59.3371 451.193 59.1907 451.055 59.0478 450.914C57.8056 449.689 56.7521 448.201 56.722 446.529C56.6638 445.826 56.9962 445.102 57.5096 444.652C57.6784 444.504 57.8681 444.386 58.0727 444.313L58.86 444.798C59.0485 444.914 59.2287 445.046 59.4091 445.178C59.5612 445.289 59.7132 445.4 59.8689 445.503L61.7508 446.747L60.5358 444.846C59.5801 443.35 60.0541 441.528 60.4387 439.855C60.5426 439.403 60.6443 438.96 60.7215 438.532C60.8229 438.076 60.9226 437.618 61.0224 437.16C61.6261 434.385 62.2352 431.574 63.2963 428.961C63.3395 428.855 63.3834 428.749 63.4275 428.642C63.3404 428.569 63.2534 428.495 63.1667 428.42C59.0355 424.831 57.4189 420.403 57.21 415.654C56.9089 408.809 59.5005 401.306 61.796 394.626C62.3796 392.928 62.945 391.283 63.4415 389.714C63.4755 389.606 63.5095 389.498 63.5433 389.39C63.4502 389.317 63.3574 389.247 63.2648 389.181C62.7023 388.776 62.0279 388.401 61.3321 388.015C59.6051 387.059 57.6436 386.064 57.383 384.119C57.4118 383.075 57.8209 382.066 58.2123 381.075C58.3713 380.672 58.529 380.272 58.6639 379.874C58.7683 379.406 59.0873 378.798 59.4934 378.523C59.5814 378.463 59.674 378.415 59.7731 378.426C59.8612 378.436 59.9424 378.494 60.0259 378.583L60.5878 379.177L60.8304 378.396C60.9544 377.997 61.079 377.597 61.2037 377.196C63.5818 369.563 65.9946 361.788 65.7773 353.725C65.7742 353.607 65.7704 353.489 65.7661 353.373C65.6488 353.334 65.5294 353.301 65.4078 353.272C64.58 353.079 63.7387 353.155 62.9085 353.238C61.8652 353.343 60.8281 353.487 59.892 352.787C51.3646 346.261 52.2927 329.626 53.0228 319.916C53.0323 319.79 53.0419 319.663 53.0515 319.535C52.9333 319.502 52.8152 319.466 52.6976 319.426C52.3016 319.294 51.9228 319.131 51.5783 318.927L51.2956 318.758L51.0375 318.962C50.9125 318.968 50.8392 318.893 50.7579 318.807C50.4248 318.453 50.0954 317.81 49.7676 317.021C48.6071 314.227 47.5687 309.655 47.2621 308.308C47.2544 308.275 47.2472 308.243 47.2393 308.208C41.0338 280.071 43.4079 251.059 45.7336 222.551C45.8998 220.514 46.0658 218.479 46.2285 216.448C46.7292 212.693 46.921 208.849 47.1127 204.996C47.5049 197.114 47.8886 189.195 50.9971 181.952C53.073 176.661 58.925 175.432 63.8948 174.319C64.0313 174.289 64.1671 174.258 64.3023 174.228C66.8906 173.457 69.493 172.861 72.0921 172.266C76.0752 171.354 80.05 170.443 83.844 168.947C84.0494 168.866 84.254 168.783 84.4579 168.699C84.3123 168.55 84.1782 168.391 84.0572 168.222C83.391 167.294 83.1301 166.08 83.1985 164.875C83.2696 163.624 83.6959 162.378 84.4269 161.454C84.7136 161.243 85.0506 161.221 85.3922 161.277C86.062 161.386 86.7607 161.783 87.329 162.097C87.3852 162.128 87.4402 162.158 87.4939 162.187L87.9206 162.421L88.147 161.99C89.0408 160.29 89.6611 158.416 90.2676 156.577C90.6178 155.515 90.9637 154.465 91.3593 153.469C92.5704 150.908 94.6482 149.68 97.0453 149.207C100.658 148.494 104.979 149.457 108.322 150.291C108.441 150.322 108.562 150.353 108.683 150.383C110.369 150.811 112.177 151.257 113.579 152.31C115.913 154.175 116.409 157.074 116.936 159.919C117.203 161.359 117.471 162.792 117.941 164.099C117.994 164.246 118.05 164.392 118.108 164.538C118.241 164.478 118.371 164.432 118.498 164.403C120.346 163.98 124.403 166.384 125.801 167.664C126.166 167.907 126.334 168.148 126.421 168.42C126.565 168.872 126.519 169.391 126.485 169.902C126.47 170.134 126.455 170.366 126.453 170.591C126.451 170.724 126.453 170.858 126.458 170.993C126.585 171.018 126.713 171.043 126.84 171.067C127.663 171.227 128.503 171.384 129.354 171.542C135.441 172.676 142.079 173.894 146.815 177.247C150.126 179.592 152.486 182.994 153.038 188.166C154.788 195.64 155.717 203.192 156.577 210.748C156.693 211.746 156.807 212.745 156.921 213.744C158.307 225.864 159.703 238.053 163.468 249.704C163.837 250.61 164.196 251.482 164.554 252.354C170.183 266.045 175.896 279.921 177.247 294.808C177.98 301.922 177.869 309.11 176.652 316.162C176.581 316.542 176.28 316.808 175.936 316.948C175.56 317.102 175.108 317.116 174.77 316.902L172.969 315.765L174.111 317.564C176.515 321.349 174.501 328.005 173.139 332.706C172.937 333.402 172.747 334.057 172.584 334.657C171.537 338.128 169.845 341.908 167.186 343.913C166.18 344.671 165.034 345.17 163.728 345.281C162.529 345.383 161.2 345.158 159.728 344.529C159.543 344.45 159.365 344.368 159.192 344.285C159.152 344.481 159.112 344.677 159.071 344.873C156.179 358.934 152.952 372.871 149.121 386.712L148.587 388.641L149.935 387.162C150.151 386.926 150.397 386.788 150.654 386.737C150.943 386.679 151.24 386.73 151.513 386.854C151.825 386.995 152.106 387.23 152.316 387.526C152.508 387.796 152.64 388.117 152.677 388.466C152.567 390.357 151.957 392.174 151.354 393.988C151.032 394.956 150.711 395.923 150.461 396.898C150.181 397.904 149.59 398.522 148.832 398.912C147.673 399.508 146.158 399.604 144.728 399.71C143.982 399.765 143.257 399.819 142.606 399.93C142.508 399.947 142.41 399.965 142.31 399.985C142.282 400.08 142.254 400.174 142.227 400.269C142.034 400.936 141.866 401.609 141.697 402.283C141.562 402.822 141.427 403.361 141.28 403.896L142.199 404.162C142.266 403.94 142.329 403.732 142.388 403.538ZM71.0256 319.793C71.0574 315.755 72.4961 311.947 73.9218 308.145C74.516 306.561 75.1094 304.978 75.6052 303.381C75.6346 303.286 75.6638 303.191 75.6926 303.096C75.6179 303.021 75.5424 302.949 75.4662 302.881C75.1025 302.558 74.6532 302.263 74.195 301.965C73.5555 301.55 72.8885 301.132 72.4917 300.568C72.2476 300.221 72.1211 299.813 72.2056 299.256C72.4359 295.094 72.7197 290.934 73.0595 286.78C73.139 285.893 73.2194 285.006 73.2998 284.119C74.7175 268.475 76.1457 252.652 73.3378 237.086C73.2141 236.377 73.0699 235.675 72.9256 234.974C72.8286 234.502 72.7316 234.03 72.6411 233.557C72.6281 233.488 72.6135 233.395 72.5965 233.288C72.5156 232.777 72.3804 231.964 72.1074 231.37C71.8607 230.834 71.4996 230.491 71.067 230.416C70.9144 230.389 70.7589 230.397 70.6033 230.437C70.5754 230.547 70.5476 230.661 70.5201 230.774C65.8176 250.149 66.9977 269.914 68.1826 289.641C68.7277 298.717 69.2726 307.784 69.2389 316.801C69.2385 316.89 69.2382 316.979 69.2377 317.067C69.2938 317.085 69.3476 317.114 69.396 317.158C69.5181 317.268 69.5517 317.423 69.5272 317.567C69.4976 317.742 69.388 317.909 69.2198 317.997C69.161 318.028 69.0985 318.048 69.0352 318.058C69.0164 318.142 68.9971 318.227 68.9773 318.311C68.8868 318.697 68.7852 319.079 68.672 319.46C68.6442 319.553 68.6157 319.646 68.5866 319.739C68.658 319.807 68.7294 319.875 68.8009 319.943C69.2813 320.4 69.7648 320.853 70.2532 321.302L71.1245 322.102L71.0542 320.921C71.0318 320.543 71.0226 320.167 71.0256 319.793Z" fill="white"/>
<path fill-rule="evenodd" clip-rule="evenodd" d="M173.649 322.117C171.863 328.124 170.224 337.018 165.677 341.441C164.077 342.734 162.197 341.945 160.361 341.787C161.545 334.838 162.361 327.832 163.021 320.816C166.762 320.098 170.369 318.793 173.709 316.965C174.577 318.42 174.035 320.632 173.649 322.117ZM158.737 339.949C157.014 349.876 154.664 359.677 152.39 369.465C151.185 375.431 148.619 381.584 148.067 387.472C136.461 392.106 123.904 390.305 111.9 388.413C112.085 388.257 112.226 388.018 112.246 387.726C112.544 387.59 112.788 387.32 112.833 386.917C113.509 378.072 114.744 368.452 112.656 359.895C114.036 358.65 115.269 357.204 116.419 355.746C117.465 354.364 115.289 352.537 114.066 353.542C115.758 349.311 117.506 345.103 119.337 340.929C119.827 339.81 118.178 338.836 117.684 339.962C110.862 355.58 105.108 371.565 99.1579 387.539C98.8267 386.881 97.4952 386.96 97.9779 387.895C85.7888 388.914 73.0659 385.803 61.8513 380.742C64.5313 372.131 67.5843 363.359 67.4052 354.247C70.0302 354.369 73.5771 352.875 74.9667 350.614C76.3555 351.693 78.0585 350.368 78.7904 349.109C80.4816 345.808 79.5456 341.778 78.5672 338.394C82.0199 338.937 86.343 335.734 83.9806 332.155C80.3305 328.951 76.1647 326.222 72.586 322.846C72.28 316.516 74.7316 310.609 76.9583 304.67C88.2094 312.603 99.2403 321.139 111.055 328.142C113.086 328.349 114.727 326.811 116.252 325.688C120.603 322.457 124.995 319.27 129.283 315.952C129.753 316.126 130.293 316.083 130.694 315.814C133.432 318.748 136.326 321.458 139.035 324.407C140.662 325.911 141.838 328.26 144.109 328.837C145.171 329.031 145.847 328.591 146.528 327.854C150.66 323.48 155.105 319.418 159.386 315.194C159.937 315.911 160.999 315.669 161.528 314.982C161.098 323.342 160.002 331.676 158.737 339.949ZM151.086 388.474C150.955 388.586 151.11 388.49 151.234 388.676C151.36 389.876 150.655 391.096 150.419 392.274C149.636 394.006 149.712 398.013 147.401 398.074C134.634 400.297 121.735 398.403 109.242 395.546C109.405 393.01 110.19 390.398 109.678 387.887C109.887 387.699 110.108 387.568 110.356 387.517C110.286 387.872 110.334 388.307 110.606 388.484C121.294 393.18 136.779 394.151 147.873 389.785C149.039 390.155 149.911 388.651 148.997 387.821C149.151 387.801 149.3 387.746 149.426 387.651C149.244 388.444 150.405 389.056 151.086 388.474ZM115.543 398.593C115.868 398.679 116.195 398.759 116.522 398.837C116.271 399.436 116.633 400.302 116.534 400.976C116.305 400.14 115.981 399.333 115.543 398.593ZM96.4681 391.715C95.9597 393.175 95.1525 394.797 93.4479 395.029C93.0493 394.868 92.5901 394.897 92.2903 395.171C81.179 395.021 67.5835 391.67 59.1229 384.351C59.0211 383.349 59.4973 382.341 59.5968 381.345C59.7365 380.95 59.8966 378.463 60.426 378.925C60.0224 379.914 59.6738 381.365 61.2137 381.219C72.1076 387.506 84.9811 389.901 97.4631 389.508C97.066 390.205 96.7662 390.961 96.4681 391.715ZM73.385 433.277C72.4292 436.704 71.4066 440.114 70.3139 443.499C69.2626 448.52 66.7318 449.194 62.9707 445.905C60.2491 444.256 61.3968 441.295 61.8086 438.744C62.3171 435.607 62.9772 432.493 63.4524 429.352C66.4502 431.575 70.2246 432.666 73.9335 432.179C73.6369 432.466 73.5078 432.837 73.385 433.277ZM68.3752 449.354C68.3418 449.344 68.3067 449.333 68.2732 449.322C68.3115 449.309 68.3481 449.295 68.3848 449.282C68.3816 449.306 68.3784 449.33 68.3752 449.354ZM66.4155 455.816C65.2296 466.371 61.8037 476.512 59.4571 486.842C59.1921 488.983 57.5574 489.765 55.5866 489.087C54.7768 488.876 53.5378 488.576 52.9446 487.94C52.2685 487.212 52.7277 485.794 52.8776 484.945C53.8089 479.697 54.8549 474.471 55.9264 469.248C57.2024 463.574 58.2395 457.788 59.6338 452.177C61.6545 453.892 64.2282 455.097 66.9274 455.148C66.6659 455.244 66.4474 455.467 66.4155 455.816ZM58.9904 493.539C58.831 493.574 58.6715 493.603 58.5104 493.629C58.7528 492.86 58.9847 491.79 58.5535 491.073C58.6524 491.038 58.748 491 58.8405 490.957C58.9824 491.823 59.0813 492.654 58.9904 493.539ZM57.6166 515.302C60.1862 516.971 61.6862 519.78 63.0014 522.46C63.8466 524.18 64.5354 526.255 65.8286 527.721C66.3644 529.165 66.9034 530.607 67.4168 532.058C68.9533 536.835 70.8707 541.903 70.6857 546.941C70.6873 546.936 70.6873 546.93 70.6905 546.921C70.6731 547.048 70.6304 547.17 70.6012 547.293C70.7176 547.212 70.8522 547.134 70.6697 547.268C70.653 547.254 70.6018 547.3 70.5996 547.297C70.5996 547.3 70.598 547.303 70.598 547.306C70.6091 547.297 70.6203 547.289 70.6347 547.279C70.6225 547.288 70.6074 547.303 70.5948 547.314C70.5948 547.317 70.5932 547.322 70.5916 547.327C70.582 547.335 70.5114 547.387 70.5262 547.368C70.3588 547.445 70.2217 547.55 70.0941 547.678C60.2481 549.813 49.3779 550.193 40.274 545.301C36.7759 538.178 40.3644 526.276 41.8 518.606C46.3833 515.992 52.3848 512.675 57.6166 515.302ZM61.5802 512.474C61.9517 514.114 62.2021 515.77 62.5449 517.409C61.5381 516.321 61.0195 514.955 60.1406 513.804C59.5992 512.668 59.0185 511.035 57.6719 510.824C57.635 509.903 57.6097 508.98 57.5969 508.058C59.8867 508.342 61.0938 510.315 61.5802 512.474ZM74.0551 548.439C74.028 547.989 73.792 547.542 73.4061 547.297C73.4946 545.709 73.2236 544.168 72.9756 542.603C74.6424 544.384 73.9327 547.238 74.2052 549.471C74.1835 550.359 74.6142 551.491 73.5816 551.95C70.3573 554.18 66.449 555.22 62.5965 555.668C54.1917 556.632 45.454 555.085 37.9445 551.176C36.9396 549.814 37.2915 546.503 37.1568 544.759C37.6319 546.315 38.4656 547.7 40.1149 548.186C50.3311 553.107 62.3547 552.515 73.1016 549.745C73.8057 549.556 74.0889 549.007 74.0551 548.439ZM47.0821 514.002C47.1411 513.93 47.1969 513.858 47.2543 513.785C47.6131 513.767 47.9719 513.735 48.3306 513.696C47.7939 513.91 47.2656 514.143 46.7504 514.404C46.862 514.271 46.9736 514.137 47.0821 514.002ZM51.4337 505.828C52.3095 502.131 52.6246 498.328 53.0697 494.559C54.3586 495.016 55.6505 495.331 57.0051 495.368C55.3455 500.399 55.4309 505.907 55.4759 511.161C53.4391 511.507 51.2457 511.7 49.2491 511.019C50.2505 509.414 50.9696 507.669 51.4337 505.828ZM65.1745 350.583C64.0567 350.471 62.9453 350.55 61.8387 350.709C55.2888 346.256 54.2562 327.993 53.228 320.283C57.9151 321.481 62.8795 321.158 67.4293 319.581C67.515 320.421 68.4739 320.854 69.0573 320.287C72.1427 325.782 76.7594 330.182 81.5221 334.115C81.4663 333.932 81.4264 334.268 81.4966 334.141C80.89 335.532 78.6625 334.81 77.609 335.779C76.9329 336.283 76.791 337.165 77.2215 337.754C76.0819 340.905 77.8936 344.751 76.1882 347.74C75.8051 348.185 75.3064 348.506 74.9764 349.005C72.7066 347.449 70.6383 350.74 68.3398 350.885C68.3557 350.885 68.3717 350.885 68.3892 350.883C68.0354 350.922 67.4675 350.903 67.1566 350.859C66.4972 350.757 65.8396 350.649 65.1745 350.583ZM69.3967 240.493C69.8782 237.352 70.4395 234.23 71.1682 231.138C72.0469 231.291 72.243 233.305 72.3546 233.898C76.116 250.926 74.4873 268.449 72.8759 285.636C72.4854 290.244 72.1633 294.861 71.9113 299.481C71.586 301.605 74.0283 302.326 75.3317 303.49C73.5186 309.33 70.3901 314.98 70.76 321.2C70.2737 320.754 69.7921 320.302 69.3138 319.848C69.4349 319.457 69.5386 319.066 69.6263 318.672C70.2217 318.362 70.4107 317.506 69.9006 317.054C70.0965 291.586 65.3195 265.9 69.3967 240.493ZM116.934 190.917C117.838 189.308 120.232 191.398 118.728 192.566C117.681 193.415 116.23 192.022 116.934 190.917ZM120.565 207.865C121.298 206.517 123.679 207.186 123.233 208.784C123.24 208.715 123.244 208.661 123.249 208.619C123.312 209.921 120.791 210.976 120.617 209.314C120.342 208.881 120.277 208.315 120.565 207.865ZM123.926 226.172C125.741 225.457 126.41 228.14 124.872 228.855C123.218 229.443 122.307 226.764 123.926 226.172ZM126.044 245.828C126.492 244.31 128.782 244.711 128.766 246.271C128.708 248.378 125.591 247.742 126.044 245.828ZM129.798 264.894C130.434 262.987 132.881 263.974 132.676 265.821C132.943 266.887 130.876 269.04 130.458 267.296C129.9 266.623 129.637 265.759 129.798 264.894ZM133.64 286.885C133.645 286.878 133.65 286.872 133.655 286.865C135.016 287.506 133.838 290.424 132.526 289.352C131.253 288.575 132.134 286.11 133.64 286.885ZM135.431 304.737C137.019 306.299 134.564 308.77 132.998 307.172C131.408 305.613 133.862 303.141 135.431 304.737ZM174.017 316.797C174.038 316.843 174.06 316.89 174.086 316.933C174.044 316.898 174.003 316.863 173.961 316.828C173.979 316.818 173.998 316.808 174.017 316.797ZM114.502 502.824C114.562 503.98 114.648 505.146 114.926 506.266C115.753 510.818 121.598 516.283 126.407 513.013C128.614 511.459 129.58 508.452 132.212 507.477C134.969 506.454 137.987 507.461 140.307 509.042C142.992 510.872 145.084 513.478 147.371 515.755C152.234 520.598 157.628 524.91 163.401 528.619C166.423 530.496 172.75 533.311 170.246 537.706C168.329 540.488 163.506 539.162 162.676 540.732C151.977 541.172 141.508 538.245 131.338 535.248C126.175 533.559 120.772 532.575 115.767 530.43C110.97 526.226 110.954 516.977 111.614 511.049C111.83 509.753 112.365 503.589 114.383 504.687C114.982 504.752 114.112 504.089 113.898 504.17C114.179 503.771 114.41 503.31 114.502 502.824ZM172.72 537.412C172.789 537.446 172.861 537.461 172.934 537.463C173.145 538.002 173.041 540.199 173.001 540.577C172.352 543.882 167.15 544.431 164.392 544.931C154.702 546.459 144.845 545.391 135.391 542.954C130.777 541.81 126.188 540.488 121.708 538.894C117.727 537.682 112.809 535.67 113.299 530.62C115.523 533.615 122.607 534.5 126.171 535.739C137.358 539.138 148.707 542.795 160.512 542.912C162.301 542.835 164.772 543.335 166.114 541.987C168.959 541.581 171.91 540.004 172.72 537.412ZM175.294 280.504C172.703 270.288 168.533 260.566 164.475 250.873C160.088 238.004 158.803 224.373 157.235 210.944C156.373 203.367 155.441 195.8 153.697 188.366C152.215 174.508 138.146 172.997 127.114 170.849C127.13 169.665 127.493 168.319 126.307 167.562C125.218 166.456 119.404 163.017 118.256 164.472C117.805 163.375 117.585 162.158 117.371 160.987C117.228 160.524 117.169 158.93 116.667 158.943C116.559 162.063 115.236 166.631 117.891 168.974C116.297 171.404 114.969 174.349 112.868 176.284C112.87 176.282 112.871 176.28 112.873 176.279C112.768 176.347 112.661 176.41 112.551 176.469C112.576 176.448 112.425 176.504 112.3 176.544C112.015 176.598 111.543 176.493 111.251 176.362H111.254C104.021 172.249 96.9447 167.845 89.943 163.333C90.9439 161.852 92.239 154.592 90.9972 153.586C90.1287 156.45 89.2246 159.324 87.9067 162.019C86.765 161.395 84.9175 160.274 83.9554 161.74C82.7419 163.776 82.3954 166.728 83.8517 168.752C77.5925 171.22 70.8429 172.084 64.3804 174.012C61.5644 174.735 58.5825 175.272 55.9403 176.525C48.0668 180.895 48.0604 191.663 47.1968 199.593C44.981 238.197 37.9526 278.103 48.959 315.973C49.3819 317.136 50.0069 318.252 50.4933 319.396C50.6862 319.849 51.1869 319.835 51.517 319.589C51.8901 319.811 52.2999 319.988 52.7289 320.131C52.0084 329.977 51.0316 347.964 60.5306 353.835C62.1914 354.431 63.7585 353.582 65.4823 353.989C65.7119 362.42 63.0362 370.518 60.5566 378.505C58.7328 377.091 58.0337 381.346 57.4823 382.442C55.63 386.368 60.5751 388.124 63.1685 389.82C59.3022 402.001 51.2968 418.869 63.0362 429.032C61.7907 432.1 61.1514 435.455 60.4354 438.689C60.051 440.801 59.0418 443.395 60.3158 445.354C59.9711 445.126 59.6455 444.858 59.2937 444.642C60.8248 444.619 58.5604 443.501 57.6467 444.335C55.0954 446.236 56.9853 449.72 58.8951 451.506C58.152 452.061 57.8953 453.596 57.6752 454.325C56.7727 457.317 55.9818 460.347 55.2499 463.386C53.4686 470.934 51.8155 478.523 50.5744 486.177C50.4901 486.927 50.5395 487.689 50.8058 488.364C49.8454 488.407 49.2685 489.324 48.9627 490.126C48.5293 491.921 50.8273 493.686 52.3892 494.294C50.7432 499.76 50.5953 505.842 47.108 510.586C46.7333 510.223 46.0923 510.157 45.7718 510.762C45.4218 511.764 43.2704 514.489 44.0767 515.305C44.1038 515.501 44.2043 515.694 44.3542 515.817C43.584 516.337 42.8489 516.89 42.117 517.47C43.0958 514.667 43.9082 511.395 46.0124 509.235C46.5675 508.918 47.277 509.025 47.7203 508.497C48.044 508.11 48.06 507.65 47.7363 507.271C47.5832 507.091 47.2308 507.283 47.3249 507.511C47.5928 508.155 45.944 508.042 45.5645 508.173C41.8625 510.474 40.5339 515.704 39.3342 519.669C37.8933 526.635 35.8763 533.735 36.322 540.899C35.843 543.405 35.1534 550.292 36.6058 552.186C44.2716 556.756 53.7821 558.098 62.5961 557.218C66.5251 556.648 76.8407 555.402 76.1039 549.946C75.8569 546.866 76.5685 542.751 73.5541 540.829C73.208 540.627 72.8747 540.683 72.6291 540.864C70.7864 532.613 66.7828 525.196 64.3804 517.146C63.373 513.452 62.6439 507.125 57.5891 507.401C57.4266 503.42 57.7707 499.34 57.2208 495.398C57.2208 495.399 57.2208 495.399 57.2192 495.399C57.216 495.39 57.2112 495.38 57.2064 495.372C58.2448 495.246 59.9907 495.524 60.5408 494.438C60.8224 492.909 60.9605 491.114 60.3302 489.653C62.2245 485.466 62.6219 480.609 63.9087 476.188C65.5078 469.461 67.3511 462.729 67.9251 455.816C67.9554 455.448 67.7577 455.22 67.4946 455.133C67.9047 455.126 68.3402 455.024 68.6539 454.846C71.4844 454.683 73.0997 449.653 70.553 448.095C70.5753 447.878 70.5466 447.688 70.4812 447.53C72.2035 444.239 72.7985 440.642 74.0087 437.198C74.2374 435.666 75.7436 433.401 74.8727 432.023C87.9447 428.626 91.0635 408.571 94.0474 397.23C98.3571 396.388 97.9488 392.283 100.288 389.621C100.698 389.224 100.717 388.747 100.525 388.362C104.661 379.886 107.27 370.27 110.969 361.45C111.469 370 111.3 378.591 110.397 387.108C107.665 386.475 107.654 390.25 107.273 392.062C107.075 393.188 106.877 394.313 106.68 395.439C106.389 397.096 108.52 397.57 109.091 396.259C110.797 397.103 112.573 397.749 114.391 398.275C114.775 400.081 115.148 401.861 115.163 403.726C115.277 405.861 114.096 408 114.495 410.066C111.863 416.346 107.735 421.733 105.833 428.277C99.545 451.177 112.375 473.476 113.932 496.199C113.276 493.334 113.658 500.331 113.685 500.91C113.755 505.574 109.673 503.413 109.829 513.619C109.541 518.477 109.817 523.452 111.803 527.959C112.243 529.345 111.488 530.725 111.809 532.148C112.125 534.725 114.233 538.63 117.183 538.24C134.015 544.616 153.514 550.398 171.218 544.461C172.449 543.848 173.733 543.055 174.175 541.678C174.552 540.449 175.061 535.798 172.934 536.158C172.98 531.927 168.962 529.372 165.722 527.464C161.192 524.616 156.869 521.443 152.876 517.877C146.822 513.015 141.833 503.624 132.885 505.076C131.719 498.687 132.94 492.17 132.931 485.721C133.514 457.279 139.106 429.395 143.338 401.375C143.375 401.132 143.044 401.03 142.962 401.273C133.85 427.568 131.537 455.78 129.824 483.4C129.258 490.825 129.897 498.215 131.418 505.497C127.415 506.599 126.795 512.836 122.12 512.236C119.636 511.715 117.412 509.753 116.414 507.444C117.477 505.715 116.725 503.3 116.683 501.336C116.518 499.431 116.325 497.527 116.1 495.628C114.55 473.803 102.598 452.69 107.312 430.622C109.565 419.769 120.261 410.664 116.891 398.925C126.495 401.134 136.503 401.573 146.271 400.273C149.816 400.162 150.949 398.664 151.693 395.359C152.228 393.157 153.322 390.993 153.34 388.707C153.182 386.93 151.044 385.689 149.765 387.091C153.599 373.242 156.83 359.288 159.723 345.22C169.069 349.231 172.75 337.689 174.469 330.738C175.298 326.575 177.082 321.452 174.698 317.558C181.671 320.34 177.035 284.282 175.294 280.504Z" fill="black"/>
<path fill-rule="evenodd" clip-rule="evenodd" d="M137.75 142.221C135.056 130.003 134.531 116.585 127.42 105.916C124.313 101.566 119.32 95.8939 113.488 97.6817C113.728 95.1058 113.955 92.5288 114.165 89.9503C114.285 88.4753 114.837 86.5101 113.589 85.376C111.529 83.7118 108.119 86.2584 106.527 87.6812C103.077 90.9856 101.715 94.1951 97.1714 96.402C95.3501 95.1034 93.575 93.7409 91.7264 92.4775C89.8428 91.1901 87.1482 89.0989 85.1935 91.4755C83.5367 93.49 84.595 96.6654 85.252 98.8818C85.588 100.015 85.9219 101.253 86.3888 102.418C86.4281 103.305 86.4967 104.189 86.5973 105.071C83.2315 105.67 79.7675 106.175 76.5517 107.35C74.798 108.301 74.9526 110.459 76.1967 111.751C78.0585 113.555 80.4145 114.965 82.9866 115.912C82.5195 117.529 81.4 118.9 79.9923 119.796C79.5201 120.096 79.2553 120.535 79.1594 121.004C78.4379 121.362 77.6653 121.621 76.8492 121.789C75.8427 121.997 75.2612 123.185 75.5206 124.13C76.2516 126.426 78.8275 125.113 80.5008 124.951C80.5512 126.554 80.5773 128.225 81.3049 129.71C77.4159 130.731 74.0469 134.454 74.9461 138.648C75.7628 142.658 80.0894 143.883 83.5142 144.795C83.7737 144.947 83.7729 145.098 83.8553 145.476C84.4204 148.076 83.9446 150.935 83.0537 153.403C82.8109 154.076 83.1677 154.918 83.7072 155.321C86.4962 157.098 87.4209 151.688 90.6003 155.131C90.3631 155.096 89.7728 154.8 89.803 155.228C93.9279 162.47 106.107 162.915 113.569 163.093C114.465 163.529 115.496 163.282 116.52 163.003C117.497 162.95 118.473 162.877 119.447 162.778C121.225 162.457 124.352 162.837 124.464 160.332C129.055 158.52 133.003 155.39 135.695 151.242C137.693 148.49 138.481 145.577 137.75 142.221Z" fill="white"/>
<path fill-rule="evenodd" clip-rule="evenodd" d="M109.905 84.4608L110.173 84.3437C111.097 83.9434 112.106 83.5594 113.118 83.7783C114.283 84.0304 114.957 85.033 115.245 86.1261C115.579 87.3905 115.728 88.7364 115.82 90.0378C115.915 91.3857 115.878 92.7306 115.777 94.0764C115.692 95.2018 115.517 96.5061 115.098 97.597C115.116 97.581 115.137 97.5692 115.163 97.5665C116.811 97.3975 118.33 97.496 119.904 98.027C121.37 98.5217 122.791 99.2158 124.067 100.093C126.823 101.987 128.956 104.847 130.442 107.808C133.46 113.824 134.096 120.63 134.942 127.209L134.968 127.409C135.423 130.927 136.027 134.392 136.997 137.804L137.165 138.386C138.055 141.508 138.586 144.545 137.876 147.778C136.504 154.028 131.666 158.746 126.069 161.469C123.211 162.86 120.12 163.885 116.997 164.477C113.794 165.084 110.327 165.185 107.407 163.528C105.959 162.706 107.234 160.607 108.697 161.319C111.717 162.79 115.139 162.306 118.274 161.497C121.392 160.693 124.449 159.567 127.212 157.895C131.953 155.025 135.942 150.071 136.073 144.318C136.146 141.081 134.763 137.99 134.097 134.864C133.509 132.11 133.144 129.316 132.8 126.521L132.545 124.446C131.805 118.494 130.878 112.366 127.822 107.105C125.125 102.462 120.479 98.769 115.133 97.7868C115.101 97.781 115.08 97.7656 115.067 97.746C114.903 98.627 113.933 99.4486 113.312 99.9555C112.431 100.674 111.365 101.195 110.205 101.172C107.969 101.127 106.048 99.3919 104.515 97.9388C104.342 97.7751 104.53 97.5467 104.726 97.5764C106.505 97.8442 108.031 99.2903 109.854 99.2688C110.793 99.2576 111.512 98.7538 112.125 98.084C112.354 97.8335 112.555 97.5312 112.773 97.2533C112.826 96.5233 113.033 95.8076 113.126 95.0809C113.212 94.4029 113.286 93.7146 113.33 93.0315C113.419 91.6375 113.391 90.2332 113.237 88.8446C113.17 88.2485 113.087 87.6469 112.957 87.0599L112.896 86.7954C112.815 86.4317 112.762 86.1004 112.323 86.1377C111.346 86.2204 110.254 86.8165 109.4 87.2664C106.088 89.0111 103.681 91.7089 101.903 94.8782C102.015 94.934 102.122 95.0075 102.221 95.1032C102.422 95.2958 102.525 95.6349 102.433 95.9034C102.078 96.941 100.817 96.9713 99.9292 97.3776C98.9623 97.8201 98.054 98.389 97.1939 99.0121C95.5008 100.239 93.9453 101.679 92.4662 103.153C90.1367 105.474 87.9735 107.944 85.8844 110.478L85.4399 111.471C84.9961 112.465 84.5621 113.461 84.2029 114.496C83.6184 116.178 83.1287 117.898 82.7522 119.639C82.3733 121.391 82.1263 123.184 82.0327 124.974C81.9492 126.572 82.1611 128.168 82.1522 129.756C82.2941 130.022 82.3454 130.321 82.2786 130.626C82.7254 130.753 83.1582 130.946 83.5646 131.212C83.6637 131.277 83.6008 131.432 83.484 131.403C82.9686 131.276 82.4531 131.248 81.9482 131.297C81.6803 131.628 81.2466 131.838 80.8258 131.829L80.6463 131.825C80.5147 131.822 80.3843 131.801 80.2583 131.765C79.5481 132.093 78.8946 132.564 78.3415 133.127C77.0114 134.482 76.3691 136.257 76.4635 138.153C76.557 140.023 77.5526 141.71 79.2017 142.608C79.9373 143.008 80.7547 143.219 81.5909 143.235C82.3953 143.249 83.4511 143.005 84.1121 143.529C84.1864 143.588 84.2353 143.667 84.2655 143.753C84.3115 143.559 84.3605 143.364 84.4139 143.171C84.4547 143.023 84.7008 143.006 84.7309 143.171L84.7697 143.386C85.3235 146.51 85.5183 149.725 87.7187 152.225C88.7478 153.395 89.9885 154.449 91.2613 155.344L91.4719 155.491C92.0157 155.867 92.6032 156.232 93.2515 156.368C93.9719 156.519 94.5675 156.477 95.23 156.873C95.5415 157.06 95.7327 157.471 95.618 157.828C94.8831 160.117 91.9865 159.089 90.5264 158.183C89.7144 157.68 88.9243 157.072 88.1902 156.402C87.55 156.792 86.7897 157.044 86.1364 157.142C85.1288 157.293 84.059 157.083 83.2558 156.432C82.406 155.744 82.1153 154.742 82.2596 153.678C82.3314 153.149 82.4687 152.633 82.6166 152.12L82.7388 151.701C82.9171 151.092 83.0564 150.462 83.4159 149.93C83.5973 149.662 84.028 149.687 84.1213 150.022C84.3348 150.79 84.2424 151.657 84.1871 152.457L84.1752 152.64C84.139 153.242 83.8828 154.164 84.4099 154.61C85.0449 155.147 85.7398 154.902 86.4159 154.532C86.347 154.448 86.2789 154.363 86.2121 154.278C84.0244 151.497 83.4803 148.034 84.0795 144.649C83.5149 145.39 82.0431 145.55 81.2621 145.492C80.0359 145.402 78.8292 145.029 77.7848 144.373C75.5972 143.001 74.3668 140.593 74.3145 138.032C74.2635 135.545 75.3757 133.029 77.4267 131.581C77.9685 131.199 78.5712 130.901 79.2005 130.706C78.8946 129.491 78.8622 128.149 78.9286 126.835C78.1949 126.935 77.4007 126.805 76.7373 126.579L76.6344 126.543C75.612 126.177 74.3136 125.441 74.1222 124.292C73.8865 122.878 75.63 122.066 76.6416 121.501C77.1148 121.237 77.5986 120.991 78.1009 120.787L78.2522 120.727C78.6857 120.56 79.1961 120.249 79.6363 120.497C79.6677 120.514 79.6753 120.548 79.6707 120.581C79.5836 121.195 78.5787 121.716 78.1319 122.103C77.7888 122.4 77.4571 122.711 77.1388 123.035C76.9325 123.245 76.6222 123.775 76.3575 123.924C76.4804 123.988 76.6278 124.146 76.7305 124.207C77.0197 124.378 77.3248 124.498 77.6512 124.576C78.1364 124.692 78.6224 124.642 79.1083 124.631C79.3055 122.697 79.6637 120.805 80.2403 118.946C81.2074 115.829 82.7925 112.544 85.054 110.079C86.7122 106.971 88.8538 104.133 91.2999 101.594C92.8688 99.9661 94.526 98.3864 96.3641 97.0637C97.179 96.4773 98.036 95.949 98.9457 95.5233L99.248 95.3846C99.7529 95.1508 100.367 94.8474 100.953 94.7606C101.332 93.2566 102.007 91.8181 102.826 90.5143C103.954 88.7179 105.439 87.2027 107.177 85.9921C108.034 85.3945 108.948 84.8807 109.905 84.4608ZM79.7612 136.845C81.2191 135.865 83.0071 135.482 84.7493 135.626C85.6136 135.698 86.4684 135.901 87.2784 136.211L87.6122 136.343C88.3858 136.653 89.2161 137.035 89.2438 137.972C89.2548 138.341 88.9813 138.635 88.6512 138.75C87.8461 139.03 87.1938 138.36 86.529 138.003C85.8579 137.643 85.1445 137.405 84.4095 137.212C84.339 137.194 84.2684 137.177 84.1979 137.16C84.2362 137.237 84.2579 137.322 84.2504 137.413C84.2322 137.632 84.1686 137.795 84.1067 138C84.0881 138.062 84.0426 138.442 83.9961 138.489C84.0112 138.618 84.0128 138.74 84.0168 138.871C84.0279 139.255 83.9806 139.58 83.7845 139.92C83.2959 140.767 81.8992 140.846 81.4315 139.92C80.9638 138.994 81.3293 138.088 82.04 137.423C82.2337 137.242 82.4921 137.057 82.7727 136.93C81.7873 136.84 80.7908 136.882 79.8063 137.012C79.7103 137.025 79.6957 136.889 79.7612 136.845ZM79.8485 105.794C81.8481 105.454 83.9363 105.386 85.9544 105.587C86.0645 105.598 86.1056 105.766 85.9823 105.793C82.9136 106.467 79.7324 106.694 76.9945 108.383L76.8684 108.462C76.6056 108.629 75.9804 108.945 75.8503 109.242C75.6967 109.593 76.1126 110.044 76.306 110.297C76.7408 110.866 77.2811 111.363 77.8774 111.758C78.5075 112.175 79.1848 112.497 79.9134 112.701C80.2594 112.798 80.6184 112.847 80.9604 112.957C81.3498 113.082 81.4754 113.281 81.7704 113.542C82.1104 113.842 81.9962 114.419 81.6296 114.634L81.5267 114.694C81.045 114.97 80.7772 115.051 80.1653 114.943C79.6867 114.859 79.2295 114.691 78.7814 114.505C77.9582 114.163 77.2068 113.716 76.5135 113.158L76.41 113.074C75.1719 112.05 73.0743 109.81 74.456 108.18C75.6755 106.741 78.072 106.096 79.8485 105.794ZM84.7731 90.2822C86.6909 88.022 89.3995 89.5653 91.3212 90.9166C93.3924 92.3728 95.1895 94.0904 96.6425 96.1657C96.7348 96.2976 96.5562 96.4581 96.4277 96.3805C94.8167 95.4089 93.1888 94.4787 91.5363 93.5782C90.8578 93.2084 90.1785 92.8475 89.4843 92.5096L89.1132 92.331C88.5333 92.0447 87.7008 91.5222 87.0824 91.8629C85.749 92.5981 86.572 95.0063 86.8467 96.1726L86.8717 96.2826L87.7096 100.121L88.0914 101.849C88.2271 101.959 88.34 102.106 88.4199 102.296C88.6361 102.809 88.4596 103.502 87.9366 103.772C86.3929 104.566 85.8702 103.014 85.5795 101.848C85.3433 100.9 85.1046 99.9531 84.8654 99.0062L84.4698 97.4415C83.8637 95.0728 83.0034 92.3677 84.7731 90.2822Z" fill="black"/>
<path fill-rule="evenodd" clip-rule="evenodd" d="M117.149 151.82C116.077 151.383 115.121 150.653 114.421 149.721C114.178 149.397 114.115 149.055 114.166 148.742C114.224 148.39 114.432 148.071 114.716 147.857C115 147.642 115.356 147.536 115.701 147.59C116 147.637 116.298 147.801 116.533 148.141L116.583 148.209C116.998 148.772 117.54 149.233 118.157 149.531C118.752 149.818 119.418 149.951 120.106 149.874C121.418 149.725 122.321 149.016 123.282 148.052C123.401 147.931 123.52 147.805 123.64 147.678C123.716 147.562 123.821 147.488 123.937 147.449C124.066 147.406 124.213 147.408 124.347 147.455C124.476 147.5 124.592 147.586 124.669 147.7C124.743 147.808 124.785 147.941 124.771 148.095C124.683 149.094 124.161 149.985 123.42 150.684C122.597 151.462 121.506 151.999 120.478 152.188C119.347 152.395 118.193 152.247 117.149 151.82ZM121.012 136.417C122.216 137.149 124.051 138.856 122.756 140.672C121.231 142.272 119.036 140.437 117.954 139.607C116.951 138.964 115.824 140.618 116.754 141.369C124.572 147.159 127.744 136.608 121.621 135.556C120.947 135.44 120.697 136.19 121.012 136.417ZM107.004 129.681C107.137 128.029 109.652 127.654 109.902 129.289C110.126 130.754 109.862 132.099 109.203 133.417C108.573 134.677 106.989 134.089 106.87 132.942C106.709 131.405 106.921 130.709 107.004 129.681ZM126.149 128.95C126.499 128.49 127.006 128.177 127.612 128.354C129.507 128.908 128.949 131.6 128.283 132.91C127.922 133.621 126.753 133.802 126.224 133.175C125.363 132.154 124.951 130.114 126.046 129.107C126.075 129.055 126.108 129.003 126.149 128.95ZM109.176 122.452L109.476 122.4C110.402 122.24 111.553 122.086 112.208 122.83C112.556 123.225 112.675 123.96 112.208 124.338C111.387 125.003 110.479 124.745 109.494 124.801C108.683 124.848 107.903 124.982 107.121 125.206C105.407 125.696 104.01 126.591 102.546 127.574C102.354 127.703 102.157 127.457 102.249 127.277C103.094 125.621 104.732 124.26 106.373 123.431C107.249 122.988 108.207 122.621 109.176 122.452ZM124.421 121.71L124.65 121.757C127.144 122.279 130.383 123.32 131.564 125.77C131.609 126.117 131.562 126.191 131.523 126.24L131.51 126.256C131.478 126.297 131.453 126.354 131.303 126.402C131.261 126.392 131.219 126.381 131.177 126.37C130.635 126.228 130.207 126.033 129.792 125.83L129.343 125.608C128.821 125.352 128.295 125.106 127.738 124.924C126.548 124.536 125.324 124.262 124.081 124.116C123.812 124.084 123.552 123.993 123.348 123.838C123.153 123.69 123.005 123.485 122.937 123.212C122.85 122.86 122.875 122.593 123.064 122.275C123.206 122.037 123.409 121.871 123.643 121.776C123.881 121.679 124.152 121.656 124.421 121.71Z" fill="black"/>
<path fill-rule="evenodd" clip-rule="evenodd" d="M134.45 134.034C133.999 135.262 133.313 136.54 132.474 137.573C129.078 140.45 125.779 138.857 124.104 134.959C123.467 132.203 125.157 129.236 126.948 127.209C129.534 124.615 133.755 125.976 134.945 129.059C135.017 129.459 135.061 129.857 135.081 130.255C135.057 131.545 134.901 132.648 134.45 133.875M101.813 131.558C106.286 126.235 114.654 125.951 114.44 134.143C113.48 144.513 97.2992 141.968 101.813 131.558ZM135.857 127.118C135.7 126.852 135.526 126.595 135.336 126.349C135.266 126.308 135.226 125.937 134.968 125.909C131.519 122.103 125.461 124.263 123.272 128.055C122.872 128.535 122.546 129.096 122.306 129.689C120.149 129.294 117.635 129.37 115.629 130.185C113.639 124.989 107.618 124.526 103.649 126.746C101.181 127.96 99.5805 130.503 97.18 131.901C91.537 132.307 85.4806 131.042 79.9395 132.458C75.5694 133.367 79.2226 135.581 79.9554 134.103C85.1797 132.559 91.369 133.864 96.7933 133.516C97.3573 134.471 98.4389 135.252 99.5168 135.218C100.681 145.543 115.731 143.831 116.25 134.653C116.839 133.722 117.572 132.83 118.62 132.25C119.021 132.167 119.409 132.059 119.763 131.891C120.369 131.806 121.302 132.063 121.859 132.567C123.768 144.024 134.763 142.689 136.728 132.653C136.767 132.613 136.876 132.464 136.96 132.223C137.633 131.334 139.279 131.003 139.016 129.501C138.782 127.999 136.886 128.017 135.857 127.118Z" fill="black"/>
<path fill-rule="evenodd" clip-rule="evenodd" d="M331.475 253.016C325.323 265.424 317.717 276.395 308.711 287.352C309.342 261.463 309.886 235.434 310.817 209.307C316.521 219.403 322.598 228.539 330.711 238.562C337.071 244.729 334.106 247.289 331.475 253.016ZM351.641 555.906C352.354 554.991 351.932 553.827 350.946 553.234C353.045 549.127 346.719 545.956 343.605 542.865C336.528 535.899 325.378 525.913 324.386 517.117C321.01 497.161 319.081 477.134 313.676 457.412C310.465 444.885 301.55 434.834 297.566 422.528C290.639 390.008 299.588 357.396 298.041 324.551C317.565 322.813 315.036 325.023 312.945 310.289C314.252 309.466 315.525 308.594 316.714 307.716C319.831 309.225 323.511 312.924 326.943 312.728C328.03 312.498 328.813 311.262 329.558 310.201C335.07 302.315 340.193 294.607 345.21 286.66C372.949 246.976 366.675 237.99 340.8 199.949C329.903 185.257 316.519 163.878 295.76 162.395C293.254 162.396 290.612 162.275 288.453 160.845C288.437 158.568 287.155 157.833 283.901 157.417C282.069 157.246 280.632 156.277 278.843 156.673C277.568 152.807 277.823 149.699 276.439 145.875C271.696 139.348 256.31 142.604 250.676 144.651C243.674 146.86 250.334 156.746 245.765 161.261C244.769 161.765 243.732 162.007 242.404 162.007C236.743 160.863 233.985 167.031 231.309 171.098C223.649 171.955 217.908 172.987 214.384 175.492C211.153 177.706 208.777 181.266 205.618 188.63C199.004 201.761 194.667 214.803 192.751 227.384C191.084 235.91 186.452 243.288 182.734 251.031C173.606 271.193 169.666 284.547 171.851 302.293C174.168 301.916 176.505 301.152 178.944 300.867L179.93 302.983C179.993 302.941 180.018 302.893 180.023 302.88C182.885 320.642 175.033 356.81 200.651 352.051C202.911 371.598 210.12 388.975 218.795 405.32C222.303 411.469 225.831 417.968 225.772 425.188L224.452 425.215C224.227 425.22 224.155 425.261 224.155 425.262C223.903 425.317 224.195 427.096 224.477 428.103C228.621 441.387 232.205 454.669 235.423 468.113C236.102 469.925 236.395 474.802 237.967 475.629C237.898 476.295 240.066 477.6 240.234 477.558C239.856 480.123 241.225 481.271 241.179 483.876C241.186 483.814 239.256 483.905 239.34 483.852C238.188 483.852 236.882 486.072 236.866 487.576C236.761 489.388 238.449 491.091 239.039 492.869C239.954 496.77 239.811 500.724 240.218 504.65C236.377 505.441 237.239 509.146 240.607 509.328C240.607 509.328 241.221 514.504 241.1 517.084C238.789 517.336 237.762 519.204 236.999 520.654C234.157 520.683 231.497 521.856 228.857 523.079C222.705 525.814 216.663 528.679 211.183 531.581C206.348 534.498 195.81 537.705 201.281 543.839C201.198 543.997 202.456 546.844 204.152 546.585C212.518 547.322 244.336 541.053 251.696 539.663C254.195 539.124 265.127 537.832 260.587 534.484C262.279 530.196 262.353 522.062 257.25 521.068C256.754 517.04 253.017 515.626 249.29 517.117C249.313 514.219 249.114 511.711 249.081 508.812C250.875 508.597 252.861 507.993 253.38 506.759C253.872 506.077 253.681 503.757 251.834 503.74C251.779 503.736 250.445 503.795 250.391 503.793C250.605 499.103 250.154 495.123 250.928 490.425C251.343 488.865 252.701 488.611 253.59 487.808C254.424 485.474 251.858 483.589 249.663 483.197C249.105 480.824 250.285 478.311 249.663 475.983C251.095 475.94 252.212 475.873 253.142 475.085C253.545 474.726 254.206 474.835 254.719 474.803C255.217 469.904 258.585 465.721 259.332 461.009C260.385 455.431 258.401 449.611 257.69 443.927C257.115 439.199 258.032 434.361 258.491 429.718C277.352 457.029 302.821 483.348 307.381 516.594C307.867 519.153 308.161 522.015 305.56 524.522L305.448 524.551C304.787 525.755 304.372 528.052 303.897 529.294C301.441 531.055 303.695 534.436 305.47 535.959C306.008 536.516 306.467 537.161 306.958 537.744C316.227 547.788 317.276 559.137 335.068 558.371C339.442 558.122 349.677 558.249 351.641 555.906Z" fill="white"/>
<path fill-rule="evenodd" clip-rule="evenodd" d="M277.171 147.655C275.669 146.724 277.807 154.75 277.811 155.517L277.849 155.685C278.223 157.319 278.882 159.219 280.399 160.264C279.7 165.46 278.829 170.642 277.757 175.783C268.197 176.914 258.574 178.548 248.851 177.723C243.778 177.763 240.406 174.641 238.332 170.752L238.269 170.634L238.696 169.243C245.199 165.622 250.128 158.282 247.196 151.356C247.006 150.906 246.213 151.087 246.386 151.558C247.616 154.684 247.1 158.209 245.352 161.08C244.261 161.608 243.098 161.571 241.928 161.538C236.285 160.79 233.043 166.603 230.615 170.228L228.488 170.513C220.354 171.61 212.508 172.908 208.491 180.472L208.124 181.18C202.441 192.159 197.131 203.453 194.036 215.282C192.494 221.509 191.937 227.925 189.675 233.999C184.981 245.276 178.365 255.872 174.777 267.546C172.552 271.671 166.298 303.602 172.467 303.708C174.689 303.104 176.953 302.617 179.24 302.268C178.888 302.512 178.759 302.926 178.826 303.351C179.625 308.433 179.685 313.582 179.681 318.706C179.354 331.011 179.398 357.013 199.591 353.706C201.246 368.751 206.898 383.306 213.181 397.233C216.914 406.211 224.155 414.401 224.518 424.263C222.017 424.297 222.987 427.184 223.295 428.577C224.136 431.986 225.23 435.342 226.338 438.685C230.241 450.677 232.572 463.072 235.914 475.202C236.095 475.786 236.399 476.183 236.787 476.451C236.853 477.713 238.954 478.437 240.143 478.018C239.976 479.545 240.022 481.09 239.998 482.622L239.993 482.91L239.629 482.906C238.045 482.536 236.444 484.864 235.997 486.059C234.493 489.404 237.98 491.856 238.239 495.041C238.476 498.065 238.79 501.063 238.933 504.096C234.585 505.636 236.508 510.796 240.77 510.742C240.57 512.626 240.543 514.519 240.456 516.406C238.603 516.846 237.214 518.263 236.302 519.743C232.557 519.976 229.139 521.985 225.802 523.407C220.643 525.719 215.567 528.187 210.589 530.807C205.741 533.736 194.954 537.061 199.669 543.834C198.482 544.762 199.311 546.582 200.393 547.341L200.43 547.367C201.505 548.13 202.927 548.13 204.248 548.006C219.595 548.354 235.766 544.029 251.027 541.204L252.179 541.017C255.52 540.475 258.939 539.867 261.907 538.388C263.163 537.46 263.47 535.195 262.185 534.282C263.503 529.957 262.315 522.363 257.102 520.689C256.484 517.482 253.625 515.181 249.989 516.16C249.971 514.106 249.787 512.076 249.747 510.021C251.549 509.713 253.212 509.079 254.081 507.525C255.037 505.976 254.002 503.381 251.829 503.465C251.756 500.265 251.955 497.12 251.984 493.926L251.987 493.733C251.999 492.699 251.953 491.558 252.436 490.607C252.932 489.627 254.253 489.53 254.839 488.601C256.124 486.1 253.552 483.162 250.9 482.488C250.567 480.813 250.739 479.039 250.405 477.348C251.818 477.273 253.021 476.975 254.044 476.248C254.751 476.149 256.001 476.434 256.082 475.513C256.369 471.749 258.461 468.398 259.778 464.888C262.499 458.059 260.03 450.929 259.084 444.023C258.638 440.501 259.108 436.963 259.506 433.433C277.457 458.95 300.483 483.623 305.803 514.407C306.098 517.872 307.657 520.722 304.918 523.712C303.999 523.953 303.214 527.871 302.86 528.857C300.055 531.213 302.5 535.418 304.941 537.24C306.109 539.072 307.672 540.676 309.135 542.316L309.606 543.033C312.706 547.736 316.012 552.452 320.214 556.393C327.276 561.147 339.126 559.794 347.444 558.938L348.184 558.829C349.916 558.567 351.834 558.183 352.831 556.783C353.697 555.57 353.581 553.996 352.505 553.085C353.573 550.291 351.139 547.547 348.849 545.831C339.975 538.691 332.325 530.293 326.368 520.985C324.085 505.935 321.74 490.885 319.201 475.869C317.151 463.442 314.03 451.002 307.439 439.852L305.823 437.064C303.091 432.342 300.472 427.631 298.915 422.425C295.286 410.16 296.155 397.316 296.658 384.76C297.305 365.158 298.844 345.553 298.643 325.937C302.708 325.55 313.729 325.788 315.465 321.997C316.034 318.384 314.701 314.708 314.4 311.099C315.258 310.552 316.096 309.98 316.911 309.39C318.423 310.414 319.983 311.38 321.585 312.279C325.419 314.784 328.384 315.184 330.757 311.067C337.622 301.217 344.245 291.225 350.495 281.042C356.292 271.275 363.477 261.524 364.948 250.279C367.087 230.038 340.924 197.642 327.825 181.196C319.776 172.357 309.363 162.943 296.062 162.251L295.658 162.232C293.874 162.151 291.282 162.329 289.795 161.234C289.514 157.58 285.383 157.598 282.312 156.994C281.676 156.554 280.711 156.449 279.897 156.485C278.795 153.612 278.545 150.435 277.171 147.655ZM315.094 523.592C318.463 522.001 322.483 521.872 326.027 523.133C330.422 530.526 336.051 537.273 342.443 543.335C344.778 546.292 353.544 550.192 349.171 554.184L348.579 554.282C341.867 555.391 335.052 556.264 328.212 555.764C323.744 554.642 320.136 551.635 317.294 548.389C313.766 544.236 310.851 539.667 307.623 535.318C304.725 530.86 303.197 530.8 305.47 525.504C305.474 525.608 305.501 525.712 305.559 525.819C306.362 527.288 308.825 527.153 310.215 526.599C312.027 525.877 313.344 524.43 315.094 523.592ZM346.927 555.555L346.825 555.597L346.722 555.639L346.571 555.641L346.927 555.555ZM219.179 528.94C224.178 526.911 233.335 520.998 238.44 521.896C242.21 522.943 245.686 524.816 249.705 525.087L249.878 525.093C252.747 525.204 257.845 526.073 258.923 523.01C260.35 525.485 260.82 528.55 260.798 531.351C260.858 533.737 259.654 535.625 256.859 535.819L254.272 536.41C237.876 540.146 221.328 543.712 204.433 544.818C199.998 542.304 199.888 538.999 204.591 536.702C209.34 533.947 214.227 531.38 219.179 528.94ZM315.743 471.282C318.679 487.961 320.65 504.733 323.494 521.419C313.569 519.168 310.655 527.246 306.96 524.992C309.544 521.904 309.234 519.578 308.469 515.985C306.952 503.882 301.987 492.368 295.831 481.622C295.129 480.395 294.409 479.175 293.679 477.958C301.595 478.613 310.117 476.564 315.743 471.282ZM254.601 518.841C255.281 519.799 255.551 520.953 255.768 522.06C255.88 522.632 255.818 523.475 256.042 524.117C251.783 524.234 247.5 523.333 243.663 521.674L243.85 521.663C246.978 521.488 253.441 521.887 254.601 518.841ZM257.25 521.309C257.664 521.576 258.022 521.886 258.332 522.229C258.437 522.763 258.133 523.343 257.64 523.675C257.541 522.894 257.421 522.085 257.25 521.309ZM248.929 510.142C248.916 512.557 248.755 514.936 248.784 517.347C248.788 518.183 248.515 519.239 249.079 519.95L248.183 520.036C245.937 520.248 243.645 520.424 241.4 520.192C241.328 517.053 241.326 513.898 241.098 510.762C243.867 510.745 246.205 510.322 248.929 510.142ZM240.354 519.755C240.357 519.851 240.359 519.953 240.355 520.048C240.033 519.994 239.712 519.928 239.394 519.851C239.655 519.827 239.921 519.867 240.178 519.787C240.237 519.779 240.297 519.772 240.354 519.755ZM250.022 519.38C250.305 519.672 250.858 519.724 251.208 519.531C251.279 519.542 251.35 519.551 251.425 519.554C251.445 519.556 251.468 519.554 251.488 519.554L251.245 519.61C250.738 519.723 250.346 519.797 249.826 519.864C249.917 519.713 249.979 519.551 250.022 519.38ZM238.371 519.367C238.437 519.477 238.526 519.569 238.636 519.645L238.385 519.569C238.344 519.556 238.302 519.542 238.261 519.528C238.295 519.472 238.332 519.42 238.371 519.367ZM253.05 518.704C253.003 518.804 252.898 518.957 252.778 519.038C252.884 518.938 252.978 518.826 253.05 518.704ZM240.424 517.151C240.422 517.208 240.42 517.266 240.416 517.325C240.382 517.292 240.341 517.262 240.293 517.242C240.338 517.212 240.383 517.181 240.424 517.151ZM251.841 503.995C253.928 504.609 253.197 506.988 251.617 507.767C249.898 508.796 247.303 508.635 245.33 508.79C243.311 508.828 240.973 509.573 239.156 508.503C238.208 507.923 238.199 506.606 239.202 506.098C239.221 506.139 239.241 506.178 239.262 506.217C239.249 506.31 239.258 506.415 239.303 506.538C240.448 508.408 247.635 507.328 249.457 506.401L249.598 506.346C250.833 505.869 251.99 505.649 251.841 503.995ZM249.289 476.483C248.838 478.322 248.985 480.237 248.7 482.082C248.521 482.617 248.75 482.972 249.118 483.155C246.746 483.798 244.356 484.118 241.885 483.617C242.153 481.461 241.477 479.057 241.135 476.889L249.289 476.483ZM240.234 476.935C240.194 477.21 240.199 477.511 240.165 477.796C240.16 477.789 240.155 477.783 240.149 477.778L240.138 477.769C239.84 477.534 239.569 477.233 239.284 476.972C239.597 476.966 239.918 476.95 240.234 476.935ZM252.599 421.125C254.111 424.395 255.816 427.575 257.729 430.672L257.651 431.404C257.145 436.199 256.764 441 257.622 445.786L257.702 446.196C259.024 452.903 260.671 459.886 257.466 466.377L257.32 466.717C256.175 469.383 254.969 472.026 254.659 474.889C249.449 475.227 244.223 475.699 239.006 475.865C237.656 476.073 237 475.373 236.88 474.223C232.81 458.74 229.24 443.149 224.829 427.742L224.784 427.664C224.306 426.833 223.947 425.878 224.835 425.588C226.511 425.322 228.155 426.949 229.746 427.365C238.289 430.423 244.759 422.3 252.599 421.125ZM252.801 427.431C247.614 434.401 250.436 444.987 251.032 453.264C251.473 456.312 250.955 459.434 251.307 462.466C251.355 462.703 251.767 462.747 251.881 462.534C253.104 459.741 252.602 456.529 252.495 453.591C251.732 444.9 249.571 435.927 252.801 427.431ZM237.635 331.986C237.654 331.872 237.83 331.913 237.841 332.011C237.897 352.915 239.344 373.758 241.631 394.557C241.663 395.008 240.851 395.114 240.755 394.665C239.11 386.94 238.445 379.068 237.888 371.224L237.825 370.336C237.1 359.799 236.871 349.233 237.182 338.679C237.25 336.461 237.26 334.182 237.635 331.986ZM190.592 301.54C190.793 301.757 191.013 301.887 191.237 301.953C191.235 306.838 192.321 311.645 195.297 315.876C196.604 317.444 197.306 319.255 197.932 321.119C197.753 321.625 197.979 322.207 198.399 322.498C201.149 330.089 201.433 338.217 200.418 346.102C197.325 341.982 196.098 337.064 195.232 332.217C195.186 331.973 194.742 331.976 194.693 332.217C193.667 337.402 195.406 342.577 197.653 347.314C198.898 348.271 198.631 350.44 198.776 351.796C175.974 354.809 183.904 315.055 180.983 302.811C180.929 302.473 180.614 302.229 180.256 302.124C183.676 301.653 187.141 301.616 190.592 301.54ZM282.847 157.868L283.242 157.958C287.403 158.902 288.505 158.923 288.77 163.365C289.805 169.632 293.628 175.104 295.347 181.165C296.034 183.306 295.309 187.25 292.048 186.674C290.992 186.379 290.169 187.671 290.968 188.358C293.328 190.384 295.62 192.474 297.924 194.553C288.671 222.919 276.648 250.549 262.006 276.982C261.425 278.03 263.166 278.954 263.743 277.903C278.302 251.384 290.408 223.763 299.805 195.39L300.089 194.53C300.504 193.486 295.198 189.743 294.232 188.521C303.907 184.289 290.432 169.471 290.038 162.349C292.841 163.345 295.947 163.004 298.872 163.438C304.493 164.33 309.426 167.283 313.81 170.463C331.619 184.746 343.003 204.521 354.388 223.159C362.142 235.324 365.88 250.187 358.099 263.124C349.071 279.709 338.595 295.697 327.525 311.216C326.307 312.651 324.438 311.002 323.156 310.397C315.792 306.379 309.406 300.911 304.494 294.516C317.372 279.855 329.352 263.835 336.028 245.996C336.561 241.656 329.863 236.629 327.418 232.857C322.02 226.094 316.977 219.102 312.162 211.99C312.313 211.287 311.993 210.517 311.173 210.536L310.696 209.815C307.019 204.264 306.609 204.048 310.26 210.839C308.408 235.891 308.716 261.427 307.915 286.638C305.748 289.241 303.518 291.802 301.236 294.322C293.833 289.69 285.125 286.668 276.181 285.732L275.723 285.691C271.937 285.339 265.536 284.606 265.032 289.133C265.707 294.674 278.167 291.528 282.196 294.672C275.625 297.075 268.093 297.755 262.06 301.381C260.125 302.404 256.331 305.675 260.037 306.924C261.655 307.051 263.325 306.477 264.941 306.354C263.122 306.909 261.449 307.854 260.384 309.331C259.617 310.345 259.058 312.447 260.89 312.882C265.068 312.985 269.228 311.755 273.342 311.135L272.976 311.27C269.976 312.387 265.315 314.387 269.354 317.343C273.399 319.243 278.294 316.01 282.323 315.146C293.178 312.857 301.197 319.136 312.322 312.335C312.635 315.33 313.633 318.413 313.326 321.412C310.65 323.684 302.322 323.608 298.596 323.908L298.6 323.793C298.654 321.951 298.114 322.14 298.012 323.93C288.58 324.193 279.127 324.033 269.714 323.419C265.675 323.148 261.642 322.783 257.626 322.309L256.873 322.219C254.809 321.969 252.652 321.803 250.625 321.356C248.552 321.104 248.549 319.094 248.769 317.619C251.615 263.07 276.015 211.778 282.847 157.868ZM244.496 162.373C244.016 163.019 243.484 163.637 242.909 164.221C242.025 162.978 239.872 162.274 239.259 164.13C238.569 166.037 237.583 167.995 237.554 170.016C223.451 211.793 223.093 256.217 223.367 299.551C222.945 306.425 225.291 313.152 225.074 319.99C217.349 320.999 209.512 321.085 201.755 320.339C201.526 319.792 201.266 319.252 200.972 318.724C189.362 305.863 195.517 289.741 201.109 275.809C204.49 275.936 207.891 275.745 211.275 275.78C210.23 278.721 209.96 281.832 209.404 284.872C209.025 287.039 208.541 289.189 207.986 291.324L207.836 291.893C207.627 292.68 207.349 293.529 207.653 294.31C207.952 295.08 208.982 295.391 209.665 294.792C210.896 293.516 210.764 291.616 211.162 290.033L211.235 289.535C211.913 284.996 212.805 280.28 211.566 275.78C212.783 275.54 216.106 276.414 216.28 274.929C216.229 272.477 218.187 267.16 216.008 265.544C214.711 264.645 212.481 264.93 210.96 264.874C209.202 264.809 207.446 264.75 205.69 264.76C219.802 233.775 215.877 224.234 214.445 193.396L214.403 192.455C214.406 192.254 214.046 192.203 214.007 192.408C211.849 205.039 214.726 217.829 213.363 230.499C210.943 254.577 194.154 275.247 191.347 299.208C185.292 298.572 179.169 299.351 173.301 300.734C173.177 299.761 173.082 298.785 173.015 297.806C171.902 279.924 178.807 262.552 186.866 246.513C191.695 237.996 194.68 228.911 195.929 219.408C198.356 207.033 203.799 195.374 209.225 183.88C212.654 175.282 220.07 173.256 229.265 172.257C226.164 176.928 223.081 181.61 220.004 186.295C219.317 187.71 221.421 188.724 222.34 189.595C211.045 195.196 217.64 212.476 217.407 222.165C218.245 231.062 218.562 240.017 220.04 248.854C220.148 249.465 221.182 249.287 221.191 248.712C221.055 235.469 219.317 222.278 218.555 209.058L218.462 208.095C217.867 201.835 217.286 192.805 225.569 191.086C226.686 190.922 226.772 189.412 225.875 188.959C224.68 188.354 223.634 187.615 222.697 186.738C227.423 179.841 231.544 172.579 236.517 165.834L236.724 165.594C240.043 161.776 239.813 163.156 244.496 162.373ZM267.321 288.797C268.24 286.352 277.101 287.947 279.471 288.21C288.2 289.71 296.985 293.22 303.633 298.626C304.044 298.959 304.529 298.954 304.912 298.773C307.892 302.229 311.328 305.362 315.1 308.116C314.409 308.608 313.7 309.089 312.971 309.546C312.622 309.58 312.306 309.744 312.164 310.04C301.788 316.87 294.153 311.542 283.374 312.774C279.349 313.509 275.643 315.836 271.495 315.933C268.452 315.305 271.132 314.148 272.553 313.701C276.631 311.932 280.808 310.363 284.973 308.774C286.266 308.281 285.822 306.506 284.378 306.816C281.85 307.357 279.314 307.874 276.776 308.378C271.896 309.285 266.9 310.445 261.968 310.883C263.063 308.116 274.697 305.123 278.077 304.025C279.355 303.474 282.998 303.582 282.581 301.78C282.245 300.109 278.367 302.024 277.076 302.161C271.801 303.375 266.416 304.116 261.04 304.854C266.815 299.592 275.765 299.135 283.139 296.673L283.383 296.622C284.675 296.343 286.402 295.827 285.416 294.517L285.384 294.474C281.591 289.396 266.689 291.971 267.321 288.797ZM278.232 260.536C275.544 258.525 274.101 262.651 274.273 264.564C274.146 266.152 274.01 267.741 273.896 269.33C274.063 270.575 272.605 275.103 274.554 275.144C283.075 274.754 291.582 274.848 300.105 274.386C300.117 275.946 300.201 277.507 300.113 279.072C300.159 281.026 299.411 282.983 299.848 284.913C300.115 285.803 301.445 285.922 301.964 285.164C303.522 281.836 302.45 277.543 301.348 274.176C307.787 272.689 304.684 267.979 304.683 263.863C304.692 263.755 304.573 263.699 304.475 263.72C302.879 265.745 304.958 268.448 304.046 270.651C303.104 273.058 299.104 272.837 296.844 272.877L296.776 272.878C289.739 272.989 282.706 273.252 275.668 273.375C275.969 271.223 276.051 269.017 276.232 266.864C276.46 265.319 276.13 263.485 276.997 262.1C280.91 263.254 284.984 263.716 289.098 263.642C294.002 263.762 299.159 264.164 303.951 263.632C297.078 262.668 289.485 262.808 282.481 261.585C281.089 261.258 279.669 260.595 278.232 260.536ZM312.062 214.06C316.302 221.409 321.176 228.406 326.369 235.216C327.481 236.672 328.623 238.107 329.783 239.532L329.998 239.782C332.317 242.458 334.725 244.677 332.534 248.228C326.792 260.897 319.107 272.795 310.202 283.837L310.355 277.493C310.859 256.347 311.337 235.2 312.062 214.06ZM205.533 265.133C216.176 267.163 216.38 263.363 214.601 274.108C210.331 274.135 206.064 274.047 201.793 274.11C203.014 271.109 204.279 268.122 205.533 265.133ZM237.489 173.24C239.89 176.989 243.878 179.397 248.681 179.432C257.108 179.871 265.648 179.367 273.859 177.553C275.067 177.277 276.509 177.04 277.621 176.441C271.289 207.621 261.039 237.999 253.829 269L253.593 270.023L253.397 269.987C248.489 269.196 243.15 269.525 238.103 269.244C234.055 269.191 229.965 269.585 225.944 269.037L226.07 265.184C227.084 234.341 228.499 203.128 237.489 173.24ZM241.011 164.328C241.456 164.322 242.139 164.563 242.593 164.534C241.668 165.433 240.643 166.244 239.565 166.95C240.058 166.11 240.443 165.103 241.011 164.328Z" fill="black"/>
<path fill-rule="evenodd" clip-rule="evenodd" d="M226.507 122.394C226.581 118.603 226.663 114.736 227.284 110.981C227.892 107.31 229.563 103.992 232.435 101.327C238.536 95.6649 247.379 94.2819 255.61 93.0146L269.683 90.8477C273.977 90.1868 278.557 89.1303 282.895 90.0676C285.032 90.5295 286.848 91.6025 288.507 92.8721C290.106 94.0957 291.825 95.4098 292.909 97.0561C293.994 98.7047 294.368 100.632 294.72 102.497C295.118 104.599 295.428 106.718 295.647 108.841C296.087 113.096 296.148 117.383 295.828 121.647C295.674 123.715 295.427 125.777 295.113 127.83C294.957 128.848 294.781 129.864 294.582 130.876C294.524 131.174 294.479 131.504 294.419 131.838C294.863 132.983 295.115 134.169 295.095 135.35C295.035 138.828 291.798 141.018 288.535 142.194C286.643 142.876 284.665 143.339 282.806 144.101C280.85 144.902 279.519 146.2 278.181 147.682C275.631 150.507 272.753 153.047 269.467 155.165C262.5 159.657 253.675 161.782 245.222 160.169C243.193 159.782 241.147 159.182 239.324 158.276C237.399 157.321 235.951 155.936 234.736 154.298C232.479 151.258 230.86 147.835 229.636 144.352C228.387 140.799 227.5 137.239 227.017 133.534C226.535 129.841 226.434 126.11 226.507 122.394Z" fill="white"/>
<path fill-rule="evenodd" clip-rule="evenodd" d="M271.417 77.6402C265.593 76.9136 257.555 79.2751 254.655 84.0368C240.808 81.0759 223.344 80.979 211.931 90.8355C200.023 102.528 214.98 117.944 224.899 121.419C224.176 124.603 225.302 144.995 233.269 154.09C239.592 161.797 254.316 165.354 261.129 156.149L261.182 156.073C261.912 155.01 261.284 155.044 260.534 155.835C253.863 161.156 244.791 161.247 237.801 155.631C224.701 145.366 226.051 120.197 232.285 105.636C250.036 103.868 269.042 108.748 281.303 120.868L280.474 125.395C280.332 126.166 280.172 126.937 280.05 127.711C279.971 128.207 279.962 128.7 280.341 129.101C281.592 130.427 283.7 128.435 285.434 127.643C285.946 127.578 286.459 127.553 286.962 127.585C295.296 128.558 293.654 143.22 284.495 140.65C283.726 140.215 283.064 140.348 282.766 140.979C280.583 142.793 279.143 146.027 275.516 149.143C274.237 150.312 273.072 151.289 271.633 152.227C270.787 153.002 268.236 153.793 269.045 155.12C270.574 158.14 279.593 148.654 281.187 146.031C286.183 147.82 291.719 147.213 296.897 146.775C324.209 145.487 320.563 119.374 298.176 102.887C293.961 100.073 289.312 97.7776 284.479 96.0112C283.819 95.77 284.107 94.7873 284.776 95.0319C287.974 96.2009 291.092 97.5923 294.064 99.2027L294.068 98.2399C294.073 96.6183 294.044 94.93 293.734 93.4484C293.579 92.4217 293.318 91.3252 292.916 90.5003C292.419 87.9712 284.635 79.29 271.417 77.6402ZM287.328 130.951C286.906 130.587 286.119 131.021 285.743 131.01C284.783 131.129 283.871 131.497 283.16 131.951C282.69 132.189 282.361 132.413 282.086 132.62L282.078 132.618C282.081 132.618 282.083 132.62 282.085 132.62L282.06 132.636C281.659 132.894 280.193 134.348 281.119 133.957C281.188 133.875 281.259 133.797 281.33 133.721C281.338 133.731 281.349 133.741 281.361 133.751L281.309 133.821C280.522 134.896 281.881 133.764 282.09 133.463C282.1 133.471 282.111 133.475 282.122 133.481L281.85 133.781C281.812 133.824 281.782 133.858 281.757 133.887L281.7 133.937C280.79 134.749 280.761 135.479 281.819 134.279C281.777 134.336 281.744 134.396 281.739 134.449L281.676 134.521C280.846 135.492 281.521 135.147 281.934 134.733L281.968 134.697L281.961 134.707C281.577 135.243 282.339 134.867 282.474 134.58L282.479 134.567C282.626 134.458 282.716 134.337 282.747 134.306L282.753 134.301C283.467 133.637 284.502 133.076 285.381 132.821C285.508 132.799 285.637 132.781 285.767 132.769C286.296 132.662 286.83 132.588 287.37 132.549C287.436 132.542 287.503 132.498 287.553 132.441C288.37 132.416 288.118 132.112 287.779 132.056L287.773 132.055L287.841 132.05C288.365 132.003 288.722 131.833 288.193 131.728L288.125 131.716C288.134 131.704 288.141 131.693 288.148 131.681C288.602 131.636 288.306 131.236 288.054 131.332C288.16 131.018 287.675 131.175 287.615 131.128C287.569 131.082 287.512 131.041 287.478 131.039C287.333 130.945 287.403 130.954 287.328 130.951ZM284.55 125.863L284.656 125.919C284.742 125.964 284.831 125.995 284.92 126.013C284.794 126.061 284.67 126.113 284.548 126.169C284.55 126.101 284.551 126.033 284.551 125.965L284.55 125.863Z" fill="black"/>
<path fill-rule="evenodd" clip-rule="evenodd" d="M240.938 144.188L240.809 144.161C239.778 143.941 238.787 143.641 237.826 144.22C236.911 144.772 236.784 145.793 237.497 146.538C238.23 147.303 239.203 147.26 240.23 147.271L240.294 147.272C241.147 147.282 242.015 147.271 242.864 147.202C243.656 147.138 244.453 147.036 245.236 146.902L245.699 146.82C246.172 146.733 246.638 146.62 246.882 146.205C247.307 145.481 244.148 144.913 243.764 144.813C242.832 144.572 241.883 144.382 240.938 144.188ZM239.186 135.46C239.689 135.934 240.354 136.258 241.101 136.459C242.978 136.965 245.373 136.696 246.906 136.18C247.224 136.073 247.521 135.855 247.692 135.582C247.848 135.333 247.901 135.04 247.782 134.741C247.748 134.656 247.707 134.573 247.666 134.491C247.553 134.268 247.324 134.094 247.055 133.995C246.775 133.891 246.457 133.87 246.202 133.943C246.168 133.953 246.133 133.963 246.097 133.973C245.126 134.251 243.533 134.711 242.213 134.622C241.421 134.568 240.725 134.314 240.364 133.657C240.174 133.311 240.227 132.968 240.395 132.654C240.649 132.181 241.158 131.769 241.586 131.485C242.19 131.085 242.835 130.925 243.501 130.757C243.752 130.693 244.006 130.629 244.263 130.552C244.347 130.526 244.422 130.477 244.477 130.412C244.532 130.348 244.568 130.27 244.579 130.192C244.591 130.111 244.576 130.03 244.535 129.96C244.497 129.896 244.435 129.839 244.343 129.802C243.04 129.272 241.354 129.622 240.081 130.455C239.445 130.872 238.915 131.407 238.588 132.005C238.284 132.56 238.155 133.168 238.274 133.789C238.407 134.484 238.732 135.033 239.186 135.46ZM260.551 123.64C260.185 123.493 259.884 124.179 259.809 124.366L259.653 124.753C259.398 125.378 259.106 126.014 258.572 126.478C258.124 126.866 257.407 127.195 256.887 126.741C256.395 126.31 256.635 125.824 256.562 125.295C256.431 124.339 254.993 123.383 254.129 124.381C252.175 126.636 255.197 129.773 257.981 129.223C259.397 128.943 260.536 127.913 261.005 126.689L261.029 126.624C261.309 125.848 261.592 124.056 260.551 123.64ZM235.344 125.21L235.357 125.182C236.288 123.262 232.969 122.437 232.688 124.161L232.67 124.277C232.396 126.19 232.973 128.763 235.556 128.954C238.457 129.168 239.664 126.233 239.405 124.079C239.359 123.694 238.843 123.641 238.684 123.991L238.65 124.067C238.181 125.15 237.737 127.231 236.087 127.229C234.985 127.228 235.037 125.878 235.344 125.21ZM233.241 119.654C231.574 119.601 231.576 121.967 233.241 122.003C238.802 122.121 244.367 122.279 249.93 122.306L250.941 122.312C256.166 122.344 261.409 122.408 266.619 122.011C267.064 121.977 266.981 121.41 266.61 121.433C261.148 120.728 255.619 120.522 250.116 120.254C244.496 119.98 238.865 119.835 233.241 119.654Z" fill="black"/>
</g>
<defs>
<clipPath id="clip0">
<rect width="375" height="596" fill="white"/>
</clipPath>
</defs>
</svg>
