<svg width="375" height="407" viewBox="0 0 375 407" fill="none" xmlns="http://www.w3.org/2000/svg">
<g clip-path="url(#clip0)">
<path fill-rule="evenodd" clip-rule="evenodd" d="M64.1958 376.985C63.2074 386.049 60.9687 396.033 65.2363 404.584C62.5485 404.705 64.7289 405.483 66.1794 405.75C67.0076 406.391 68.1207 406.645 69.1675 406.556C74.6023 407.705 80.2128 408.122 85.7312 408.772C154.63 414.497 223.991 412.977 293.019 410.51C295.264 410.412 296.77 408.781 296.942 406.584C299.472 374.246 300.731 341.809 300.667 309.373C299.543 297.974 308.155 302.422 303.561 287.402C299.867 271.559 294.401 256.138 287.431 241.444C282.613 231.882 278.073 221.82 270.729 213.891C268.408 213.571 266.432 211.264 264.471 209.977C262.485 209.59 261.013 207.902 259 207.384C255.164 206.385 246.579 204.262 243.312 206.816C243.183 206.78 243.052 206.75 242.923 206.714C242.283 207.423 241.405 206.891 240.928 206.254C239.296 204.986 232.161 204.855 231.351 202.91C227.13 199.079 226 191.017 226 186.3C224.422 184.526 224.312 184.855 222.169 183.917C220.069 181.267 217.531 178.958 214.698 177.137C198.757 166.666 175.624 177.7 171.892 195.9C165.993 200.573 159.921 205.32 152.695 207.755C149.169 205.94 145.152 205.361 141.409 205.357C138.62 205.256 134.765 203.642 132.952 206.579C102.451 216.568 84.043 245.619 70.9537 273.145C69.119 277.064 66.9241 281.168 67.4856 285.633C67.8715 290.98 73.6728 294.163 72.5765 299.83C70.9831 315.419 69.1705 330.992 67.5117 346.577C66.4062 356.713 65.301 366.849 64.1958 376.985Z" fill="white"/>
<path fill-rule="evenodd" clip-rule="evenodd" d="M287.33 302.618C285.358 303.332 282.594 304.028 281.183 305.642C281.021 304.138 280.857 302.635 280.692 301.131C284.824 301.033 288.965 300.997 293.1 300.882C291.148 301.359 289.219 301.934 287.33 302.618M278.251 397.213C276.829 397.226 275.402 397.325 273.981 397.381C271.244 397.487 268.507 397.592 265.769 397.694C260.185 397.904 254.601 398.105 249.015 398.3C237.956 398.685 226.894 399.04 215.832 399.366C193.708 400.016 171.573 400.411 149.452 401.155C143.315 401.362 137.178 401.522 131.047 401.856C127.87 402.029 124.678 402.178 121.515 402.546C118.848 402.857 116.218 403.381 113.566 403.771C113.743 400.313 113.91 396.854 114.083 393.397C114.248 390.126 114.401 386.854 114.553 383.582C124.908 384.124 135.275 384.343 145.644 384.435C156.612 384.533 167.577 384.806 178.546 384.827C200.261 384.87 221.977 384.596 243.691 384.379C249.832 384.316 255.974 384.255 262.116 384.193C265.187 384.163 268.258 384.132 271.328 384.1C272.861 384.085 274.403 384.118 275.935 384.055C277.569 383.987 278.562 383.522 279.748 382.421C280.381 381.834 280.408 380.639 279.748 380.057C278.796 379.216 277.913 378.571 276.593 378.476C275.297 378.383 273.944 378.511 272.644 378.528C269.793 378.565 266.942 378.603 264.09 378.641C258.606 378.713 253.123 378.785 247.639 378.857C236.672 379.001 225.704 379.149 214.738 379.316C203.989 379.48 193.24 379.602 182.494 379.872C171.522 380.149 160.562 380.648 149.592 381.001C137.916 381.376 126.245 381.824 114.595 382.7C114.875 376.636 115.133 370.569 115.375 364.503C138.508 365.762 161.656 366.659 184.826 366.698C208.966 366.739 233.105 366.327 257.236 365.696C260.637 365.607 264.037 365.517 267.437 365.411C269.192 365.356 270.946 365.305 272.701 365.241C273.991 365.195 275.317 365.139 276.483 364.522C278.785 363.304 279.182 359.748 276.451 358.775C274.958 358.243 273.375 358.763 273.012 360.11C272.9 360.12 272.794 360.129 272.701 360.133C271.385 360.183 270.069 360.219 268.753 360.261C265.901 360.351 263.05 360.444 260.198 360.534C254.933 360.698 249.668 360.851 244.402 360.99C233.652 361.275 222.9 361.507 212.148 361.686C190.859 362.041 169.573 362.369 148.287 362.856C137.325 363.107 126.367 363.432 115.407 363.71C115.669 357.116 115.916 350.521 116.139 343.926C116.165 343.153 116.193 342.38 116.221 341.607C117.792 341.952 119.4 342.143 121 342.37C123.777 342.763 126.562 343.054 129.35 343.348C134.604 343.903 139.875 344.243 145.149 344.534C155.9 345.127 166.654 345.546 177.417 345.873C198.706 346.522 220.022 346.663 241.32 346.59C252.885 346.551 264.521 346.703 276.081 346.199C276.793 346.394 277.527 346.374 278.237 346.142C278.82 356.452 279.436 366.759 280.041 377.068C280.449 384.023 280.809 391.001 281.311 397.959C280.331 397.476 279.43 397.203 278.251 397.213M77.8338 292.47C75.8057 291.477 73.5689 290.571 71.7784 289.165C69.8212 287.628 69.3406 285.823 69.942 283.41C69.9869 283.23 70.0397 283.05 70.0866 282.871C84.5092 282.906 98.8952 282.271 113.312 281.929C127.958 281.581 142.6 281.289 157.251 281.206C186.469 281.041 215.683 281.701 244.887 282.521C255.405 282.817 265.922 283.108 276.44 283.395C276.2 285.96 276.292 288.589 276.238 291.136C276.19 293.373 276.202 295.614 276.236 297.854C270.733 297.841 265.233 297.722 259.73 297.66C246.107 297.506 232.491 297.897 218.871 298.209C191.632 298.833 164.386 299.323 137.153 300.144C129.756 300.366 122.312 300.483 114.881 300.8C114.626 299.591 114.342 298.389 114.022 297.194C113.514 295.296 112.94 293.345 111.42 292.026C111.347 291.962 111.246 291.99 111.213 292.081C110.636 293.681 110.782 295.311 110.951 296.988C111.085 298.313 111.175 299.642 111.242 300.972C106.622 301.215 102.011 301.557 97.424 302.069C96.1125 301.421 94.8003 300.774 93.4861 300.13C88.2695 297.575 83.0512 295.023 77.8338 292.47M245.274 340.132C234.513 340.219 223.751 340.228 212.99 340.159C191.689 340.022 170.395 339.498 149.099 339.075C143.172 338.958 137.253 338.841 131.325 338.841C128.256 338.841 125.177 338.861 122.111 338.994C120.182 339.078 118.226 339.09 116.305 339.322C116.537 333.116 116.778 326.903 116.77 320.693C137.087 323.771 157.622 324.616 178.139 325.222C198.926 325.836 219.717 326.154 240.513 326.184C246.422 326.193 252.332 326.18 258.242 326.145C261.087 326.128 263.933 326.106 266.778 326.08C268.307 326.065 269.846 326.096 271.374 326.032C272.99 325.964 273.966 325.581 275.094 324.431C275.672 323.843 275.701 322.827 275.094 322.242C273.08 320.297 270.71 320.72 268.091 320.752C265.465 320.785 262.838 320.813 260.212 320.836C254.959 320.884 249.706 320.915 244.452 320.928C234.165 320.954 223.878 320.915 213.591 320.81C192.801 320.597 172.016 320.135 151.231 319.648C139.74 319.378 128.251 319.452 116.769 320.01C116.765 318.979 116.755 317.948 116.735 316.917C116.66 313.012 116.279 309.107 115.684 305.246C121.311 305.226 126.938 305.106 132.54 305.034C146.161 304.859 159.779 304.585 173.398 304.311C186.908 304.041 200.418 303.77 213.928 303.498C227.429 303.228 240.972 303.208 254.458 302.479C261.735 302.085 269.015 301.55 276.298 301.269C276.313 301.938 276.327 302.607 276.341 303.276C276.516 311.48 276.837 319.677 277.25 327.873C277.449 331.811 277.659 335.749 277.874 339.687C277.77 339.676 277.663 339.67 277.554 339.669C266.801 339.598 256.028 340.045 245.274 340.132M74.9934 268.877C76.2254 265.706 77.5636 262.556 79.0102 259.449C85.1514 261.184 91.7024 262.078 98.0404 262.674C104.788 263.308 111.548 263.664 118.323 263.803C131.68 264.075 145.037 263.442 158.379 262.89C185.823 261.756 213.264 260.929 240.734 260.875C248.405 260.86 256.076 260.896 263.747 260.982C267.582 261.026 271.417 261.077 275.252 261.143C277.224 261.177 279.196 261.215 281.168 261.255C282.042 261.273 282.925 261.338 283.798 261.311C284.965 261.276 285.817 260.925 286.9 260.503C288.144 260.018 288.877 257.938 287.325 257.249C285.775 256.56 284.531 256.157 282.812 256.119C280.949 256.079 279.087 256.042 277.224 256.008C273.827 255.946 270.43 255.894 267.034 255.852C260.131 255.765 253.226 255.729 246.323 255.73C232.734 255.732 219.145 255.892 205.56 256.212C178.287 256.854 151.075 258.756 123.811 259.572C116.297 259.797 108.768 259.841 101.253 259.615C93.9742 259.397 86.7109 258.784 79.4409 258.526C81.9521 253.23 84.7933 248.073 87.9993 243.17C100.118 243.596 112.212 243.28 124.333 242.911C130.694 242.717 137.055 242.521 143.415 242.303C146.595 242.194 149.776 242.085 152.956 241.976C154.491 241.923 156.026 241.87 157.562 241.818C159.216 241.761 160.956 241.868 162.563 241.433C162.853 241.354 163.084 241.186 163.258 240.971C167.534 243.172 172.056 244.907 176.706 246.193C186.8 248.986 197.657 250.033 208.096 249.174C216.474 248.484 224.824 246.41 232.19 242.348C248.825 243.88 265.693 243.16 282.363 243.051C283.956 243.041 284.618 241.581 284.352 240.377C289.702 251.911 293.246 264.416 296.563 276.578C298.624 284.137 300.458 291.743 302.203 299.376C302.131 299.382 302.058 299.389 301.986 299.396C302.188 298.56 301.733 297.574 300.589 297.548C293.842 297.393 287.074 297.78 280.324 297.843C280.135 296.154 279.945 294.465 279.745 292.777C279.471 290.477 279.146 288.183 278.868 285.883C278.767 285.05 278.673 284.244 278.559 283.453C283.902 283.598 289.246 283.745 294.59 283.886C298.058 283.978 298.051 278.605 294.59 278.499C265.225 277.599 235.859 276.691 206.484 276.192C177.091 275.693 147.597 275.385 118.227 276.892C102.222 277.713 86.2563 278.811 70.4502 281.52C71.6778 277.234 73.3904 273.003 74.9934 268.877M99.9876 228.051C100.519 228.45 100.69 228.702 101.485 228.841C102.347 228.992 103.233 229.04 104.103 229.126C105.965 229.308 107.831 229.376 109.699 229.464C113.429 229.642 117.159 229.829 120.892 229.943C128.302 230.168 135.871 230.487 143.277 230.157C145.089 230.076 145.914 228.582 145.749 227.22C147.138 228.941 148.657 230.556 150.274 232.029C152.875 234.396 155.682 236.495 158.641 238.347C156.722 238.417 154.767 238.658 152.955 238.736C149.884 238.868 146.813 238.999 143.743 239.131C137.272 239.409 130.802 239.708 124.332 240.01C112.358 240.57 100.425 241.267 88.4969 242.41C91.9036 237.288 95.7196 232.457 99.9876 228.051M294.873 252.929C289.814 239.036 283.291 224.605 271.553 215.064C265.52 210.159 258.798 206.766 251.186 205.159C250.952 205.109 250.859 205.442 251.087 205.517C264.251 209.838 273.993 221.27 280.583 232.986C281.777 235.109 282.883 237.283 283.93 239.489C283.589 239.074 283.068 238.798 282.363 238.809C266.796 239.071 251.047 238.807 235.515 240.328C235.912 240.064 236.308 239.8 236.697 239.523C240.94 236.498 244.757 232.797 247.913 228.605C249.814 229.087 251.815 229.204 253.755 229.389C256.343 229.635 258.949 229.747 261.546 229.887C264.138 230.026 266.741 230.039 269.336 230.102C271.12 230.145 274.607 230.442 274.609 227.712C274.611 224.979 271.121 225.268 269.336 225.304C266.741 225.355 264.139 225.363 261.546 225.485C259.059 225.601 256.558 225.695 254.079 225.918C252.567 226.053 251.011 226.143 249.491 226.383C251.965 222.69 253.934 218.667 255.249 214.425C255.382 213.998 255.425 213.599 255.403 213.229C255.961 212.64 256.317 211.834 256.317 211.094C256.317 209.337 254.948 208.307 253.348 208.124C247.015 207.4 240.038 206.368 234.935 202.203C232.632 200.323 230.779 198.101 229.036 195.709C227.076 193.022 226.342 189.635 226.334 186.345C226.334 186.161 226.028 186.105 226 186.3C225.041 192.971 226.424 200.585 231.21 205.583C235.908 210.49 242.291 212.328 248.768 213.401C246.097 221.032 241.689 227.735 235.501 233.006C228.605 238.879 219.876 242.02 210.976 243.206C201.375 244.485 191.311 243.863 181.869 241.775C172.774 239.763 163.876 236.166 156.473 230.425C152.738 227.528 149.302 224.113 146.309 220.459C143.838 217.443 141.943 214.079 139.822 210.848C147.735 213.019 157.303 210.054 163.931 205.866C167.835 203.4 171.255 200.321 174.065 196.658C175.451 194.851 176.684 192.944 177.7 190.905C178.229 189.844 178.705 188.753 179.142 187.651C179.412 186.971 179.677 186.272 179.677 185.524C179.676 184.974 179.537 184.46 179.261 183.985C178.694 183.383 178.581 183.208 178.923 183.461C178.366 182.32 176.756 182.03 175.726 182.622C175.342 182.843 174.439 183.271 173.995 183.985C173.695 184.468 173.534 185.045 173.341 185.575C173.038 186.411 172.732 187.237 172.351 188.042C171.467 189.913 170.406 191.698 169.196 193.376C166.984 196.443 164.14 199.217 161.043 201.382C157.792 203.654 154.288 205.512 150.488 206.672C146.473 207.896 142.5 208.262 138.359 208.711C138.315 208.65 138.272 208.588 138.227 208.527C138.148 208.417 137.975 208.452 137.968 208.597C137.965 208.667 137.966 208.736 137.964 208.805C137.374 209.082 137.325 209.915 137.983 210.234C138.227 214.067 139.88 217.841 141.681 221.157C142.432 222.539 143.279 223.877 144.198 225.17C143.926 225.066 143.621 225.001 143.278 224.987C135.869 224.703 128.302 225.069 120.893 225.34C117.269 225.473 113.65 225.676 110.029 225.87C108.163 225.97 106.292 226.034 104.433 226.227C103.503 226.324 102.567 226.4 101.642 226.539C101.575 226.549 101.513 226.56 101.454 226.571C103.743 224.316 106.155 222.18 108.701 220.188C117.055 213.65 126.649 208.324 136.886 205.427C136.983 205.4 136.968 205.234 136.861 205.245C116.501 207.328 99.541 220.163 87.677 236.279C81.0941 245.221 76.1012 255.121 71.8049 265.329C69.6394 270.474 67.5904 275.711 65.8745 281.025C65.0024 283.726 64.6092 286.591 65.8584 289.241C66.8163 291.273 68.584 292.784 70.4369 293.984C70.5601 294.065 70.6868 294.139 70.8113 294.217C68.9171 300.818 67.6482 307.592 66.4308 314.345C65.1084 321.682 63.9546 329.049 62.9637 336.437C60.983 351.205 59.4659 366.005 58.8033 380.895C58.6201 385.013 58.4977 389.135 58.4442 393.257C58.4175 395.319 58.4293 397.381 58.4574 399.443C58.4894 401.75 58.1771 404.354 59.3513 406.413C60.9203 409.165 63.9675 408.218 65.3077 406.336C65.3272 406.361 65.3474 406.387 65.3672 406.413C65.4886 406.174 65.5903 405.935 65.6771 405.697C65.8214 405.38 65.9155 405.048 65.9498 404.71C66.2023 403.432 66.1073 402.134 66.097 400.745C66.0822 398.792 66.0934 396.838 66.099 394.884C66.1099 391.196 66.1518 387.509 66.2568 383.821C66.4671 376.448 66.8777 369.082 67.4392 361.727C68.555 347.118 70.2009 332.575 71.6095 317.994C72.3265 310.57 73.1913 303.127 73.3405 295.663C75.0792 296.579 76.8733 297.409 78.6087 298.293C81.8285 299.932 85.0481 301.572 88.2676 303.211C91.3901 304.802 94.5171 306.382 97.6456 307.961C100.8 309.553 103.933 311.658 107.482 312.049C109.379 312.258 110.066 309.702 108.948 308.508C107.489 306.949 105.55 305.98 103.602 305.072C106.191 305.167 108.783 305.218 111.377 305.238C111.412 308.502 111.297 311.774 111.133 315.032C110.731 323.021 110.171 330.997 109.641 338.979C108.539 355.571 107.472 372.172 106.64 388.779C106.436 392.847 106.232 396.915 106.028 400.982C105.929 402.96 105.792 404.94 105.735 406.919C105.673 409.139 105.727 411.922 107.781 413.294C109.233 414.262 110.794 413.805 111.884 412.474C113.34 410.694 113.338 408.114 113.455 405.929C113.482 405.424 113.506 404.919 113.533 404.415C115.757 404.703 117.966 405.101 120.201 405.319C122.93 405.586 125.676 405.742 128.418 405.813C134.007 405.957 139.588 406.008 145.179 406.008C156.245 406.009 167.309 405.819 178.372 405.641C200.5 405.283 222.625 404.664 244.745 403.977C250.877 403.786 257.009 403.586 263.141 403.378C266.317 403.27 269.492 403.159 272.668 403.046C275.673 402.939 278.957 403.328 281.602 401.767C281.679 402.717 281.757 403.668 281.84 404.617C281.999 406.416 283.263 407.961 285.183 407.961C286.986 407.961 288.536 406.431 288.525 404.617C287.851 388.21 286.393 371.802 285.238 355.422C284.177 340.377 283.183 325.312 281.666 310.303C282.097 310.581 282.623 310.754 283.243 310.756C285.224 310.765 287.202 309.535 289.056 308.882C290.927 308.222 292.828 307.652 294.756 307.184C295.896 306.907 297.042 306.675 298.191 306.477C298.052 308.825 298.088 311.194 298.044 313.534C297.977 317.131 297.866 320.726 297.778 324.322C297.606 331.407 297.545 338.492 297.41 345.578C297.137 359.862 296.688 374.138 295.925 388.405C295.715 392.325 295.48 396.244 295.218 400.161C295.08 402.228 294.935 404.295 294.782 406.361C294.632 408.392 294.282 410.55 295.046 412.497C295.071 412.483 295.095 412.469 295.119 412.455C295.652 414.131 297.996 414.936 299.103 413.028C300.828 410.054 300.43 405.791 300.629 402.445C300.841 398.855 301.032 395.264 301.201 391.671C301.539 384.485 301.774 377.297 301.91 370.104C302.182 355.715 302.135 341.305 301.256 326.938C301.015 323.009 300.679 319.088 300.333 315.168C300.074 312.23 299.931 309.211 299.473 306.271C301.714 305.941 303.972 305.749 306.252 305.692C308.459 305.637 309.882 303.646 309.414 301.539C305.751 285.033 300.655 268.806 294.873 252.929" fill="black"/>
<path fill-rule="evenodd" clip-rule="evenodd" d="M264.879 77.2574C264.768 73.3084 259.026 71.6688 257.367 75.5798C257.264 75.6845 257.153 75.7852 257.048 75.8753C257.567 75.4298 256.481 76.1669 256.305 76.2581C256.153 76.336 255.999 76.4064 255.845 76.479C254.778 66.4749 251.156 55.6901 241.797 50.6685C228.743 44.3359 213.66 43.0999 199.339 43.7289C192.084 44.1596 183.706 45.32 177.261 41.6485C175.253 40.5045 173.643 38.7038 171.373 37.9967C164.209 36.0579 160.959 43.4175 161.935 49.4698C158.879 49.4939 155.848 51.1863 154.529 53.9728C153.755 55.622 153.768 57.4017 153.101 59.0568C151.052 63.2541 148.12 66.2711 149.777 71.36C146.862 74.6786 148.524 79.7024 150.877 82.8796C152.038 84.5321 153.422 86.1186 154.273 87.9682C155.099 89.7393 153.852 91.8395 153.158 93.5185C148.028 105.687 148.321 119.089 151.082 131.781C145.543 134.186 143.88 141.702 147.492 146.435C148.735 148.108 150.251 148.728 151.971 149.758C154.147 150.956 152.369 155.755 153.066 158.072C154.013 163.73 159.163 167.215 164.255 163.54C167.486 163.051 170.092 172.456 172.438 174.817C173.884 176.719 175.489 178.427 177.234 180.003C182.433 193.386 209.074 200.172 222.246 199.397C236.04 197.953 245.345 186.234 253.093 175.833C257.072 170.292 259.66 164.089 260.601 157.324C261.546 150.526 261.133 143.714 260.494 136.907C259.151 122.444 257.033 101.608 255.665 86.9887C260.608 86.5815 265.029 82.372 264.879 77.2574V77.2574Z" fill="white"/>
<path fill-rule="evenodd" clip-rule="evenodd" d="M157.137 68.5618C157.132 68.5822 157.139 68.5978 157.144 68.6196C157.145 68.6133 157.146 68.61 157.147 68.6024C157.143 68.5859 157.14 68.575 157.137 68.5618" fill="#4F66AF"/>
<path fill-rule="evenodd" clip-rule="evenodd" d="M157.135 68.7723C157.117 68.7532 157.091 68.739 157.065 68.7198C157.065 68.7205 157.064 68.7211 157.064 68.7218C157.088 68.7376 157.111 68.7558 157.135 68.7723" fill="#4F66AF"/>
<path fill-rule="evenodd" clip-rule="evenodd" d="M264.092 79.1261C265.716 77.7768 268.273 79.0191 267.723 81.2406C267.124 83.6599 264.532 85.3131 262.393 86.3071C260.19 87.3298 258.045 87.527 255.642 87.4154L255.612 87.4087V87.4087C256.279 90.0846 256.658 92.8662 257.168 95.5583C257.816 98.9736 258.453 102.391 259.08 105.809C259.687 109.113 260.455 112.422 260.921 115.743C261.392 119.095 261.843 122.45 262.306 125.803C263.077 131.403 263.699 137.029 264.356 142.646L264.669 145.305C265.326 150.932 265.855 156.566 264.609 162.165C263.442 167.413 260.812 172.309 257.761 176.69C254.773 180.979 251.435 185.104 247.771 188.835C240.704 196.032 231.989 201.795 221.771 202.864C217.371 203.324 212.671 202.812 208.535 201.212L208.26 201.105C204.073 199.451 198.945 196.619 197.855 191.972C197.186 189.122 200.122 186.896 202.697 188.249C203.89 188.876 204.786 189.592 205.766 190.49L205.939 190.65C206.74 191.394 207.048 191.622 207.971 192.204C209.865 193.396 211.284 193.96 213.435 194.501C217.401 195.499 221.681 195.341 225.707 194.161C234.255 191.655 240.886 185.117 246.567 178.561C249.651 175 252.579 171.266 254.837 167.116C257.206 162.763 258.3 158.192 258.234 153.238C258.16 147.649 257.388 142.038 256.881 136.475C256.365 130.804 255.887 125.135 255.467 119.456C255.073 114.13 255.035 108.781 254.897 103.438L254.87 102.437C254.789 99.6007 254.733 96.7636 254.669 93.9269C254.605 91.0985 254.381 88.234 254.672 85.4174C254.693 85.2124 254.969 85.1605 255.037 85.3679C255.208 85.8956 255.358 86.4316 255.5 86.9705C255.522 86.954 255.547 86.9392 255.576 86.9289C257.459 86.2817 259.193 84.9894 260.606 83.5959C261.954 82.266 262.658 80.3179 264.092 79.1261ZM161.075 39.4987C162.258 34.6389 167.58 33.5535 171.516 35.8938C173.409 37.0193 174.925 38.6424 176.694 39.9323C178.452 41.2149 180.395 42.2449 182.445 42.9724C186.518 44.4175 190.815 44.9429 195.12 44.9618C205.597 45.0077 215.861 42.062 226.354 42.3905C234.473 42.6448 243.091 45.0453 248.98 50.9169C252.153 54.0799 254.197 58.1464 255.294 62.4635C255.806 64.4812 256.188 66.5479 256.49 68.6097L256.563 69.125C256.732 70.3301 257.003 71.6058 257.028 72.8237C257.051 73.9174 256.774 75.062 256.624 76.1445C256.308 78.4264 252.775 78.1665 252.267 76.1445C251.111 71.5407 251.595 66.7893 250.182 62.2013C248.93 58.1328 246.502 54.5756 242.984 52.1427C228.143 41.879 209.11 50.474 192.758 49.6755C188.762 49.4804 184.706 48.8625 180.936 47.4857C178.992 46.7757 177.079 45.9099 175.316 44.8207C173.701 43.8235 172.302 42.5706 170.807 41.4176L170.148 40.9162C169.123 40.145 167.379 38.9391 166.345 39.9594C165.895 40.4035 165.868 41.4076 165.876 42.1744L165.881 42.521C165.928 45.7764 166.591 49.026 165.373 52.1711C164.818 53.6057 163.274 54.5102 161.805 53.6978L161.73 53.6542C158.624 51.8057 154.543 55.52 156.929 58.594L157.003 58.687C158.346 60.3191 157.63 63.1931 155.227 63.1859L155.141 63.1844C150.86 63.0507 148.961 68.4028 152.65 70.7413L152.764 70.8112C155.76 72.6047 153.132 76.9166 150.062 75.4362C150.322 75.5616 149.87 75.56 149.611 75.9074C149.362 76.2409 149.344 76.5296 149.403 76.9509C149.582 78.2276 150.704 79.3035 151.614 80.1113C153.679 81.9464 156.239 83.2135 158.876 83.9849C169.443 87.0753 180.284 83.2951 190.579 81.0122C201.313 78.6322 213.435 77.6735 222.796 84.4271C222.907 84.507 222.81 84.6857 222.687 84.6144C215.969 80.7117 207.741 81.0581 200.398 82.6581C190.769 84.7564 181.224 88.6621 171.362 89.6911C174.131 94.5805 175.289 100.355 174.55 105.948C174.041 109.798 172.509 113.137 170.7 116.521L170.355 117.166C168.742 120.203 167.493 123.073 167.473 126.592C167.454 130.088 162.258 130.825 161.377 127.417C159.378 119.678 166.662 113.583 169.634 107.201C172.174 101.745 172.252 95.3847 170.197 89.7987C167.877 89.9853 165.54 90.0048 163.179 89.7941C161.151 89.6128 159.065 89.2472 157.032 88.6687L156.218 92.0898C155.14 96.6468 154.142 101.201 153.839 105.934C153.616 109.412 153.628 112.907 153.967 116.377C154.26 119.373 154.879 122.263 155.508 125.189C156.048 125.901 156.324 126.992 156.173 127.861C159.678 128.871 162.436 131.638 163.443 135.303C163.505 135.527 163.192 135.652 163.075 135.459C160.685 131.491 154.53 130.031 150.636 132.652C146.918 135.155 145.451 140.207 147.556 144.207C148.663 146.31 150.305 147.788 152.421 148.806L152.847 149.006C153.956 149.531 154.974 150.103 155.687 151.158C156.613 152.526 156.644 153.971 156.556 155.534L156.519 156.168C156.46 157.216 156.447 158.294 156.759 159.302L156.83 159.526C156.912 159.777 156.999 159.999 157.149 160.239C157.194 160.31 157.615 160.724 157.752 160.874L157.925 160.926V160.926L158.119 160.934V160.934C158.333 160.937 158.615 160.844 158.523 160.908L158.548 160.894C158.629 160.843 158.704 160.79 158.767 160.742L158.887 160.648C159.167 160.243 159.519 159.908 159.949 159.653L160.361 159.47V159.47C161.43 158.34 163.262 158.934 164.029 160.059C164.58 160.868 164.877 161.691 164.902 162.502C164.988 162.364 165.179 162.288 165.301 162.443L166.028 163.369C168.808 166.923 171.541 170.5 174.701 173.74C176.441 175.525 178.314 177.203 180.271 178.748C181.942 180.067 185.112 181.337 185.16 183.74C185.175 184.52 184.622 185.072 183.944 185.337C181.74 186.198 179.015 183.268 177.423 181.842L177.293 181.727C175.344 180.019 173.566 178.145 171.924 176.14C168.736 172.246 166.071 167.765 164.896 162.835C164.841 163.695 164.472 164.538 163.753 165.334C162.797 166.392 161.488 167.135 160.09 167.441C156.923 168.133 153.83 166.993 151.946 164.353C150.353 162.12 149.884 159.173 150.09 156.476L150.115 156.153C150.144 155.72 150.181 154.927 150.292 154.589L149.295 154.041V154.041C148.072 153.39 146.939 152.537 145.922 151.599C141.834 147.829 139.784 141.702 141.652 136.341C142.821 132.987 145.277 130.069 148.423 128.552C147.897 127.337 147.721 125.893 147.523 124.616L147.489 124.405C147.153 122.31 146.872 120.189 146.764 118.068C146.564 114.109 146.807 110.112 147.429 106.199C148.44 99.8422 150.531 93.1007 154.364 87.7681C151.44 86.6063 148.748 84.9245 146.67 82.589C144.499 80.1486 143.115 76.6547 144.794 73.5555C145.222 72.7655 145.779 72.1014 146.42 71.5741C145.309 69.4751 144.949 66.9944 145.635 64.6233C146.454 61.7885 148.679 59.5776 151.366 58.5453C150.714 55.8595 151.247 52.9706 153.241 50.7323C155.219 48.5118 158.291 47.703 161.134 48.2106C161.288 45.3541 160.389 42.3159 161.075 39.4987ZM153.102 139.791C155.709 138.515 158.798 138.718 161.401 139.927L161.578 140.011C164.42 141.39 168.185 144.611 167.282 148.038C166.753 150.042 164.527 150.726 162.801 149.861C161.36 149.138 161.031 147.846 160.308 146.548C159.796 145.63 159.164 144.912 158.422 144.174C156.857 142.619 155.099 141.464 153.102 140.54C152.814 140.406 152.824 139.927 153.102 139.791ZM218.777 70.5309C218.533 70.4193 218.71 70.0366 218.956 70.1066C225.505 71.9777 231.612 76.1776 235.261 82.0073C235.484 82.3629 235.518 82.9484 235.261 83.3005L235.143 83.4602C234.976 83.6788 234.811 83.8401 234.496 83.8889C233.904 83.9807 233.39 83.8265 233.05 83.3005C229.455 77.7439 224.849 73.3095 218.777 70.5309ZM262.623 71.6312C263.178 70.6911 264.649 70.8803 264.942 71.9344L264.984 72.0261C265.142 72.3855 265.07 72.459 264.776 72.2557C265.506 72.8574 265.836 73.7537 265.613 74.7173C264.407 79.9218 258.515 83.6382 253.378 83.1267C252.929 83.0821 252.868 82.531 253.275 82.3665C255.251 81.566 257.005 80.2659 258.416 78.6705C259.787 77.1197 260.363 75.3454 261.101 73.4726C261.377 72.7696 261.808 72.2633 262.414 71.9869C262.494 71.8759 262.564 71.7577 262.623 71.6312ZM233.41 68.2868L233.446 68.289C236.085 68.6302 238.368 69.9333 240.222 71.8427C242.007 73.6815 244.26 76.7157 244.067 79.414C243.939 81.2029 241.397 82.2256 240.448 80.3948C239.882 79.3024 239.754 78.1049 239.357 76.9498C238.993 75.8911 238.491 74.8858 237.889 73.943C236.651 72.0006 234.948 70.355 233.205 68.8703C233.001 68.6965 233.143 68.2877 233.41 68.2868V68.2868ZM165.71 67.494C165.124 66.9366 165.733 65.9862 166.477 66.1744C170.403 67.1687 174.291 68.3781 178.373 68.4983C180.412 68.558 182.439 68.3972 184.459 68.1334L185.481 67.9975C187.056 67.7919 188.658 67.6304 190.215 67.954C191.253 68.1697 191.455 69.5071 190.809 70.2049C187.755 73.5003 181.864 73.1853 177.814 72.6298C173.416 72.0262 168.979 70.6095 165.71 67.494ZM236.606 57.2222C236.337 56.8494 236.789 56.2609 237.217 56.4263C241.119 57.9348 245.208 61.8623 246.282 65.9714C246.566 67.0569 245.198 67.8766 244.395 67.0708C242.897 65.5692 241.84 63.7955 240.575 62.1077C239.313 60.4251 237.837 58.9308 236.606 57.2222ZM172.679 59.0574C172.366 58.7447 172.681 58.1218 173.13 58.281C175.671 59.1809 178.23 59.9596 180.898 60.3681C183.632 60.7862 186.391 60.4685 189.138 60.6379C190.25 60.7063 191.007 62.436 189.771 62.9743C184.281 65.3656 176.824 63.1972 172.679 59.0574ZM179.695 53.6938C179.258 53.3709 179.507 52.4845 180.1 52.7319C182.519 53.7394 184.966 53.9871 187.562 53.8834C188.521 53.8448 188.722 55.3523 187.788 55.5557C184.918 56.1802 182.04 55.4282 179.695 53.6938Z" fill="black"/>
<path fill-rule="evenodd" clip-rule="evenodd" d="M207.069 163.457C207.104 159.819 210.256 159.191 213.25 159.677C218.319 160.497 223.406 161.074 228.544 161.178L229.429 161.194V161.194C229.572 160.986 229.81 160.828 230.133 160.793C232.981 160.485 235.89 160.535 238.754 160.451C241.252 160.377 243.819 160.127 246.316 160.323L246.515 160.341C249.567 160.637 252.789 162.195 252.42 165.779C252.081 169.097 248.91 172.035 246.378 173.879C245.866 174.249 245.342 174.595 244.804 174.911C244.635 175.127 244.388 175.277 244.103 175.308C241.609 176.655 238.858 177.452 236.01 177.718C229.972 178.28 222.952 177.671 217.152 175.054C215.267 174.203 213.508 173.14 211.953 171.835C209.556 169.821 207.042 166.768 207.069 163.457ZM230.86 170.672C228.439 170.599 226.023 170.938 223.717 171.685C222.155 172.189 220.731 173.159 219.234 173.833C224.279 175.758 230.14 176.178 235.317 175.827C237.587 175.673 239.789 175.15 241.84 174.249C241.521 174.018 241.197 173.783 240.858 173.579C239.835 172.959 238.765 172.432 237.649 172.012C235.475 171.196 233.181 170.745 230.86 170.672ZM231.671 138.854C231.018 138.385 231.536 136.832 232.931 137.072C245.607 139.25 239.039 161.092 222.856 149.106C220.929 147.551 223.263 144.127 225.339 145.458L226.077 146.027C228.474 147.865 232.439 150.644 235.28 147.662C237.962 143.904 234.163 140.37 231.671 138.854ZM240.252 122.323C242.947 120.023 246.326 121.718 248.31 124.048L248.659 124.464C249.056 124.939 249.496 125.493 249.76 126.084C251.958 124.212 254.939 122.894 257.791 123.75C260.557 124.582 262.135 127.224 261.66 130.061C261.121 133.286 258.681 135.454 256.06 137.13L255.317 137.603C252.167 139.611 249.219 141.635 246.627 144.396C246.204 144.845 245.29 144.786 245.013 144.188L244.79 143.708V143.708L244.564 143.227C242.725 139.304 240.754 135.407 239.137 131.392C237.938 128.416 237.549 124.628 240.252 122.323ZM209.538 124.406L209.949 123.932C211.923 121.633 215.267 120.094 217.905 122.323C220.713 124.698 220.162 128.624 218.911 131.652C217.404 135.305 215.645 138.877 213.954 142.459L213.593 143.227C213.441 143.547 213.293 143.868 213.144 144.188C212.867 144.786 211.949 144.845 211.53 144.396C209.018 141.721 206.176 139.742 203.141 137.797L202.224 137.214C199.56 135.523 197.042 133.34 196.494 130.061C196.025 127.231 197.593 124.572 200.362 123.75C203.221 122.901 206.195 124.209 208.397 126.085C208.66 125.478 209.111 124.906 209.538 124.406V124.406ZM213.15 107.917C214.114 109.169 213.085 111.216 211.677 111.539C209.933 111.941 208.172 111.697 206.46 112.194C204.891 112.65 203.389 113.564 202.044 114.475C200.511 115.513 199.099 116.672 197.801 117.993C197.029 118.778 196.057 120.64 194.866 120.674C193.683 120.709 195.271 117.007 195.403 116.686C196.336 114.406 197.647 112.308 199.286 110.47C202.522 106.843 209.374 103.016 213.15 107.917ZM249.281 106.915L250.089 107.139C252.087 107.695 254.221 108.378 255.935 109.576L256.07 109.672L256.278 109.824C258.43 111.429 261.475 114.632 259.95 117.427C259.845 117.619 259.622 117.638 259.442 117.56C257.414 116.671 255.91 114.896 253.753 114.154L253.355 114.018C251.266 113.314 248.681 112.574 246.432 112.642C244.851 113.156 242.716 112.73 242.304 110.804L242.286 110.71L242.25 110.511C242.013 109.195 242.365 107.518 243.725 106.884C245.588 106.015 247.406 106.401 249.281 106.915Z" fill="black"/>
<path fill-rule="evenodd" clip-rule="evenodd" d="M202.264 172.81C204.936 166.547 210.769 161.943 217.485 160.26C222.417 159.027 227.593 159.067 232.621 159.556C235.255 159.811 238.08 160.019 240.562 160.998C242.682 161.834 244.409 163.414 245.708 165.269C247.254 167.467 248.306 169.983 249.045 172.561C249.149 172.928 249.248 173.297 249.34 173.669C249.019 175.614 248.337 177.27 246.536 178.493C244.778 179.688 242.681 180.176 240.59 180.35C240.385 180.251 240.187 180.15 240.005 180.046C236.747 178.18 234.454 173.771 230.342 174.368C226.672 174.901 224.256 179.52 222.073 182.229C215.068 183.045 208.068 180.94 202.368 176.932C202.078 175.561 202.062 174.177 202.264 172.81M254.101 168.059C253.541 166.486 252.835 164.962 251.998 163.526C249.232 158.78 244.986 154.997 239.945 152.835C228.021 147.728 212.593 151.328 202.963 159.705C199.674 162.568 196.348 166.776 195.342 171.303C195.042 171.362 194.758 171.519 194.525 171.739C187.568 167.357 180.403 163.141 174.797 157.067C170.725 152.653 167.893 147.43 166.159 141.691C166.017 141.219 165.256 141.288 165.279 141.81C165.286 141.933 165.292 142.055 165.299 142.177C165.226 141.952 164.883 142.068 164.857 142.286C163.924 149.258 162.757 156.65 163.832 163.659C164.475 167.841 166.374 170.902 168.912 174.208C171.632 177.752 174.711 181.048 177.859 184.208C179.857 186.215 181.944 188.529 184.39 190C187.235 191.709 190.462 193.009 193.499 194.327C196.588 195.673 199.723 196.916 202.917 197.994C209.303 200.156 215.903 201.65 222.618 202.304C227.995 202.827 234.14 203.396 239.293 201.372C243.242 199.822 246.43 197.019 248.959 193.646C251.711 189.973 253.887 185.79 255.09 181.378C256.34 176.796 254.364 168.798 254.101 168.059" fill="black"/>
</g>
<defs>
<clipPath id="clip0">
<rect width="375" height="406.25" fill="white"/>
</clipPath>
</defs>
</svg>
