<svg width="375" height="407" viewBox="0 0 375 407" fill="none" xmlns="http://www.w3.org/2000/svg">
<g clip-path="url(#clip0)">
<path fill-rule="evenodd" clip-rule="evenodd" d="M304.12 367.085C302.789 359.567 301.569 352.03 300.461 344.476C299.935 340.89 299.421 337.3 298.96 333.705C298.637 331.186 298.145 328.305 299.858 326.439C302.269 323.813 304.459 321.566 304.754 317.804C305.031 314.265 303.835 310.407 303.087 306.971C301.518 299.767 299.565 292.652 297.407 285.604C295.215 278.443 292.811 271.35 290.373 264.271C288.093 257.651 285.902 250.973 282.932 244.622C277.297 232.57 267.764 223.645 255.982 217.685C253.051 216.203 247.074 210.912 244.013 209.728C241.199 208.638 241.209 211.819 238.439 210.621C236.224 209.663 234.163 208.386 232.923 206.247C231.576 203.925 228.201 200.677 227.687 197.973C226.598 192.243 227.777 187.366 223.689 183.053C220.06 179.224 215.182 176.6 210.135 175.192C199.031 172.094 184.224 174.26 177.524 184.581C174.325 189.51 173.207 195.468 168.889 199.491C165.119 203.003 165.963 205.405 161.08 207.215C160.803 207.318 153.307 205.709 153.031 205.812C147.689 204.669 142.583 207.87 137.683 209.728C130.376 212.496 123.42 216.1 116.885 220.384C103.708 229.021 92.4215 240.237 83.1168 252.929C73.7352 265.725 66.456 280.068 61.273 295.059C60.0143 298.7 58.8837 302.385 57.8865 306.107C57.3283 308.19 56.7318 310.35 57.4114 312.482C57.9673 314.227 59.2039 315.526 60.6561 316.572C62.6245 317.991 66.5729 318.913 66.4959 321.767C66.4372 323.937 65.7014 326.22 65.3422 328.365C64.9147 330.918 64.5635 333.487 64.2123 336.051C62.6146 347.725 61.3711 359.465 60.8211 371.238C60.2797 382.829 59.8305 394.658 60.6343 406.247C60.6874 407.011 60.9152 407.712 61.2826 408.305C60.9396 408.436 60.9132 409.076 61.34 409.167C61.6391 409.23 61.9375 409.293 62.2366 409.357C62.8579 409.827 63.6326 410.115 64.5242 410.143C65.1287 410.163 65.7327 410.19 66.3365 410.221C72.7079 411.553 79.0783 412.812 85.5328 413.765C93.3788 414.923 101.248 415.868 109.141 416.635C125.361 418.213 141.453 417.69 157.694 416.839C173.91 415.99 190.117 415.792 206.35 416.214C222.597 416.637 238.838 417.344 255.089 417.633C273.244 417.956 291.372 417.46 309.475 416.016C311.957 415.819 313.493 413.843 313.003 411.377C310.07 396.601 306.746 381.924 304.12 367.085Z" fill="white"/>
<path fill-rule="evenodd" clip-rule="evenodd" d="M147.966 205.449C149.645 205.376 151.357 205.647 153.032 205.812C153.177 205.826 153.233 206.052 153.069 206.086C150.071 206.712 147.106 207.569 144.162 208.44L142.902 208.813C139.582 209.795 136.359 210.809 133.145 212.119C126.74 214.731 120.656 218.256 115.058 222.305C93.4977 237.899 77.8936 261.509 68.0466 285.953C65.3724 292.592 63.1065 299.395 61.2711 306.313C60.8248 307.997 60.4049 309.686 60.0068 311.382C59.89 311.879 59.3806 313.151 59.6599 313.66C59.9068 314.109 60.8668 314.387 61.3127 314.621L62.8184 315.402C65.7553 316.916 70.6474 319.405 71.138 319.648L71.9031 320.025C84.4176 326.162 97.7893 331.366 111.872 331.727L111.982 330.524C112.61 323.872 113.434 317.186 115.233 310.739C115.329 310.393 115.77 310.509 115.81 310.817C116.812 318.449 116.492 326.141 116.142 333.808C115.523 347.388 114.701 360.96 113.971 374.535C113.605 381.326 113.132 388.112 112.706 394.899C112.278 401.699 112.14 408.663 111.164 415.408C110.946 416.911 109.186 417.728 107.853 417.57C106.378 417.394 105.244 416.095 105.237 414.605C105.219 410.676 105.712 406.701 105.987 402.781C106.247 399.058 106.527 395.336 106.813 391.614C107.86 378.031 109.065 364.464 110.179 350.887C110.574 346.072 111 341.261 111.439 336.45C96.5208 335.969 82.5834 330.441 69.2874 323.982C69.095 328.353 68.6302 332.717 68.1803 337.07C66.9242 349.218 65.8167 361.361 64.9878 373.547C64.5692 379.702 64.2645 385.864 63.9991 392.027C63.8687 395.055 63.7624 398.085 63.6809 401.116C63.6536 402.126 63.629 403.136 63.6072 404.146L63.5618 406.461C63.5247 407.927 63.3757 409.285 62.1423 410.353C60.8895 411.437 59.1974 411.495 57.9575 410.353C56.2978 408.824 56.5912 406.741 56.6404 404.687C56.6814 402.955 56.7305 401.224 56.7876 399.492C56.9022 396.029 57.0484 392.567 57.2264 389.106C57.849 377.008 59.093 364.958 60.7188 352.956L61.3534 348.323C62.5386 339.711 63.8397 330.902 66.4891 322.606C65.4575 322.092 64.4289 321.576 63.4043 321.056C61.5867 320.136 59.7074 319.272 57.9407 318.256C56.5391 317.45 55.3302 316.344 54.94 314.712C54.5049 312.894 55.1703 310.906 55.6124 309.133L55.6508 308.977C56.0842 307.191 56.551 305.413 57.0435 303.643C59.0406 296.464 61.5101 289.425 64.4002 282.557C70.187 268.809 77.6563 255.748 86.7801 243.938C94.9928 233.308 104.695 223.668 116.065 216.438C121.624 212.903 127.548 210 133.813 207.948C136.742 206.989 139.928 206.155 142.994 205.812C144.648 205.627 146.304 205.521 147.966 205.449ZM177.712 183.663C179.707 181.52 183.671 183.738 182.713 186.576C180.46 193.253 176.872 199.343 171.272 203.731C166.008 207.855 159.731 210.534 152.971 209.962C152.919 209.958 152.874 209.945 152.834 209.926L153.416 210.716C157.99 216.905 162.815 223.009 168.63 228.067C180.479 238.374 196.611 243.933 212.189 239.979C224.445 236.868 235.242 227.172 238.418 214.816C237.963 215.02 237.422 215.09 236.828 214.961C234.287 214.409 231.772 211.736 230.133 209.819C228.36 207.745 226.976 205.506 225.961 202.976C224.104 198.344 223.509 192.38 226.044 187.893C226.357 187.34 227.079 187.65 227.14 188.19L227.237 189.033C227.726 193.238 228.335 197.305 230.317 201.139C231.286 203.015 232.449 204.845 233.864 206.416C234.622 207.257 235.443 208.06 236.329 208.765C237.193 209.451 238.238 209.948 239.012 210.735L239.154 210.887L239.158 210.86C239.354 209.195 240.521 208.461 241.662 208.507C242.767 208.552 244.065 209.038 244.568 209.271L244.615 209.294C252.324 212.996 259.424 217.821 266.105 223.174C279.922 234.245 290.274 248.717 295.29 265.76C297.752 274.125 299.165 282.743 300.656 291.322L301.574 296.578C302.966 304.498 304.521 312.573 307.663 319.94C308.475 321.846 307.849 323.633 305.856 324.382C303.368 325.318 300.87 326.224 298.369 327.119C299.597 332.391 300.346 337.845 301.266 343.143C303.222 354.403 305.619 365.592 307.675 376.838C308.725 382.588 309.673 388.357 310.723 394.108C311.229 396.877 311.756 399.643 312.269 402.411C312.545 403.903 312.796 405.401 313.06 406.895L313.105 407.143C313.257 407.932 313.446 408.747 313.23 409.536C312.982 410.436 312.28 411.072 311.653 411.717C311.137 412.249 310.392 412.252 309.76 411.962L309.552 411.866C308.423 411.338 307.538 410.811 307.138 409.536C306.884 408.73 306.793 407.821 306.627 406.99C306.309 405.396 306.008 403.801 305.723 402.201C305.154 399 304.598 395.797 304.055 392.591L303.548 389.589C301.809 379.243 300.156 368.834 299.321 358.379C298.951 353.74 298.558 349.106 298.162 344.471L297.864 340.994C297.488 336.594 297.028 332.082 296.963 327.622L295.467 328.154L288.168 330.735C286.359 331.374 284.055 332.686 282.107 332.447C281.154 332.33 280.427 332.03 279.866 331.484C280.538 340.973 281.447 350.445 282.66 359.869C283.763 368.444 284.986 377.007 286.431 385.532C287.146 389.753 287.881 393.97 288.68 398.176C289.079 400.279 289.491 402.379 289.915 404.478C290.127 405.524 290.379 406.572 290.544 407.628C290.733 408.836 290.4 409.58 289.725 410.574C289.171 411.391 288.062 411.81 287.163 411.247C285.972 410.499 285.352 409.852 285.001 408.491C284.683 407.255 284.49 405.965 284.243 404.713C283.789 402.402 283.349 400.088 282.925 397.771C282.038 392.926 281.221 388.069 280.49 383.197C277.917 366.035 276.285 348.73 275.46 331.396C275.053 322.844 274.927 314.284 274.999 305.723C275.036 301.335 275.18 296.934 275.49 292.557C275.804 288.126 276.458 283.784 277.041 279.396C277.062 279.241 277.28 279.232 277.289 279.396C277.565 284.316 277.998 289.23 278.211 294.163C278.413 298.869 278.502 303.584 278.663 308.292C278.875 314.481 279.168 320.674 279.557 326.863C280.26 326.093 281.321 325.649 282.382 325.823C283.919 325.5 285.573 324.693 287.038 324.203L292.562 322.357C295.466 321.387 298.37 320.424 301.284 319.489C298.679 310.72 296.894 301.821 295.37 292.791L294.69 288.731C293.345 280.738 291.894 272.741 289.457 265.001C286.895 256.863 283.062 249.297 277.976 242.446C272.962 235.694 266.863 229.748 260.583 224.187C255.207 219.426 249.455 215.128 243.971 210.498C244.029 210.805 244.041 211.143 243.991 211.514C242.825 220.05 238.373 228 232.17 233.913C219.706 245.792 201.258 248.256 185.306 242.686C169.876 237.298 156.234 224.537 151.414 208.746C151.332 208.476 151.693 208.369 151.839 208.567C152.106 208.934 152.375 209.3 152.644 209.667C152.626 209.521 152.701 209.363 152.881 209.293C158.504 207.121 164.027 204.04 168.242 199.682C170.297 197.558 172.09 195.151 173.505 192.555C174.183 191.312 174.793 190.024 175.278 188.694L175.402 188.35C175.991 186.683 176.483 184.983 177.712 183.663Z" fill="black"/>
<path fill-rule="evenodd" clip-rule="evenodd" d="M173.64 52.4747L176.491 55.8668C174.912 56.9797 173.422 58.098 172.02 59.2217L172.019 59.2183C178.512 54.98 185.704 52.4747 193.473 52.4747C208.436 52.4747 238.829 65.3331 245.7 74.6078C249.11 79.2105 255.446 93.3405 258.733 108.702C261.374 121.045 265.301 155.916 261.374 169.019C256.347 185.788 239.808 201.287 222.755 201.287C205.701 201.287 179.226 188.971 160.382 161.98C159.521 160.746 149.626 159.316 142.568 154.683L144.421 175.108L145.829 186.989L145.519 187.834C140.463 201.511 136.457 208.647 133.5 209.241C130.483 209.846 124.339 204.899 115.068 194.398L113.883 189.423C110.874 176.734 109.369 169.923 109.369 168.989L109.371 168.819C109.416 166.672 110.155 154.516 110.17 151.245L110.171 102.217C120.142 69.0555 129.657 52.4747 138.717 52.4747H173.64Z" fill="white"/>
<path fill-rule="evenodd" clip-rule="evenodd" d="M150.014 41.1812C152.945 40.0452 156.342 40.2599 159.125 41.9705C164.588 41.736 170.022 44.9327 172.87 49.5989C172.93 49.665 172.993 49.731 173.049 49.7971L173.653 50.501C174.224 51.1731 174.827 51.914 175.305 52.679C172.965 52.7325 171.016 53.6866 169.655 55.6135C168.684 56.9884 170.908 58.2949 171.901 56.9945L171.935 56.947C172.752 55.7902 173.986 55.342 175.359 55.3186C175.753 55.312 176.052 55.1611 176.263 54.9385C176.347 55.2453 176.423 55.5554 176.492 55.8668C183.405 53.177 190.857 52.4647 198.279 53.1027C197.954 53.6298 197.682 54.1945 197.473 54.7879C197.235 55.4606 197.742 56.233 198.395 56.4127C199.101 56.6069 199.74 56.1927 199.996 55.5526L200.019 55.49C200.304 54.6816 200.77 53.9878 201.395 53.4498C204.89 53.9237 208.359 54.6773 211.744 55.6488C215.811 56.8175 219.841 58.2438 223.782 59.8768C223.114 60.1387 222.538 60.5812 222.134 61.32C221.328 62.7945 223.544 64.1153 224.385 62.7056L224.414 62.6534C224.497 62.5023 224.57 62.4114 224.623 62.3596L224.642 62.342L224.759 62.2885L224.975 62.2264L225.058 62.206C225.132 62.1895 225.162 62.1906 225.355 62.1799C225.612 62.1654 225.869 62.1667 226.126 62.1663C226.731 62.166 227.117 61.8288 227.291 61.3976C229.236 62.2757 231.156 63.2003 233.042 64.1689L233.49 64.4011C239.311 67.4437 244.826 71.4395 248.025 77.3188C248.237 77.7118 248.303 78.1411 248.25 78.5506C248.933 79.3696 249.593 80.215 250.227 81.0736C252.162 83.7023 253.578 86.6909 254.918 89.6531C257.615 95.6105 259.431 101.73 260.847 108.11C262.217 114.259 263.323 120.474 264.349 126.689C265.488 133.594 266.435 140.559 266.634 147.563C266.984 160.049 264.544 172.608 257.536 183.119C251.284 192.498 241.869 199.945 230.705 202.329C219.349 204.753 207.333 202.389 198.384 194.82C196.942 193.601 197.14 191.141 198.384 189.893C199.794 188.486 201.873 188.681 203.309 189.893C211.737 197.022 224.004 198.122 234.158 194.489C243.546 191.128 250.901 183.374 255.413 174.665C260.919 164.045 261.847 151.846 261.002 140.096C260.54 133.644 259.579 127.244 258.589 120.854L257.991 117.007C257.339 112.841 256.654 108.68 255.76 104.557L255.551 103.596C254.459 98.6229 253.179 93.5224 251.201 88.8473C250.165 86.3937 248.917 84.0292 247.64 81.6945C247.392 81.242 247.137 80.783 246.877 80.3207C246.527 80.4429 246.127 80.4627 245.708 80.3306C242.1 79.2078 238.393 78.4548 234.62 78.2039C232.901 78.0889 231.18 78.0711 229.46 78.1382C226.517 77.9668 223.491 78.2257 220.687 79.1285C220.413 78.8931 220.135 78.6626 219.857 78.4321C219.782 78.4261 219.707 78.4182 219.631 78.4033C218.916 78.2627 218.413 77.7541 218.11 77.1118C218.094 77.0778 218.08 77.0438 218.066 77.0097C217.708 76.7353 217.346 76.4652 216.981 76.1987C216.091 76.4295 215.311 75.6888 215.101 74.8771C214.903 74.7433 214.702 74.6139 214.502 74.4828C214.345 74.5211 214.189 74.5528 214.037 74.564C213.382 74.6112 212.749 74.5109 212.168 74.1981C211.433 73.8022 210.963 73.1635 210.649 72.438C209.537 72.5063 208.412 72.1454 207.418 71.4928C206.612 70.9635 205.994 70.2327 205.379 69.5032C197.893 66.1628 189.756 64.1907 181.599 63.6854C180.795 63.84 179.997 64.0239 179.209 64.2379C179.023 64.2888 178.758 64.3885 178.453 64.508C180.272 64.2881 182.114 64.2663 183.982 64.5354C192.847 65.8178 199.751 72.4575 205.693 78.725C207.107 78.4393 208.535 80.2705 207.227 81.4831L197.028 90.9381C197.278 91.9955 196.066 93.0377 195.004 92.7837C193.223 92.3558 191.44 91.9397 189.655 91.5305C187.793 92.4317 185.452 92.2775 183.763 90.9711C183.685 90.9103 183.514 90.8132 183.366 90.7168C183.227 90.8314 183.041 90.9463 182.967 90.9952C182.366 91.3928 181.635 91.5097 180.933 91.3981C180.211 91.2835 179.56 90.9172 178.999 90.4612C178.641 90.1707 177.808 88.9586 177.345 88.8693L177.3 88.8642C177.609 88.8731 176.615 89.7974 176.348 89.9886C175.724 90.4335 175.035 90.6673 174.26 90.5821C172.909 90.4333 171.747 89.2012 171.086 88.0635L171.036 87.9762L171.015 87.922L170.998 87.9806C170.994 87.991 170.991 88.002 170.986 88.0145C170.887 88.2823 170.576 88.5868 170.365 88.774C169.763 89.3067 169.017 89.5408 168.221 89.4018C167.547 89.2845 166.98 88.8771 166.525 88.3843L166.454 88.3058C166.319 88.1536 165.431 86.9604 165.572 86.6744L165.588 86.6503L165.544 86.641C165.004 86.7738 164.55 86.6407 164.218 86.3623C162.365 85.9561 160.536 85.4829 158.765 84.8812C158.627 85.2709 158.491 85.6606 158.359 86.0536C159.326 86.6513 160.221 87.5033 161.043 88.1109C162.601 89.2601 164.159 90.4094 165.714 91.5619L171.874 96.1079L172.578 95.9187C173.479 95.6769 174.251 96.2011 174.581 97.0025L174.609 97.0718C174.74 97.4229 174.897 97.7475 175.083 98.0582C176.623 97.9968 177.927 98.9426 178.348 100.299C178.729 100.291 179.113 100.305 179.506 100.348C180.582 100.467 181.307 101.266 181.112 102.363L181.097 102.438L181.071 102.561C181.695 102.826 182.147 103.337 182.247 104.11C182.414 104.362 182.549 104.635 182.635 104.94C183.085 106.52 182.21 108.473 181.743 109.986L181.708 110.105C181.408 111.099 181.099 112.089 180.785 113.079L180.005 115.535C177.84 122.382 175.73 129.6 177.482 136.778C177.855 138.297 175.914 138.984 175.072 137.795C173.031 134.916 170.827 132.204 168.512 129.601L168.399 129.583C166.778 129.257 166.149 128.111 165.405 126.944C164.966 127.073 164.495 127.103 164.039 127.015C163.38 126.888 162.789 126.511 162.322 126.035C161.927 125.632 161.565 124.597 161.098 124.34C160.514 124.02 159.339 124.478 158.641 124.375C158.074 124.291 157.544 124.097 157.03 123.852C156.085 125.14 155.459 126.655 155.306 128.287C155.246 128.908 155.061 129.433 154.794 129.869C155.777 129.833 156.764 129.902 157.739 130.084C161.343 130.754 163.928 132.98 165.381 136.295C165.443 136.441 165.255 136.56 165.169 136.421C163.014 133.102 158.323 132.934 154.916 134.103C151.298 135.344 149.268 138.531 148.545 142.167C147.753 146.153 148.769 150.449 150.938 153.844C151.945 155.423 153.318 156.863 155.144 157.444C157.313 158.134 159.316 156.899 161.538 157.536C163.05 157.969 163.717 159.432 163.442 160.895C163.334 161.469 163.132 161.971 162.861 162.407C163.661 163.992 164.4 165.624 165.341 167.123C166.793 169.438 168.55 171.353 170.464 173.285C172.441 175.28 174.455 177.235 176.571 179.084C178.598 180.857 180.922 182.119 183.048 183.744C184.54 184.883 185.279 186.481 184.543 188.311C183.936 189.823 181.889 191.111 180.232 190.428C177.059 189.12 174.283 186.894 171.755 184.602C169.411 182.476 167.371 179.933 165.829 177.172C164.375 174.569 163.303 171.613 162.399 168.766L162.287 168.411C161.861 167.057 161.413 165.534 161.122 163.999C159.382 164.95 157.022 165.089 155.16 164.831C152.153 164.418 149.41 162.902 147.337 160.693C146.37 159.665 145.516 158.493 144.779 157.221C144.846 157.995 144.886 158.744 144.929 159.425C146.652 161.313 147.344 164.039 146.732 166.525C148.174 168.01 148.578 170.238 147.825 172.136C149.403 173.702 149.344 176.194 148.662 178.457C150.527 180.543 150.704 183.793 149.247 186.147L149.203 186.316C150.674 188.778 150.343 191.96 148.5 194.134C149.758 196.577 149.563 199.862 146.418 200.81C145.271 201.155 144.16 200.86 143.329 200.218C144.088 203.995 144.428 207.83 143.415 211.625C143.012 213.131 141.54 214.231 139.992 214.231C138.698 214.231 137.757 213.58 137.107 212.623C137.183 214.528 137.067 216.443 136.661 218.375C136.416 219.542 135.335 220.452 134.186 220.734C134.6 221.201 134.766 221.877 134.368 222.581C132.685 225.563 128.616 224.326 128.341 221.469C127.192 220.611 126.658 219.202 126.437 217.68C126.114 215.46 125.998 213.277 125.632 211.086L125.493 211.216L125.421 211.279L125.398 211.437C125.188 212.52 124.578 213.279 123.785 213.731C123.958 215.621 123.639 217.545 122.44 218.98C121.642 219.936 120.282 220.313 119.117 220.105C119.044 220.109 118.969 220.109 118.891 220.099C116.251 219.747 114.723 217.243 115.418 214.944C114.355 213.64 113.908 211.987 114.222 210.353C112.165 208.99 112.207 205.998 112.92 203.594C110.764 201.892 109.952 198.709 111.036 196.18C109.093 193.766 108.822 190.401 110.143 187.652C108.005 185.895 108.017 182.502 110.137 180.705C109.008 178.463 108.327 175.775 109.456 173.723C108.659 172.844 108.222 171.591 108.314 170.38C108.449 168.602 109.625 167.374 111.084 166.555L111.185 165.999C111.528 166.042 111.893 165.946 112.215 165.637C112.534 165.331 112.861 165.084 113.2 164.881C113.584 164.876 113.915 164.705 114.147 164.441C114.783 164.225 115.467 164.13 116.225 164.121C117.862 164.104 117.92 161.654 116.396 161.495C116.155 161.252 115.824 161.099 115.465 161.099L115.183 161.1C114.525 161.106 113.861 161.147 113.25 161.409C112.853 161.579 112.547 161.835 112.323 162.148C112.281 162.621 112.024 163.093 111.466 163.483C110.822 163.934 109.941 163.986 109.252 163.579C108.287 163.008 108.277 162.118 108.388 161.149C108.632 159.031 107.415 157.038 107.704 154.871C107.833 153.913 108.152 153.086 108.672 152.418C107.575 150.776 107.382 148.657 108.226 146.855C106.468 144.962 106.164 142.045 107.285 139.767C107.301 139.712 107.314 139.656 107.331 139.601C107.458 139.214 107.632 138.865 107.825 138.531C106.841 136.825 106.848 134.732 107.848 133.033C106.333 131.266 106.285 128.453 107.632 126.549C107.64 126.391 107.657 126.233 107.67 126.075C107.052 124.469 107.2 122.642 107.985 121.148C107.705 120.503 107.489 119.808 107.351 119.067C106.998 117.158 107.18 115.302 107.708 113.44C107.793 113.146 107.889 112.852 107.991 112.558C108.008 111.283 108.057 110.012 108.121 108.745C107.87 107.671 107.83 106.492 107.824 105.397L107.822 104.687C107.81 102.881 107.684 100.235 108.826 98.6992C108.093 97.0401 108.394 94.9497 109.618 93.6348C108.759 92.157 108.579 90.3423 109.442 88.7027C109.581 88.4388 109.742 88.1931 109.918 87.9607C109.847 86.4591 110.162 84.9106 110.962 83.4183C111.482 82.4467 112.258 81.6056 113.181 80.9326C113.165 80.7335 113.155 80.5347 113.159 80.3388C113.175 79.465 113.369 78.5876 113.695 77.769C113.11 76.7697 112.838 75.6432 113.181 74.4293C113.563 73.0555 114.571 71.8733 115.828 71.2062C115.929 69.911 116.132 68.6234 116.421 67.353C115.648 65.6315 116.263 63.3595 118.01 62.3453C117.782 60.9696 117.988 59.543 118.988 58.4684C119.368 58.0612 119.815 57.7524 120.296 57.5477C120.064 56.1643 120.325 54.7252 121.282 53.5987C122.063 52.679 123.22 52.1203 124.398 52.038C124.851 49.632 127.149 47.8328 129.574 47.9762C129.877 46.9168 130.601 45.9931 131.724 45.5248C132.011 45.4049 132.302 45.326 132.591 45.2821C134.563 43.2928 137.497 41.9444 140.038 41.2539C142.587 40.564 145.17 40.4972 147.359 41.2993L147.518 41.3596L147.696 41.3365C148.469 41.2506 149.241 41.2011 150.014 41.1812ZM130.647 204.23C129.966 204.018 129.207 204.481 129.023 205.152C128.828 205.862 129.261 206.564 129.945 206.777C130.796 207.043 131.69 207.109 132.578 207.11C133.291 207.111 133.898 206.502 133.898 205.789C133.898 205.072 133.294 204.469 132.578 204.468C131.856 204.467 131.323 204.441 130.647 204.23ZM124.591 190.202C123.573 190.203 122.7 190.446 121.946 191.159C121.443 191.635 121.43 192.554 121.946 193.028C122.467 193.506 123.222 193.534 123.757 193.078L123.86 192.986C123.872 192.975 123.882 192.966 123.889 192.958C123.932 192.931 123.976 192.902 124.021 192.879L123.935 192.935C123.869 192.982 124.022 192.905 124.107 192.868L124.134 192.857L124.142 192.855L124.211 192.85C124.337 192.844 124.464 192.844 124.591 192.844C125.282 192.843 125.943 192.237 125.911 191.523C125.879 190.808 125.331 190.201 124.591 190.202ZM143.796 181.821C145.225 180.945 143.949 178.702 142.515 179.51L142.463 179.54C141.729 179.991 140.825 179.93 139.992 179.93C138.293 179.931 138.29 182.573 139.992 182.572L140.274 182.571C141.494 182.562 142.728 182.477 143.796 181.821ZM132.548 172.179C131.468 171.975 130.259 171.794 129.123 171.918L128.934 171.941H128.584C128.281 171.941 127.986 172.064 127.75 172.256C127.377 172.411 127.023 172.619 126.7 172.899C125.414 174.015 127.288 175.876 128.567 174.767C128.638 174.705 128.721 174.654 128.813 174.613L128.883 174.583H130.296C130.424 174.583 130.549 174.556 130.671 174.518C131.129 174.581 131.557 174.672 131.846 174.726C133.507 175.039 134.219 172.493 132.548 172.179ZM131.343 146.823C129.273 145.863 126.981 145.87 125.066 147.203C123.698 148.157 124.969 150.406 126.35 149.518L126.399 149.485C126.571 149.365 126.747 149.265 126.925 149.174C127.897 149.455 128.875 149.469 129.815 149.123L129.937 149.076L130.01 149.104C131.542 149.815 132.885 147.539 131.343 146.823ZM153.88 142.684C151.789 142.45 151.772 139.145 153.88 139.382C158.33 139.881 162.368 141.86 165.325 145.259C166.701 146.84 164.436 149.152 163.034 147.642L162.991 147.594C160.64 144.891 157.466 143.086 153.88 142.684ZM130.457 125.719C129.992 125.668 129.528 125.643 129.071 125.665C127.975 125.718 126.639 126.45 127.121 127.772C127.506 128.831 128.771 128.873 129.396 128.308C129.656 128.314 129.915 128.332 130.174 128.358C130.863 128.429 131.546 128.56 132.226 128.694C133.886 129.021 134.597 126.475 132.928 126.147L132.19 126.001C131.941 125.952 131.69 125.904 131.438 125.861C131.287 125.786 131.126 125.735 130.953 125.722L130.866 125.719H130.457ZM117.336 105.223L117.181 105.202C114.951 104.917 111.372 105.179 111.101 108.019C110.952 109.591 113.223 109.69 113.671 108.345C115.318 108.049 116.978 107.992 118.613 108.172C119.237 107.538 119.242 106.319 118.203 106.015C118.057 105.621 117.751 105.283 117.336 105.223ZM168.307 100.427C167.792 99.9538 166.947 99.8911 166.44 100.427C166.147 100.735 165.904 101.078 165.71 101.455L165.582 101.71C165.56 101.752 165.538 101.794 165.515 101.836C165.471 101.913 165.423 101.986 165.376 102.061L165.344 102.092C165.331 102.105 165.316 102.12 165.299 102.139C164.824 102.641 164.763 103.515 165.299 104.007C165.814 104.48 166.659 104.543 167.166 104.007C167.458 103.699 167.702 103.356 167.895 102.979L168.024 102.724C168.045 102.682 168.068 102.64 168.091 102.599C168.134 102.521 168.183 102.448 168.23 102.373L168.282 102.321C168.29 102.313 168.298 102.305 168.307 102.295C168.782 101.793 168.842 100.919 168.307 100.427ZM141.229 96.9869C139.369 95.668 137.156 95.6065 135.446 97.1933C134.212 98.3386 136.025 100.174 137.27 99.1006L137.313 99.0615C137.359 99.0192 137.405 98.9822 137.45 98.9469C137.673 99.1371 137.957 99.2576 138.281 99.258C138.366 99.2582 138.45 99.258 138.535 99.2597L138.662 99.2642L138.73 99.2698L138.738 99.2715L138.798 99.2967C138.906 99.3458 139.056 99.4214 138.85 99.2926C138.896 99.3167 138.939 99.3451 138.983 99.3729L139.059 99.4419C139.556 99.9128 140.418 99.9749 140.912 99.4541C141.787 99.1582 142.251 97.7111 141.229 96.9869ZM159.419 92.6593L159.453 92.6487C161.084 92.1827 160.391 89.633 158.751 90.1009C157.011 90.5979 156.18 92.2177 155.832 93.8768C155.686 94.5746 156.037 95.3048 156.754 95.5019C157.41 95.6819 158.232 95.2807 158.379 94.5792C158.482 94.086 158.601 93.6675 158.79 93.2792L158.904 93.0575C158.957 92.9564 158.976 92.9397 159.156 92.7824C159.186 92.756 159.323 92.692 159.419 92.6593ZM131.787 79.3538L131.532 79.2955C129.943 78.9473 127.833 78.7654 126.874 80.3415C125.999 81.7774 128.206 83.0844 129.114 81.7272C129.128 81.7267 129.144 81.7269 129.163 81.7284L129.193 81.7318L129.6 81.6988C130.107 81.6951 130.593 81.785 131.085 81.9015C132.738 82.2929 133.443 79.7461 131.787 79.3538ZM188.841 69.1977C190.044 67.994 188.178 66.1252 186.974 67.3299C186.022 68.282 185.104 69.2406 184.486 70.4503C184.161 71.085 184.32 71.8835 184.96 72.2577C185.549 72.6028 186.44 72.4211 186.766 71.7838C187.302 70.7353 187.979 70.0609 188.841 69.1977ZM173.658 66.038C172.469 66.7421 171.7 67.9018 171.233 69.2442C170.998 69.9179 171.5 70.689 172.155 70.869C172.859 71.0626 173.503 70.6499 173.756 70.009L173.779 69.9463C173.904 69.5874 174.104 69.1633 174.352 68.8433C174.563 68.5702 174.891 68.2968 175.139 68.206C175.734 67.9874 176.156 67.4478 176.101 66.8177C175.122 67.1562 174.213 66.749 173.658 66.038ZM138.074 60.2919C136.875 59.1784 135.266 59.0307 133.812 59.7048C133.165 60.0046 133.003 60.9382 133.338 61.5121C133.726 62.1762 134.495 62.2872 135.145 61.986C134.978 62.0633 135.279 61.9612 135.409 61.9239C135.426 61.9317 135.644 61.9217 135.719 61.9228L135.809 61.9285C135.81 61.9291 135.788 61.9287 135.743 61.9272C135.806 61.9415 135.869 61.9586 135.93 61.9783L136.009 62.0056C135.97 61.9973 136.148 62.1136 136.198 62.1523L136.207 62.1597C137.451 63.3152 139.323 61.4514 138.074 60.2919Z" fill="black"/>
<path fill-rule="evenodd" clip-rule="evenodd" d="M233.89 162.113C235.022 160.114 238.402 160.439 238.918 162.771C239.967 167.498 234.332 171.863 230.052 171.972C225.8 172.08 221.028 168.459 221.644 163.885C221.796 162.754 223.306 162.891 223.821 163.6L224.021 163.873C225.42 165.752 227.266 167.698 229.861 167.24C230.937 167.05 231.914 166.378 232.565 165.512C233.349 164.468 233.263 163.22 233.89 162.113ZM206.848 127.531C207.425 127.372 208.006 127.434 208.517 127.651C209.657 127.86 210.609 128.811 210.944 129.897C210.971 129.991 211 130.084 211.033 130.176L211.083 130.313L210.947 129.965C211.01 130.307 211.289 130.668 211.389 131.012C211.513 131.435 211.543 131.915 211.501 132.381C211.864 132.384 212.226 132.397 212.588 132.428L212.937 132.459C214.893 132.641 217.039 132.975 218.198 134.665C218.849 135.614 218.238 137.324 217.042 137.507C215.201 137.789 213.615 136.77 211.781 136.566C210.046 136.373 208.231 136.483 206.519 136.797C202.985 137.443 199.737 138.876 196.293 139.776L195.824 139.895L195.825 139.892C195.234 140.035 194.564 139.214 195.148 138.734C197.908 136.466 201.44 134.628 204.921 133.509C204.414 132.702 204.257 131.64 204.604 130.774C204.657 130.594 204.724 130.42 204.794 130.246L204.941 129.888C204.955 129.719 204.987 129.552 205.034 129.389L205.042 129.339L205.046 129.342C205.305 128.499 205.982 127.77 206.848 127.531ZM242.052 127.661C242.806 126.906 243.867 127.018 244.654 127.612L244.759 127.694C245.501 128.024 246.116 128.745 246.519 129.413C246.938 130.107 247.216 130.814 247.227 131.577C249.054 131.583 250.804 132.131 252.145 133.607C252.578 134.083 252.874 134.818 252.636 135.463L252.494 135.847C252.043 137.067 250.019 137.769 249.33 136.335L249.299 136.265C248.567 134.562 245.76 134.741 244.269 134.915C243.229 135.037 242.202 135.295 241.198 135.585C240.844 135.687 240.493 135.798 240.143 135.911L239.793 136.024C239.606 136.085 238.633 136.613 239.238 136.488C239.401 136.455 239.523 136.692 239.357 136.771C238.636 137.116 237.866 136.429 237.914 135.654C237.998 134.308 240.134 133.57 241.162 133.106L241.224 133.078C241.618 132.895 242.031 132.721 242.457 132.558C242.217 132.202 242.019 131.806 241.855 131.38C241.699 130.979 241.595 130.588 241.538 130.161C241.482 129.953 241.482 129.744 241.538 129.535L241.546 129.475C241.517 129.337 241.503 129.194 241.505 129.051L241.499 128.995H241.505C241.526 128.492 241.725 127.988 242.052 127.661ZM229.994 141.995C232.894 142.891 237.677 145.333 236.166 149.101C234.056 152.562 228.461 150.019 225.75 148.9C223.314 148.093 222.046 151.508 224.401 152.538C243.864 160.24 243.792 139.911 230.7 140.21C229.258 140.243 229.213 141.697 229.994 141.995ZM204.244 115.488L204.739 115.344C207.309 114.599 209.932 113.313 212.214 115.32C213.11 116.108 213.294 117.745 212.653 118.728C211.193 120.967 209.027 120.625 206.668 120.816C204.872 120.961 203.103 121.489 201.427 122.148C200.057 122.688 198.787 123.447 197.587 124.293C196.409 125.126 195.603 126.427 194.395 127.177C193.952 127.451 193.44 127.169 193.281 126.723C192.717 125.143 193.67 123.175 194.476 121.828C195.46 120.186 196.955 118.842 198.562 117.826C200.322 116.713 202.268 116.07 204.244 115.488ZM241.69 113.788C246.034 113.787 250.214 116.204 252.644 119.747C253.469 120.95 252.864 122.734 251.679 123.427C250.35 124.205 248.928 123.645 248.052 122.53L248 122.462C246.607 120.606 244.81 119.144 242.681 118.192C241.642 117.728 240.494 117.351 239.37 117.16L239.007 117.097C238.498 117.012 237.907 116.93 237.447 117.01C237.201 117.043 236.974 117.124 236.765 117.248C236.866 117.468 236.607 117.732 236.367 117.6C235.288 117.007 235.42 115.949 236.312 115.127C237.573 113.964 240.061 113.788 241.69 113.788Z" fill="black"/>
</g>
<defs>
<clipPath id="clip0">
<rect width="375" height="406.25" fill="white"/>
</clipPath>
</defs>
</svg>
