<svg width="25" height="24" viewBox="0 0 25 24" fill="none" xmlns="http://www.w3.org/2000/svg">
<path fill-rule="evenodd" clip-rule="evenodd" d="M6.76002 3.47943C9.95397 2.29703 13.771 3.17054 16.198 5.47985C17.2277 6.45965 18.008 7.66672 18.4793 8.9999H19C20.5913 8.9999 22.1174 9.63204 23.2426 10.7573C24.3678 11.8825 25 13.4086 25 14.9999C25 16.5912 24.3678 18.1173 23.2426 19.2425C22.1174 20.3678 20.5913 20.9999 19 20.9999V19.9999V18.9999C20.0608 18.9999 21.0783 18.5785 21.8284 17.8283C22.5786 17.0782 23 16.0608 23 14.9999C23 13.939 22.5786 12.9216 21.8284 12.1715C21.0783 11.4213 20.0608 10.9999 19 10.9999H17.74C17.284 10.9999 16.8857 10.6914 16.7717 10.2499C16.4444 8.98203 15.7679 7.83139 14.8193 6.92875C12.9215 5.12296 9.90222 4.44884 7.45437 5.35503C4.92822 6.29021 3.22339 8.53405 2.95081 11.2203C2.6618 14.0684 3.70253 16.593 6.04169 18.1592C6.59149 18.5 7.05619 18.6978 7.61239 18.8196C8.19582 18.9474 8.91721 18.9999 9.99998 18.9999H19V19.9999V20.9999H9.99998C8.87505 20.9999 7.98165 20.9479 7.1846 20.7733C6.36478 20.5938 5.68631 20.2939 4.97145 19.8488C4.96262 19.8434 4.95388 19.8377 4.94523 19.832C1.90818 17.8072 0.605901 14.518 0.961027 11.0184C1.30896 7.58963 3.5023 4.68543 6.76002 3.47943Z" fill="#18191F"/>
</svg>
