<svg width="25" height="24" viewBox="0 0 25 24" fill="none" xmlns="http://www.w3.org/2000/svg">
<path fill-rule="evenodd" clip-rule="evenodd" d="M9 18C9.55228 18 10 18.4477 10 19V21C10 21.5523 9.55228 22 9 22C8.44772 22 8 21.5523 8 21V19C8 18.4477 8.44772 18 9 18Z" fill="#18191F"/>
<path fill-rule="evenodd" clip-rule="evenodd" d="M9 12C9.55228 12 10 12.4477 10 13V15C10 15.5523 9.55228 16 9 16C8.44772 16 8 15.5523 8 15V13C8 12.4477 8.44772 12 9 12Z" fill="#18191F"/>
<path fill-rule="evenodd" clip-rule="evenodd" d="M17 18C17.5523 18 18 18.4477 18 19V21C18 21.5523 17.5523 22 17 22C16.4477 22 16 21.5523 16 21V19C16 18.4477 16.4477 18 17 18Z" fill="#18191F"/>
<path fill-rule="evenodd" clip-rule="evenodd" d="M17 12C17.5523 12 18 12.4477 18 13V15C18 15.5523 17.5523 16 17 16C16.4477 16 16 15.5523 16 15V13C16 12.4477 16.4477 12 17 12Z" fill="#18191F"/>
<path fill-rule="evenodd" clip-rule="evenodd" d="M13 20C13.5523 20 14 20.4477 14 21V23C14 23.5523 13.5523 24 13 24C12.4477 24 12 23.5523 12 23V21C12 20.4477 12.4477 20 13 20Z" fill="#18191F"/>
<path fill-rule="evenodd" clip-rule="evenodd" d="M13 14C13.5523 14 14 14.4477 14 15V17C14 17.5523 13.5523 18 13 18C12.4477 18 12 17.5523 12 17V15C12 14.4477 12.4477 14 13 14Z" fill="#18191F"/>
<path fill-rule="evenodd" clip-rule="evenodd" d="M9.08241 0.0465457C10.5013 -0.0979346 11.9342 0.0968592 13.263 0.614871C14.5918 1.13288 15.7785 1.95928 16.7252 3.02595C17.498 3.89662 18.0929 4.90703 18.4793 5.99996H19.0012C20.3784 6.00158 21.7131 6.47691 22.7813 7.34616C23.8494 8.21541 24.5861 9.42567 24.8675 10.7738C25.149 12.1219 24.9581 13.5258 24.3269 14.7498C23.6957 15.9738 22.6627 16.9435 21.4012 17.496C20.8953 17.7175 20.3056 17.487 20.084 16.9811C19.8625 16.4752 20.093 15.8855 20.5989 15.664C21.4399 15.2956 22.1285 14.6492 22.5493 13.8332C22.9701 13.0172 23.0974 12.0812 22.9097 11.1825C22.7221 10.2838 22.231 9.47693 21.5189 8.89742C20.8069 8.31801 19.9172 8.00113 18.9992 7.99996C18.9991 7.99996 18.9994 7.99996 18.9992 7.99996H17.74C17.284 7.99996 16.8858 7.69149 16.7718 7.24999C16.4944 6.17595 15.9658 5.1832 15.2294 4.35357C14.4931 3.52394 13.5701 2.88119 12.5366 2.47829C11.5031 2.07539 10.3886 1.92388 9.28502 2.03626C8.18145 2.14863 7.12038 2.52167 6.18928 3.12462C5.25818 3.72757 4.4837 4.54317 3.92969 5.50419C3.37567 6.46521 3.05799 7.54414 3.00281 8.65205C2.94763 9.75996 3.15654 10.8651 3.61233 11.8764C4.06811 12.8877 4.75771 13.7763 5.6243 14.4687C6.05575 14.8135 6.12602 15.4428 5.78125 15.8742C5.43648 16.3057 4.80722 16.3759 4.37577 16.0312C3.26159 15.1408 2.37496 13.9985 1.78895 12.6982C1.20294 11.3979 0.93434 9.97702 1.00528 8.55257C1.07623 7.12812 1.48468 5.74092 2.19699 4.50532C2.90929 3.26972 3.90505 2.22109 5.10218 1.44587C6.29931 0.670643 7.66353 0.191026 9.08241 0.0465457Z" fill="#18191F"/>
</svg>
