<svg width="25" height="24" viewBox="0 0 25 24" fill="none" xmlns="http://www.w3.org/2000/svg">
<path fill-rule="evenodd" clip-rule="evenodd" d="M9.08241 1.04655C10.5013 0.902065 11.9342 1.09686 13.263 1.61487C14.5918 2.13288 15.7785 2.95928 16.7252 4.02595C17.498 4.89662 18.0929 5.90703 18.4793 6.99996H19.0012C20.3784 7.00158 21.7131 7.47691 22.7813 8.34616C23.8494 9.21541 24.5861 10.4257 24.8675 11.7738C25.149 13.1219 24.9581 14.5258 24.3269 15.7498C23.6957 16.9738 22.6627 17.9435 21.4012 18.496C20.8953 18.7175 20.3056 18.487 20.084 17.9811C19.8625 17.4752 20.093 16.8855 20.5989 16.664C21.4399 16.2956 22.1285 15.6492 22.5493 14.8332C22.9701 14.0172 23.0974 13.0812 22.9097 12.1825C22.7221 11.2838 22.231 10.4769 21.5189 9.89742C20.8069 9.31801 19.9172 9.00113 18.9992 8.99996C18.9991 8.99996 18.9994 8.99996 18.9992 8.99996H17.74C17.284 8.99996 16.8858 8.69149 16.7718 8.24999C16.4944 7.17595 15.9658 6.1832 15.2294 5.35357C14.4931 4.52394 13.5701 3.88119 12.5366 3.47829C11.5031 3.07539 10.3886 2.92388 9.28502 3.03626C8.18145 3.14863 7.12038 3.52167 6.18928 4.12462C5.25818 4.72757 4.4837 5.54317 3.92969 6.50419C3.37567 7.46521 3.05799 8.54414 3.00281 9.65205C2.94763 10.76 3.15654 11.8651 3.61233 12.8764C4.06811 13.8877 4.75771 14.7763 5.6243 15.4687C6.05575 15.8135 6.12602 16.4428 5.78125 16.8742C5.43648 17.3057 4.80722 17.3759 4.37577 17.0312C3.26159 16.1408 2.37496 14.9985 1.78895 13.6982C1.20294 12.3979 0.93434 10.977 1.00528 9.55257C1.07623 8.12812 1.48468 6.74092 2.19699 5.50532C2.90929 4.26972 3.90505 3.22109 5.10218 2.44586C6.29931 1.67064 7.66353 1.19103 9.08241 1.04655Z" fill="#18191F"/>
<path fill-rule="evenodd" clip-rule="evenodd" d="M8 16C8 15.4477 8.44772 15 9 15H9.01C9.56228 15 10.01 15.4477 10.01 16C10.01 16.5523 9.56228 17 9.01 17H9C8.44772 17 8 16.5523 8 16Z" fill="#18191F"/>
<path fill-rule="evenodd" clip-rule="evenodd" d="M8 20C8 19.4477 8.44772 19 9 19H9.01C9.56228 19 10.01 19.4477 10.01 20C10.01 20.5523 9.56228 21 9.01 21H9C8.44772 21 8 20.5523 8 20Z" fill="#18191F"/>
<path fill-rule="evenodd" clip-rule="evenodd" d="M12 18C12 17.4477 12.4477 17 13 17H13.01C13.5623 17 14.01 17.4477 14.01 18C14.01 18.5523 13.5623 19 13.01 19H13C12.4477 19 12 18.5523 12 18Z" fill="#18191F"/>
<path fill-rule="evenodd" clip-rule="evenodd" d="M12 22C12 21.4477 12.4477 21 13 21H13.01C13.5623 21 14.01 21.4477 14.01 22C14.01 22.5523 13.5623 23 13.01 23H13C12.4477 23 12 22.5523 12 22Z" fill="#18191F"/>
<path fill-rule="evenodd" clip-rule="evenodd" d="M16 16C16 15.4477 16.4477 15 17 15H17.01C17.5623 15 18.01 15.4477 18.01 16C18.01 16.5523 17.5623 17 17.01 17H17C16.4477 17 16 16.5523 16 16Z" fill="#18191F"/>
<path fill-rule="evenodd" clip-rule="evenodd" d="M16 20C16 19.4477 16.4477 19 17 19H17.01C17.5623 19 18.01 19.4477 18.01 20C18.01 20.5523 17.5623 21 17.01 21H17C16.4477 21 16 20.5523 16 20Z" fill="#18191F"/>
</svg>
