<svg width="24" height="24" viewBox="0 0 24 24" fill="none" xmlns="http://www.w3.org/2000/svg">
<g clip-path="url(#clip0)">
<path fill-rule="evenodd" clip-rule="evenodd" d="M7.51804 0.122635C10.4807 -0.369942 13.5569 0.682019 15.5975 2.88561C16.434 3.78886 17.0744 4.85201 17.4819 6.00788C18.9799 6.04686 20.6165 6.2739 22.0265 7.54734C23.1307 8.54465 23.825 9.91668 23.9746 11.3971C24.281 14.4308 22.1871 17.2733 19.1989 17.8801C18.6577 17.99 18.1298 17.6403 18.0199 17.0991C17.91 16.5578 18.2597 16.03 18.8009 15.9201C20.7821 15.5178 22.1879 13.6095 21.9847 11.5981C21.885 10.6112 21.4221 9.69646 20.686 9.03158C19.6612 8.10599 18.4371 8.00009 16.7399 8.00009C16.284 8.00009 15.8857 7.69165 15.7717 7.25017C15.4818 6.12783 14.9177 5.09504 14.1301 4.24453C12.5466 2.53456 10.1451 1.71332 7.84606 2.09555C5.54704 2.47779 3.54049 4.03191 2.59545 6.16229C1.14665 9.42828 2.49908 13.4065 5.60419 15.1252C6.0874 15.3926 6.26229 16.0012 5.99483 16.4844C5.72737 16.9676 5.11884 17.1425 4.63564 16.875C0.62761 14.6565 -1.10361 9.56874 0.767254 5.3513C1.9851 2.60595 4.55536 0.615213 7.51804 0.122635Z" fill="#18191F"/>
<path fill-rule="evenodd" clip-rule="evenodd" d="M13.5547 10.1681C14.0142 10.4744 14.1384 11.0953 13.8321 11.5548L10.8685 16.0001H15C15.3688 16.0001 15.7077 16.2031 15.8817 16.5282C16.0557 16.8534 16.0366 17.248 15.8321 17.5548L11.8321 23.5548C11.5257 24.0143 10.9048 24.1385 10.4453 23.8322C9.98577 23.5258 9.8616 22.9049 10.168 22.4454L13.1315 18.0001H9C8.63121 18.0001 8.29235 17.7971 8.11833 17.472C7.94431 17.1468 7.96338 16.7523 8.16795 16.4454L12.168 10.4454C12.4743 9.98588 13.0952 9.8617 13.5547 10.1681Z" fill="#18191F"/>
</g>
<defs>
<clipPath id="clip0">
<rect width="24" height="24" fill="white"/>
</clipPath>
</defs>
</svg>
